<svg width="28" height="25" viewBox="0 0 28 25" fill="none" xmlns="http://www.w3.org/2000/svg">
<path d="M26 10.1886H6L12.58 3.48557C12.7675 3.29617 12.9162 3.07083 13.0178 2.82255C13.1193 2.57428 13.1716 2.30798 13.1716 2.03901C13.1716 1.77005 13.1193 1.50375 13.0178 1.25548C12.9162 1.0072 12.7675 0.781863 12.58 0.592461C12.2053 0.212993 11.6984 0 11.17 0C10.6416 0 10.1347 0.212993 9.76 0.592461L1.18 9.35328C0.428825 10.1139 0.00446558 11.1471 0 12.226C0.00973317 13.2979 0.433689 14.3227 1.18 15.0784L9.76 23.8392C9.94648 24.0278 10.1676 24.1772 10.4107 24.2788C10.6539 24.3803 10.9143 24.4321 11.1771 24.4312C11.4399 24.4302 11.6999 24.3766 11.9423 24.2732C12.1848 24.1699 12.4048 24.019 12.59 23.829C12.7752 23.639 12.9218 23.4138 13.0215 23.1661C13.1212 22.9184 13.172 22.6531 13.1711 22.3854C13.1702 22.1177 13.1175 21.8528 13.0161 21.6059C12.9147 21.3589 12.7665 21.1347 12.58 20.9461L6 14.2634H26C26.5304 14.2634 27.0391 14.0488 27.4142 13.6667C27.7893 13.2846 28 12.7664 28 12.226C28 11.6857 27.7893 11.1674 27.4142 10.7854C27.0391 10.4033 26.5304 10.1886 26 10.1886Z" fill="white"/>
</svg>
