<svg width="20" height="20" viewBox="0 0 20 20" fill="none" xmlns="http://www.w3.org/2000/svg">
<path d="M9.16797 3.3335H3.33464C2.89261 3.3335 2.46868 3.50909 2.15612 3.82165C1.84356 4.13421 1.66797 4.55814 1.66797 5.00016V16.6668C1.66797 17.1089 1.84356 17.5328 2.15612 17.8453C2.46868 18.1579 2.89261 18.3335 3.33464 18.3335H15.0013C15.4433 18.3335 15.8673 18.1579 16.1798 17.8453C16.4924 17.5328 16.668 17.1089 16.668 16.6668V10.8335" stroke="#708D96" stroke-linecap="round" stroke-linejoin="round"/>
<path d="M15.418 2.0832C15.7495 1.75168 16.1991 1.56543 16.668 1.56543C17.1368 1.56543 17.5864 1.75168 17.918 2.0832C18.2495 2.41472 18.4357 2.86436 18.4357 3.3332C18.4357 3.80204 18.2495 4.25168 17.918 4.5832L10.0013 12.4999L6.66797 13.3332L7.5013 9.99986L15.418 2.0832Z" stroke="#708D96" stroke-linecap="round" stroke-linejoin="round"/>
</svg>
