<svg width="35" height="35" viewBox="0 0 35 35" fill="none" xmlns="http://www.w3.org/2000/svg">
<path d="M17.5013 18.9584C18.3067 18.9584 18.9596 18.3055 18.9596 17.5001C18.9596 16.6947 18.3067 16.0417 17.5013 16.0417C16.6959 16.0417 16.043 16.6947 16.043 17.5001C16.043 18.3055 16.6959 18.9584 17.5013 18.9584Z" stroke="#262444" stroke-width="2" stroke-linecap="round" stroke-linejoin="round"/>
<path d="M27.7083 18.9584C28.5137 18.9584 29.1667 18.3055 29.1667 17.5001C29.1667 16.6947 28.5137 16.0417 27.7083 16.0417C26.9029 16.0417 26.25 16.6947 26.25 17.5001C26.25 18.3055 26.9029 18.9584 27.7083 18.9584Z" stroke="#262444" stroke-width="2" stroke-linecap="round" stroke-linejoin="round"/>
<path d="M7.29036 18.9584C8.09578 18.9584 8.7487 18.3055 8.7487 17.5001C8.7487 16.6947 8.09578 16.0417 7.29036 16.0417C6.48495 16.0417 5.83203 16.6947 5.83203 17.5001C5.83203 18.3055 6.48495 18.9584 7.29036 18.9584Z" stroke="#262444" stroke-width="2" stroke-linecap="round" stroke-linejoin="round"/>
</svg>
