<svg width="25" height="22" viewBox="0 0 25 22" fill="none" xmlns="http://www.w3.org/2000/svg">
<path d="M23.2143 9.17473H5.35714L11.2321 3.13871C11.3995 2.96816 11.5324 2.76524 11.623 2.54167C11.7137 2.3181 11.7604 2.07831 11.7604 1.83611C11.7604 1.59391 11.7137 1.35411 11.623 1.13054C11.5324 0.906973 11.3995 0.704059 11.2321 0.533504C10.8976 0.191798 10.445 0 9.97321 0C9.50145 0 9.04886 0.191798 8.71429 0.533504L1.05357 8.42252C0.382879 9.10749 0.00398712 10.0378 0 11.0094C0.00869033 11.9746 0.387222 12.8974 1.05357 13.5779L8.71429 21.4669C8.88078 21.6368 9.07821 21.7713 9.2953 21.8627C9.51239 21.9542 9.74489 22.0008 9.97953 22C10.2142 21.9991 10.4463 21.9508 10.6628 21.8578C10.8792 21.7647 11.0757 21.6288 11.2411 21.4577C11.4064 21.2867 11.5373 21.0838 11.6263 20.8608C11.7154 20.6378 11.7607 20.3989 11.7599 20.1578C11.7591 19.9168 11.7121 19.6782 11.6215 19.4558C11.5309 19.2334 11.3986 19.0316 11.2321 18.8617L5.35714 12.844H23.2143C23.6879 12.844 24.1421 12.6507 24.477 12.3067C24.8119 11.9626 25 11.496 25 11.0094C25 10.5228 24.8119 10.0562 24.477 9.71209C24.1421 9.36802 23.6879 9.17473 23.2143 9.17473Z" fill="white"/>
</svg>
