<svg width="25" height="25" viewBox="0 0 25 25" fill="none" xmlns="http://www.w3.org/2000/svg">
<g clip-path="url(#clip0_152_319)">
<path d="M12.5 23.9583C15.9518 23.9583 18.75 21.1601 18.75 17.7083C18.75 14.2566 15.9518 11.4583 12.5 11.4583C9.04822 11.4583 6.25 14.2566 6.25 17.7083C6.25 21.1601 9.04822 23.9583 12.5 23.9583Z" fill="#FF3D00"/>
<path d="M11.8573 9.39998L8.02708 2.76352C7.93565 2.60518 7.80416 2.4737 7.64581 2.38228C7.48746 2.29086 7.30784 2.24274 7.125 2.24274C6.94216 2.24274 6.76254 2.29086 6.60419 2.38228C6.44584 2.4737 6.31435 2.60518 6.22292 2.76352L0 13.5417H5.28542C5.9627 12.37 6.91489 11.3807 8.05983 10.6591C9.20477 9.93759 10.5081 9.50544 11.8573 9.39998Z" fill="#FF3D00"/>
<path d="M13.543 4.16669V9.4396C15.1981 9.65108 16.752 10.3532 18.0046 11.4556C19.2572 12.558 20.1511 14.0102 20.5711 15.625H25.0013V4.16669H13.543Z" fill="#FF3D00"/>
</g>
<defs>
<clipPath id="clip0_152_319">
<rect width="25" height="25" fill="white"/>
</clipPath>
</defs>
</svg>
