<svg width="25" height="25" viewBox="0 0 25 25" fill="none" xmlns="http://www.w3.org/2000/svg">
<g clip-path="url(#clip0_131_709)">
<path d="M12.5 23.9583C15.9518 23.9583 18.75 21.16 18.75 17.7083C18.75 14.2565 15.9518 11.4583 12.5 11.4583C9.04822 11.4583 6.25 14.2565 6.25 17.7083C6.25 21.16 9.04822 23.9583 12.5 23.9583Z" fill="white"/>
<path d="M11.8573 9.39992L8.02708 2.76346C7.93565 2.60512 7.80416 2.47364 7.64581 2.38222C7.48746 2.2908 7.30784 2.24268 7.125 2.24268C6.94216 2.24268 6.76254 2.2908 6.60419 2.38222C6.44584 2.47364 6.31435 2.60512 6.22292 2.76346L0 13.5416H5.28542C5.9627 12.3699 6.91489 11.3806 8.05983 10.6591C9.20477 9.93753 10.5081 9.50538 11.8573 9.39992Z" fill="white"/>
<path d="M13.543 4.16675V9.43967C15.1981 9.65114 16.752 10.3533 18.0046 11.4557C19.2572 12.5581 20.1511 14.0102 20.5711 15.6251H25.0013V4.16675H13.543Z" fill="white"/>
</g>
<defs>
<clipPath id="clip0_131_709">
<rect width="25" height="25" fill="white"/>
</clipPath>
</defs>
</svg>
