<svg width="25" height="25" viewBox="0 0 25 25" fill="none" xmlns="http://www.w3.org/2000/svg">
<g clip-path="url(#clip0_152_442)">
<path fill-rule="evenodd" clip-rule="evenodd" d="M4.28898 0.0756714C2.41241 0.417908 0.835608 1.79711 0.244495 3.61332C-0.0111204 4.39877 -0.00482153 4.15453 0.00953394 12.6983L0.022864 20.6299L0.127844 20.9976C0.420618 22.0228 0.862073 22.8004 1.53009 23.4677C2.20358 24.1404 3.02677 24.6046 4.01276 24.8677L4.41715 24.9756H12.4982H20.5793L21.0154 24.8603C22.0106 24.5974 22.8059 24.1367 23.5089 23.4158C24.2292 22.6773 24.7094 21.7752 24.888 20.8252C24.9284 20.6104 24.9807 20.3965 25.0043 20.3498C25.0602 20.239 25.0607 4.57567 25.0048 4.61024C24.9816 4.6246 24.9478 4.51097 24.9298 4.3577C24.8809 3.94125 24.5848 3.10301 24.3306 2.66117C23.5974 1.3868 22.5051 0.553552 21.0187 0.134753L20.6281 0.024646L12.6447 0.0162476C6.01159 0.0092163 4.5983 0.0192749 4.28898 0.0756714ZM0.0220339 12.5C0.0220339 16.8372 0.0277957 18.6115 0.0348269 16.4429C0.0418582 14.2744 0.0418582 10.7258 0.0348269 8.55717C0.0277957 6.38861 0.0220339 8.16288 0.0220339 12.5ZM8.76285 6.32147C8.10529 6.46854 7.45441 6.83011 7.08038 7.25609C6.4839 7.93544 6.12423 9.02635 6.29528 9.63734C6.47242 10.27 7.1945 10.5888 7.76642 10.2868C8.08434 10.119 8.23707 9.86893 8.3234 9.37504C8.40973 8.88114 8.56246 8.63109 8.88038 8.46327C9.08864 8.35331 9.13414 8.34965 10.2842 8.34965H11.4728V12.4937V16.6377L10.8258 16.6611C10.0809 16.6879 9.92008 16.7388 9.6566 17.0308C9.14108 17.6021 9.40377 18.4935 10.1487 18.7004C10.3853 18.7661 14.6111 18.7661 14.8477 18.7004C15.3956 18.5482 15.7224 17.9815 15.576 17.4376C15.5089 17.1888 15.2234 16.8582 14.9884 16.7576C14.8779 16.7102 14.5891 16.6762 14.1706 16.6611L13.5236 16.6377V12.4937V8.34965H14.7122C15.8623 8.34965 15.9078 8.35331 16.116 8.46327C16.4339 8.63109 16.5867 8.88114 16.673 9.37504C16.7593 9.86893 16.9121 10.119 17.23 10.2868C17.8019 10.5888 18.524 10.27 18.7011 9.63734C18.8352 9.15848 18.6103 8.24789 18.2102 7.64965C17.8108 7.05248 17.2738 6.64374 16.5792 6.40819L16.1847 6.27445L12.6203 6.26522C9.7901 6.2579 8.99547 6.26947 8.76285 6.32147Z" fill="#FF3D00"/>
</g>
<defs>
<clipPath id="clip0_152_442">
<rect width="25" height="25" fill="white"/>
</clipPath>
</defs>
</svg>
