<svg width="25" height="25" viewBox="0 0 25 25" fill="none" xmlns="http://www.w3.org/2000/svg">
<g clip-path="url(#clip0_131_720)">
<path fill-rule="evenodd" clip-rule="evenodd" d="M4.28898 0.0755493C2.41241 0.417786 0.835608 1.79699 0.244495 3.6132C-0.0111204 4.39864 -0.00482153 4.15441 0.00953394 12.6982L0.022864 20.6298L0.127844 20.9975C0.420618 22.0227 0.862073 22.8003 1.53009 23.4675C2.20358 24.1402 3.02677 24.6045 4.01276 24.8676L4.41715 24.9755H12.4982H20.5793L21.0154 24.8602C22.0106 24.5973 22.8059 24.1365 23.5089 23.4157C24.2292 22.6772 24.7094 21.7751 24.888 20.8251C24.9284 20.6103 24.9807 20.3964 25.0043 20.3497C25.0602 20.2389 25.0607 4.57555 25.0048 4.61012C24.9816 4.62448 24.9478 4.51085 24.9298 4.35758C24.8809 3.94113 24.5848 3.10289 24.3306 2.66105C23.5974 1.38668 22.5051 0.55343 21.0187 0.134631L20.6281 0.0245239L12.6447 0.0161255C6.01159 0.00909423 4.5983 0.0191528 4.28898 0.0755493ZM0.0220339 12.4999C0.0220339 16.8371 0.0277957 18.6114 0.0348269 16.4428C0.0418582 14.2742 0.0418582 10.7256 0.0348269 8.55704C0.0277957 6.38849 0.0220339 8.16276 0.0220339 12.4999ZM8.76285 6.32135C8.10529 6.46842 7.45441 6.82999 7.08038 7.25597C6.4839 7.93532 6.12423 9.02623 6.29528 9.63722C6.47242 10.2698 7.1945 10.5886 7.76642 10.2867C8.08434 10.1189 8.23707 9.86881 8.3234 9.37491C8.40973 8.88102 8.56246 8.63097 8.88038 8.46315C9.08864 8.35319 9.13414 8.34952 10.2842 8.34952H11.4728V12.4936V16.6376L10.8258 16.6609C10.0809 16.6878 9.92008 16.7387 9.6566 17.0307C9.14108 17.602 9.40377 18.4934 10.1487 18.7003C10.3853 18.766 14.6111 18.766 14.8477 18.7003C15.3956 18.5481 15.7224 17.9814 15.576 17.4375C15.5089 17.1886 15.2234 16.8581 14.9884 16.7575C14.8779 16.7101 14.5891 16.676 14.1706 16.6609L13.5236 16.6376V12.4936V8.34952H14.7122C15.8623 8.34952 15.9078 8.35319 16.116 8.46315C16.4339 8.63097 16.5867 8.88102 16.673 9.37491C16.7593 9.86881 16.9121 10.1189 17.23 10.2867C17.8019 10.5886 18.524 10.2698 18.7011 9.63722C18.8352 9.15836 18.6103 8.24777 18.2102 7.64952C17.8108 7.05236 17.2738 6.64362 16.5792 6.40807L16.1847 6.27433L12.6203 6.2651C9.7901 6.25778 8.99547 6.26935 8.76285 6.32135Z" fill="white"/>
</g>
<defs>
<clipPath id="clip0_131_720">
<rect width="25" height="25" fill="white"/>
</clipPath>
</defs>
</svg>
