<svg width="25" height="25" viewBox="0 0 25 25" fill="none" xmlns="http://www.w3.org/2000/svg">
<g clip-path="url(#clip0_131_702)">
<path d="M25 23.9583C25 24.5312 24.5312 24.9999 23.9583 24.9999C22.3542 24.9999 21.5729 23.8333 21.0104 22.9687C20.4896 22.1874 20.2292 21.8749 19.7917 21.8749C19.2604 21.8749 18.8542 22.3333 18.2188 23.0728C17.4896 23.9374 16.5833 24.9999 15.0625 24.9999C13.5417 24.9999 12.6458 23.927 11.9375 23.052C11.3333 22.3228 10.9375 21.8749 10.4167 21.8749C10.0104 21.8749 9.76042 22.1353 9.20833 22.8228C8.45833 23.7395 7.42708 24.9999 5.20833 24.9999C2.33333 24.9999 0 22.6666 0 19.7916C0 16.9166 2.33333 14.5833 5.20833 14.5833C5.78125 14.5833 6.25 15.052 6.25 15.6249C6.25 16.1978 5.78125 16.6666 5.20833 16.6666C3.48958 16.6666 2.08333 18.0728 2.08333 19.7916C2.08333 21.5103 3.48958 22.9166 5.20833 22.9166C6.4375 22.9166 6.94792 22.2916 7.59375 21.4999C8.21875 20.7395 8.98958 19.7916 10.4167 19.7916C11.9479 19.7916 12.8333 20.8645 13.5417 21.7395C14.1458 22.4687 14.5417 22.9166 15.0625 22.9166C15.5833 22.9166 16 22.4583 16.6354 21.7187C17.3646 20.8541 18.2708 19.7916 19.7917 19.7916C21.3125 19.7916 22.1771 20.9583 22.7396 21.8228C23.2604 22.6041 23.5208 22.9166 23.9583 22.9166C24.5312 22.9166 25 23.3853 25 23.9583ZM9.36458 16.6666H10.3438C11.4479 16.6666 12.5104 16.2291 13.2917 15.4478L21.3333 7.40617L17.5937 3.66659L9.55208 11.7083C8.77083 12.4895 8.33333 13.552 8.33333 14.6562V15.6353C8.33333 16.2083 8.79167 16.6666 9.36458 16.6666ZM24.2292 4.51033C24.7292 4.01033 25 3.34367 25 2.63534C25 1.927 24.7292 1.26034 24.2292 0.770752C23.1979 -0.260498 21.5208 -0.260498 20.4896 0.770752L19.0729 2.18742L22.8125 5.927L24.2292 4.51033Z" fill="white"/>
</g>
<defs>
<clipPath id="clip0_131_702">
<rect width="25" height="25" fill="white"/>
</clipPath>
</defs>
</svg>
