<svg width="25" height="25" viewBox="0 0 25 25" fill="none" xmlns="http://www.w3.org/2000/svg">
<g clip-path="url(#clip0_131_734)">
<path d="M19.1501 7.68017C18.9659 7.62433 18.7981 7.52407 18.6617 7.3882C18.5253 7.25234 18.4244 7.08503 18.3678 6.90101C18.0488 5.8198 17.5138 4.81456 16.7951 3.94611C16.0764 3.07765 15.1889 2.36404 14.1865 1.84846C13.184 1.33288 12.0874 1.02605 10.9629 0.946539C9.83842 0.867024 8.70951 1.01648 7.64446 1.38586C6.57942 1.75524 5.6004 2.33686 4.76663 3.09553C3.93286 3.85421 3.26169 4.77416 2.79372 5.79971C2.32576 6.82526 2.07073 7.9351 2.04407 9.06207C2.01742 10.189 2.21969 11.3097 2.63864 12.3562C2.73455 12.5768 2.75478 12.8229 2.69618 13.0562C2.63758 13.2894 2.50344 13.4967 2.31468 13.6458C1.48523 14.2614 0.837648 15.0898 0.440467 16.0434C0.0432851 16.9969 -0.0887159 18.0401 0.0584343 19.0625C0.288073 20.4446 1.00565 21.6987 2.08092 22.597C3.15618 23.4952 4.51788 23.9782 5.91885 23.9583H14.5824V16.0562L13.2355 17.4031C13.0391 17.5928 12.7759 17.6978 12.5028 17.6955C12.2297 17.6931 11.9684 17.5835 11.7753 17.3904C11.5822 17.1973 11.4726 16.936 11.4702 16.6629C11.4679 16.3898 11.5729 16.1266 11.7626 15.9302L13.4147 14.2781C14.0007 13.6922 14.7954 13.3631 15.6241 13.3631C16.4527 13.3631 17.2474 13.6922 17.8334 14.2781L19.4855 15.9302C19.585 16.0263 19.6644 16.1412 19.719 16.2683C19.7735 16.3954 19.8023 16.5321 19.8035 16.6704C19.8047 16.8087 19.7783 16.9459 19.726 17.0739C19.6736 17.2019 19.5962 17.3182 19.4984 17.416C19.4006 17.5138 19.2843 17.5912 19.1563 17.6435C19.0283 17.6959 18.8911 17.7223 18.7528 17.7211C18.6145 17.7199 18.4778 17.6911 18.3507 17.6365C18.2236 17.5819 18.1087 17.5026 18.0126 17.4031L16.6657 16.0562V23.9448C18.7391 23.9033 20.7262 23.1072 22.2547 21.7056C23.7832 20.3041 24.7482 18.3933 24.9689 16.3312C25.1344 14.4413 24.6471 12.5517 23.5883 10.9774C22.5294 9.40318 20.963 8.23943 19.1501 7.68017Z" fill="white"/>
</g>
<defs>
<clipPath id="clip0_131_734">
<rect width="25" height="25" fill="white"/>
</clipPath>
</defs>
</svg>
