<svg width="30" height="30" viewBox="0 0 30 30" fill="none" xmlns="http://www.w3.org/2000/svg">
<path fill-rule="evenodd" clip-rule="evenodd" d="M12.8027 0.0619356C11.9902 0.183752 11.0876 0.534143 10.3542 1.01244C9.0426 1.86791 8.1358 3.11022 7.70379 4.64356L7.60887 4.98047H5.6468C4.42676 4.98047 3.58893 5.00461 3.43148 5.04422C2.89412 5.17951 2.51953 5.6683 2.51953 6.23408C2.51953 6.62965 2.57484 6.78094 2.8227 7.06324C3.14086 7.42553 3.37277 7.49725 4.2317 7.49871L4.97713 7.5L4.99687 16.0693C5.01855 25.4601 4.994 24.8078 5.36473 25.8402C5.57789 26.4337 5.78959 26.8399 6.1585 27.3633C6.98994 28.5428 8.24496 29.4077 9.71449 29.8136L10.2832 29.9707H15H19.7168L20.3027 29.8116C21.4496 29.5001 22.7165 28.7264 23.4115 27.9131C24.1059 27.1003 24.5377 26.277 24.8344 25.1997L24.9889 24.6387L25.0061 16.0693L25.0232 7.5L25.7685 7.49871C26.6272 7.49725 26.8592 7.42553 27.1773 7.06324C27.4252 6.78094 27.4805 6.62965 27.4805 6.23408C27.4805 5.6683 27.1059 5.17951 26.5685 5.04422C26.4111 5.00461 25.5749 4.98047 24.3592 4.98047H22.4031L22.1805 4.30377C21.8483 3.29373 21.2842 2.4068 20.5184 1.69049C19.7678 0.988303 18.8037 0.463596 17.7146 0.16465C17.2917 0.0485176 17.0955 0.037502 15.2051 0.0239669C14.0771 0.0158809 12.9961 0.0329317 12.8027 0.0619356ZM12.8652 2.61158C12.4074 2.72467 11.7543 3.04576 11.4258 3.31922C10.9146 3.74467 10.4184 4.41041 10.2859 4.84863L10.246 4.98047H15H19.754L19.7151 4.84863C19.6285 4.55514 19.209 3.93457 18.8733 3.60352C18.448 3.18404 17.9712 2.88434 17.4236 2.69227C17.0341 2.55569 16.9615 2.55082 15.1172 2.53846C13.6073 2.52832 13.1409 2.54344 12.8652 2.61158ZM12.2176 12.5501C11.7872 12.645 11.4328 12.985 11.307 13.4235C11.2726 13.5435 11.25 15.1811 11.25 17.5526V21.4829L11.4111 21.801C11.8368 22.6412 12.9919 22.7244 13.5204 21.9529C13.7629 21.5989 13.7752 21.3582 13.7573 17.3113C13.7404 13.4837 13.7391 13.445 13.6141 13.2129C13.3273 12.6799 12.7883 12.4241 12.2176 12.5501ZM17.2852 12.5368C16.8728 12.6171 16.584 12.8395 16.3692 13.2422C16.2661 13.4354 16.2588 13.6699 16.2427 17.3113C16.2312 19.9276 16.2462 21.2709 16.2892 21.4714C16.5419 22.6501 18.0504 22.864 18.5904 21.7979L18.753 21.4767L18.7369 17.4327C18.719 12.957 18.7443 13.2453 18.3343 12.8445C18.0715 12.5875 17.6539 12.4651 17.2852 12.5368Z" fill="#708D96"/>
</svg>
