<svg width="30" height="30" viewBox="0 0 30 30" fill="none" xmlns="http://www.w3.org/2000/svg">
<g clip-path="url(#clip0_487_94)">
<path fill-rule="evenodd" clip-rule="evenodd" d="M5.17777 0.0856082C3.91408 0.31846 2.75035 0.929768 1.84021 1.83885C1.03854 2.63959 0.508789 3.57276 0.157578 4.80287C0.0333008 5.23805 0.031543 5.30965 0.0314258 9.99024L0.03125 14.7363L0.187051 15.2999C0.487578 16.387 0.984629 17.2618 1.76199 18.0714C2.84076 19.1951 4.29148 19.8834 5.74941 19.9631C6.5365 20.0061 6.72236 19.9693 7.02518 19.7101C7.47682 19.3235 7.46838 19.3679 7.50811 17.168C7.53805 15.5124 7.56248 15.1124 7.66443 14.6129C8.39305 11.0422 11.0442 8.3911 14.6149 7.66248C15.1143 7.56053 15.5144 7.5361 17.1699 7.50615C19.3699 7.46643 19.3254 7.47487 19.712 7.02323C19.9712 6.72041 20.0081 6.53455 19.9651 5.74746C19.8858 4.29809 19.2072 2.85967 18.0924 1.77785C17.2738 0.983557 16.4087 0.489671 15.307 0.187561L14.7383 0.0316433L10.168 0.0199246C6.59199 0.010784 5.50631 0.0250222 5.17777 0.0856082ZM15.2949 10.0591C12.7903 10.5027 10.8526 12.2658 10.1867 14.707L10.0508 15.2051V20.0391V24.8731L10.2139 25.4004C10.9021 27.6252 12.5131 29.2097 14.702 29.8149L15.2656 29.9707L20.0117 29.9705C24.6923 29.9704 24.7639 29.9687 25.1991 29.8444C26.4292 29.4932 27.3624 28.9634 28.1631 28.1617C28.9568 27.3672 29.5018 26.4104 29.8419 25.2147C29.9719 24.7573 29.9724 24.7404 29.9725 20.0098L29.9727 15.2637L29.8169 14.7001C29.5037 13.5672 28.93 12.5889 28.1176 11.8021C27.3222 11.0317 26.5009 10.551 25.4023 10.2127L24.875 10.0503L20.1582 10.0417C17.564 10.0371 15.3755 10.0449 15.2949 10.0591Z" fill="#708D96"/>
</g>
<defs>
<clipPath id="clip0_487_94">
<rect width="30" height="30" fill="white"/>
</clipPath>
</defs>
</svg>
