<svg width="20" height="20" viewBox="0 0 20 20" fill="none" xmlns="http://www.w3.org/2000/svg">
<g clip-path="url(#clip0_508_40)">
<path fill-rule="evenodd" clip-rule="evenodd" d="M15.287 0.875427C14.8855 0.952107 14.6342 1.04019 14.2668 1.23301C13.7952 1.48043 13.5656 1.67781 12.8123 2.4832C12.3982 2.9259 12.1153 3.19867 12.0831 3.18633C11.9457 3.13363 11.3187 3.08328 11.0744 3.10531C10.0923 3.19394 9.14504 3.6564 8.29852 4.46054C7.9425 4.79875 7.85176 4.9589 7.85176 5.24922C7.85176 5.86832 8.665 7.4525 9.56871 8.59375C9.95191 9.07765 10.936 10.0689 11.4064 10.4447C12.2621 11.1284 13.4175 11.7881 14.2556 12.0714C14.8353 12.2674 15.0848 12.1961 15.5173 11.7108C16.1985 10.9466 16.5993 10.2328 16.7778 9.46648C16.8707 9.06785 16.8907 8.51117 16.8254 8.1464L16.7697 7.83578L17.2033 7.42222C17.4418 7.19476 17.7407 6.91265 17.8675 6.79535C18.3959 6.3066 18.8376 5.59394 19.0045 4.96094C19.1034 4.5857 19.1257 3.7991 19.048 3.4234C18.8391 2.41332 18.2253 1.61203 17.3244 1.17355C17.1096 1.06898 16.8195 0.954685 16.6799 0.919568C16.3279 0.831013 15.6343 0.80906 15.287 0.875427ZM6.43477 8.91601C4.89215 10.5223 3.46941 12.1347 2.7223 13.1235C2.47855 13.4461 2.26871 13.8509 2.17422 14.1809C2.02844 14.69 2.02273 15.3955 2.16059 15.8594L2.21281 16.0352L1.65863 16.6211C1.35383 16.9434 1.06414 17.2861 1.01488 17.3828C0.892305 17.6235 0.865625 18.0446 0.955821 18.3161C1.05988 18.6294 1.28035 18.8777 1.58949 19.0299C1.81848 19.1427 1.89348 19.1601 2.14781 19.1599C2.6252 19.1595 2.7975 19.0564 3.45852 18.3756L4.00762 17.81L4.25977 17.8777C4.60469 17.9704 5.31555 17.9692 5.68379 17.8753C6.17473 17.7501 6.61262 17.5066 7.20723 17.028C8.36234 16.0985 9.87121 14.7495 11.2075 13.4518L11.8875 12.7914L11.5282 12.5636C10.3589 11.8223 9.09363 10.6698 8.19941 9.53125C7.97848 9.24992 7.52324 8.59375 7.37965 8.34961C7.30703 8.22609 7.23562 8.125 7.22102 8.125C7.20641 8.125 6.85258 8.48097 6.43477 8.91601Z" fill="white"/>
</g>
<defs>
<clipPath id="clip0_508_40">
<rect width="20" height="20" fill="white"/>
</clipPath>
</defs>
</svg>
