<svg width="30" height="30" viewBox="0 0 30 30" fill="none" xmlns="http://www.w3.org/2000/svg">
<g clip-path="url(#clip0_152_847)">
<path fill-rule="evenodd" clip-rule="evenodd" d="M10.5747 0.114621C9.09228 0.506496 8.0107 1.29329 7.16109 2.59782C6.69 3.32122 6.41783 4.13638 6.3266 5.09743C6.21152 6.30903 6.27597 7.23165 6.5073 7.68505C6.9614 8.57521 8.08828 8.94546 8.9908 8.5012C9.42281 8.28851 9.6822 8.01775 9.89138 7.56107C10.0288 7.26101 10.0429 7.15079 10.0748 6.12282C10.1085 5.03321 10.1129 5.00292 10.2803 4.69788C10.4883 4.3186 10.7572 4.07427 11.1872 3.87382C11.5007 3.72769 11.5621 3.72118 12.9185 3.69071C14.2948 3.65978 14.331 3.65585 14.62 3.50462C14.9301 3.34237 15.339 2.94206 15.4849 2.65782C15.8443 1.95798 15.6693 1.01204 15.08 0.468879C14.5813 0.00921059 14.5443 0.00212075 12.6548 0.00428872C11.2209 0.00592934 10.9269 0.0215739 10.5747 0.114621ZM22.3995 0.1138C21.5435 0.502453 21.1073 1.53581 21.4121 2.45345C21.5374 2.83062 21.9539 3.29808 22.3457 3.50134C22.6293 3.64835 22.7035 3.65837 23.7583 3.69165C24.7167 3.72195 24.9097 3.74398 25.1456 3.85027C25.5307 4.02382 25.9252 4.40849 26.1142 4.79474C26.2678 5.10857 26.2767 5.17548 26.3085 6.23855C26.3401 7.29693 26.3496 7.36841 26.497 7.65259C26.7002 8.04441 27.1677 8.46089 27.5449 8.58616C28.2465 8.81925 29.0553 8.62302 29.5341 8.10359C29.9738 7.62651 29.9958 7.52796 29.9968 6.03493C29.9979 4.43105 29.9264 4.05025 29.4415 3.07595C28.8712 1.93032 28.068 1.12706 26.9224 0.556828C25.9481 0.0719059 25.5673 0.00042153 23.9634 0.00147622C22.7938 0.00223794 22.6173 0.0149528 22.3995 0.1138ZM14.1081 6.3303C13.8381 6.47292 13.596 6.78411 13.531 7.07222C13.4971 7.22275 13.539 7.85204 13.6638 9.06775C13.7742 10.1421 13.825 10.8639 13.7925 10.8954C13.763 10.9239 13.0269 11.3211 12.1567 11.778C11.2866 12.2349 10.5128 12.6655 10.4372 12.7349C9.9539 13.1784 9.9733 14.002 10.477 14.4259C10.7085 14.6207 10.8366 14.6597 11.9867 14.886L12.9299 15.0716L12.4261 15.5551C12.1491 15.8211 9.37793 18.4412 6.26806 21.3775C3.1582 24.3139 0.514333 26.8421 0.39281 26.9958C-0.179944 27.72 -0.0999053 28.7295 0.58447 29.4138C1.2689 30.0983 2.27707 30.1782 3.0034 29.6055C3.15756 29.484 5.88656 26.6291 9.06785 23.2613C12.2492 19.8936 14.8771 17.125 14.9078 17.109C14.9385 17.0929 15.0589 17.5269 15.1761 18.0759C15.4369 19.2982 15.4363 19.2963 15.657 19.5476C15.9011 19.8256 16.1272 19.9309 16.4874 19.9341C16.8253 19.9372 17.1031 19.8198 17.3276 19.5791C17.4073 19.4936 17.8388 18.6919 18.2865 17.7976C19.0011 16.3702 19.1171 16.1717 19.2364 16.1717C19.3111 16.1717 20.1241 16.2498 21.043 16.3454C22.859 16.5342 22.9947 16.5286 23.3633 16.2504C23.7509 15.9579 23.896 15.3727 23.6983 14.8995C23.6425 14.7659 23.1335 14.207 22.3407 13.409L21.0724 12.1323L21.8767 10.4371C22.5771 8.96081 22.6812 8.70329 22.6833 8.4429C22.6861 8.07622 22.5402 7.77523 22.2432 7.53482C22.0636 7.3895 21.9597 7.35441 21.6506 7.33472C21.2759 7.31081 21.2753 7.31105 19.8466 7.98698C19.0607 8.35888 18.2943 8.7231 18.1436 8.79628L17.8696 8.92941L16.5911 7.65939C15.7918 6.86538 15.2325 6.35585 15.0988 6.30001C14.8066 6.1779 14.3715 6.1912 14.1081 6.3303ZM27.7427 14.9922C27.205 15.1329 26.686 15.5596 26.4648 16.043C26.3555 16.282 26.3346 16.4606 26.3064 17.4021C26.2762 18.4053 26.2626 18.5103 26.1234 18.8111C25.9247 19.2403 25.6803 19.5096 25.3004 19.718C24.9954 19.8854 24.9651 19.8898 23.8755 19.9235C22.8475 19.9554 22.7373 19.9695 22.4372 20.1069C21.6172 20.4826 21.1998 21.2481 21.3371 22.1242C21.4355 22.7512 21.831 23.2673 22.4196 23.5368C22.8204 23.7203 23.766 23.7767 24.813 23.6794C25.9125 23.5773 26.6808 23.3157 27.5183 22.7585C28.6117 22.0309 29.3748 21.0229 29.7986 19.7459C29.9587 19.2634 29.9645 19.2026 29.9857 17.7981C30.0073 16.3624 30.0061 16.3454 29.8646 16.0403C29.5765 15.4194 28.9614 15.0028 28.2782 14.9657C28.0803 14.955 27.8394 14.967 27.7427 14.9922Z" fill="#708D96"/>
</g>
<defs>
<clipPath id="clip0_152_847">
<rect width="30" height="30" fill="white"/>
</clipPath>
</defs>
</svg>
