<svg width="30" height="30" viewBox="0 0 30 30" fill="none" xmlns="http://www.w3.org/2000/svg">
<path fill-rule="evenodd" clip-rule="evenodd" d="M14.0612 0.0367982C12.1386 0.278908 10.3638 1.10842 9.00007 2.40235C7.76533 3.57387 6.95726 4.9333 6.5447 6.5332C6.31127 7.43842 6.26826 7.86041 6.26826 9.24551V10.5291L6.01923 10.6399C5.29173 10.9638 4.25714 11.8315 3.69523 12.589C3.19074 13.2691 2.77671 14.2365 2.60685 15.1318C2.47326 15.8363 2.47548 24.1953 2.60949 24.9017C3.06517 27.3039 4.85703 29.1897 7.29365 29.8318L7.82099 29.9707H14.9987H22.1765L22.7038 29.8318C24.8177 29.2748 26.4291 27.8132 27.1471 25.8018C27.4742 24.8854 27.4792 24.7986 27.4792 20.0098C27.4792 15.2597 27.4743 15.1709 27.1645 14.2611C26.7471 13.0354 25.9037 11.8963 24.8644 11.1547C24.3837 10.8117 23.4061 10.3551 22.7917 10.1868L22.2936 10.0503L15.5261 10.0203L8.75849 9.99024L8.74068 9.46289C8.71466 8.69162 8.82459 7.64789 8.99451 7.05334C10.0738 3.2768 14.3351 1.41938 17.8377 3.19875C18.7685 3.67166 19.668 4.47721 20.1846 5.30051C20.5961 5.95652 20.8905 6.23748 21.2589 6.3259C22.0751 6.52166 22.7917 5.94088 22.7917 5.08348C22.7917 4.82502 22.7494 4.6984 22.5413 4.33307C22.1562 3.65742 21.681 3.06193 21.0192 2.42584C19.817 1.27031 18.4076 0.531388 16.7272 0.175548C16.1548 0.0543177 14.5751 -0.0278893 14.0612 0.0367982ZM14.4218 17.6725C14.182 17.792 14.0769 17.8915 13.942 18.1266L13.7694 18.4277L13.7701 19.9805C13.7709 21.7258 13.7918 21.834 14.1969 22.1897C14.8107 22.7286 15.7801 22.5161 16.1199 21.7681C16.2145 21.56 16.2267 21.3563 16.2274 19.9805L16.2281 18.4277L16.0554 18.1266C15.8446 17.7591 15.4276 17.5195 14.9987 17.5195C14.8252 17.5195 14.6192 17.5741 14.4218 17.6725Z" fill="#708D96"/>
</svg>
