<svg width="30" height="30" viewBox="0 0 30 30" fill="none" xmlns="http://www.w3.org/2000/svg">
<g clip-path="url(#clip0_152_357)">
<path fill-rule="evenodd" clip-rule="evenodd" d="M13.682 0.0927338C11.8211 0.380078 10.1489 1.23725 8.79641 2.59721C7.59342 3.80682 6.78149 5.30547 6.40995 7.00193C6.33372 7.35004 6.29868 7.86262 6.27389 8.99383L6.24055 10.517L5.78124 10.7632C4.2946 11.5601 3.19995 12.9299 2.71051 14.6061L2.55272 15.1465L2.53409 19.8047C2.51774 23.9025 2.52682 24.5189 2.60973 24.9289C2.86198 26.1757 3.37544 27.1487 4.27567 28.0861C5.07928 28.9229 6.05065 29.497 7.20038 29.8149L7.76399 29.9707H15.0003H22.2366L22.8054 29.8136C23.9657 29.493 24.9141 28.9305 25.7343 28.0764C26.4923 27.2872 26.949 26.5003 27.2876 25.4004L27.4499 24.873L27.4677 20.2149C27.4868 15.2025 27.4861 15.1884 27.1784 14.2676C26.6764 12.7647 25.5542 11.452 24.1409 10.7141L23.7601 10.5153L23.723 8.96371C23.6928 7.69926 23.6638 7.31893 23.5665 6.90883C22.9882 4.47197 21.5606 2.48559 19.4877 1.2335C17.8135 0.222167 15.6267 -0.207501 13.682 0.0927338ZM13.9066 2.60629C11.5132 3.04053 9.56276 4.85043 8.95971 7.19676C8.82958 7.70318 8.71467 8.96078 8.74198 9.58006L8.76008 9.99021H15.0003H21.2406L21.2264 9.00531C21.2165 8.31783 21.1789 7.85775 21.1016 7.48187C20.6581 5.32305 19.093 3.55773 16.9851 2.83885C16.0784 2.52965 14.8433 2.43631 13.9066 2.60629ZM14.5023 17.6306C14.3734 17.6903 14.1968 17.8149 14.1099 17.9076C13.7909 18.2478 13.7698 18.3789 13.7698 20.0247C13.7698 21.4782 13.775 21.5478 13.9017 21.7957C14.1665 22.314 14.7485 22.5909 15.2786 22.4506C15.6379 22.3556 15.9334 22.1196 16.099 21.7957C16.2258 21.5474 16.2307 21.48 16.2295 20.012C16.2283 18.6521 16.2164 18.4608 16.1197 18.2519C15.8321 17.6306 15.1053 17.3514 14.5023 17.6306Z" fill="#708D96"/>
</g>
<defs>
<clipPath id="clip0_152_357">
<rect width="30" height="30" fill="white"/>
</clipPath>
</defs>
</svg>
