<svg width="57" height="57" viewBox="0 0 57 57" fill="none" xmlns="http://www.w3.org/2000/svg">
<path d="M26.5479 0.820312C28.2177 0.0983896 30.0974 0.610958 31.4629 2.2627L31.7285 2.6084C31.8253 2.74338 31.8753 2.81995 31.9219 3.00293C31.9767 3.21868 32.0226 3.57593 32.0596 4.26465C32.133 5.63548 32.1629 8.17612 32.2168 13.1885L32.3271 23.3975L32.332 23.8867L32.8213 23.8916L43.0322 24.002C46.6355 24.0407 49.2154 24.0865 50.9316 24.1455C51.7906 24.175 52.4274 24.2074 52.8652 24.2432C53.0845 24.2611 53.246 24.2793 53.3574 24.2969C53.4049 24.3044 53.4384 24.3113 53.46 24.3164C53.7677 24.5031 54.1716 24.8684 54.5518 25.3096C54.9416 25.7621 55.2617 26.2396 55.4102 26.5957C56.1165 28.2885 55.6127 30.1089 53.9609 31.4678L53.6152 31.7334C53.4802 31.8302 53.4037 31.8802 53.2207 31.9268C53.0049 31.9816 52.6473 32.0275 51.958 32.0645C50.5869 32.1379 48.0457 32.1678 43.0322 32.2217L32.8213 32.332L32.332 32.3369L32.3271 32.8262L32.2168 43.0342C32.1629 48.0464 32.133 50.587 32.0596 51.958C32.0226 52.6472 31.9767 53.0049 31.9219 53.2207C31.887 53.358 31.85 53.4354 31.793 53.5225L31.7285 53.6152C30.3473 55.5399 28.3961 56.1634 26.5898 55.4102C26.2338 55.2617 25.7562 54.9423 25.3037 54.5527C24.8637 54.1738 24.4979 53.7712 24.3105 53.4639C24.3054 53.4425 24.2979 53.4084 24.29 53.3584C24.2724 53.247 24.2543 53.0849 24.2363 52.8652C24.2005 52.4275 24.1682 51.7913 24.1387 50.9326C24.0797 49.2167 24.0339 46.6369 23.9951 43.0342L23.8848 32.8262L23.8799 32.3369L23.3906 32.332L13.1797 32.2217C9.57639 32.1829 6.99654 32.1371 5.28027 32.0781C4.4213 32.0486 3.78455 32.0163 3.34668 31.9805C3.12742 31.9625 2.96588 31.9443 2.85449 31.9268C2.80462 31.9189 2.77047 31.9104 2.74902 31.9053C2.13961 31.5412 1.57553 30.9449 1.16211 30.25C0.741341 29.5428 0.5 28.7757 0.5 28.1113C0.500103 27.4471 0.741465 26.6807 1.16211 25.9736C1.57604 25.2779 2.14071 24.6803 2.75098 24.3164C2.77253 24.3113 2.80634 24.3045 2.85449 24.2969C2.96588 24.2793 3.12741 24.2611 3.34668 24.2432C3.78455 24.2074 4.4213 24.175 5.28027 24.1455C6.99654 24.0865 9.57639 24.0407 13.1797 24.002L23.3906 23.8916L23.8799 23.8867L23.8848 23.3975L23.9951 13.1885C24.0339 9.58603 24.0797 7.0069 24.1387 5.29102C24.1682 4.43241 24.2005 3.79618 24.2363 3.3584C24.2543 3.13877 24.2724 2.97666 24.29 2.86523C24.298 2.81453 24.3053 2.78015 24.3105 2.75879C24.4917 2.46272 24.8542 2.0626 25.29 1.68164C25.7392 1.28899 26.2093 0.966746 26.5479 0.820312Z" fill="white" stroke="white"/>
</svg>
