<svg width="674" height="113" viewBox="0 0 674 113" fill="none" xmlns="http://www.w3.org/2000/svg">
<g clip-path="url(#clip0_87_284)">
<path d="M636.325 110.74C629.816 110.74 623.663 109.418 617.868 106.774C612.173 104.029 607.547 100.063 603.986 94.8767C600.427 89.6904 598.649 83.3856 598.649 75.9623V34.6255C598.649 33.3035 598.342 32.1848 597.733 31.2696C597.224 30.2528 596.513 29.4901 595.597 28.9816C594.683 28.4732 593.614 28.2189 592.394 28.2189C591.173 28.2189 590.055 28.4732 589.039 28.9816C588.123 29.4901 587.361 30.2528 586.75 31.2696C586.243 32.1848 585.987 33.3035 585.987 34.6255V108.757H554.566V34.9305C554.566 27.5071 556.294 21.2023 559.752 16.0161C563.311 10.83 567.989 6.86406 573.786 4.11845C579.581 1.37281 585.785 0 592.394 0C599.004 0 605.157 1.37281 610.851 4.11845C616.545 6.86406 621.173 10.83 624.732 16.0161C628.291 21.2023 630.07 27.5071 630.07 34.9305V76.2674C630.07 77.5894 630.376 78.7589 630.985 79.7757C631.596 80.7926 632.359 81.5553 633.273 82.0637C634.189 82.5721 635.155 82.8264 636.171 82.8264C637.29 82.8264 638.359 82.5721 639.375 82.0637C640.392 81.5553 641.206 80.7926 641.815 79.7757C642.426 78.7589 642.731 77.5894 642.731 76.2674V64.573H674.001V75.9623C674.001 83.3856 672.22 89.6904 668.661 94.8767C665.102 100.063 660.425 104.029 654.628 106.774C648.933 109.418 642.833 110.74 636.325 110.74Z" fill="white"/>
<path d="M506.867 108.808C500.767 108.808 495.174 107.486 490.088 104.842C485.106 102.198 481.141 98.5882 478.191 94.0122C475.242 89.3345 473.768 83.9449 473.768 77.8435C473.768 73.064 474.835 68.5898 476.971 64.4205C479.207 60.1494 482.259 56.5903 486.123 53.743C482.768 51.0991 480.072 47.8959 478.038 44.1332C476.004 40.2691 474.988 36.3032 474.988 32.2356C474.988 26.236 476.411 20.9988 479.258 16.5245C482.208 11.9484 486.123 8.38932 491.004 5.84706C495.987 3.30481 501.427 2.03369 507.325 2.03369H554.763V27.9645L514.647 27.812C513.02 27.812 511.546 28.1172 510.223 28.7272C508.901 29.2358 507.834 30.0493 507.02 31.1679C506.309 32.1847 505.953 33.5067 505.953 35.1338C505.953 36.6591 506.309 37.9811 507.02 39.0997C507.834 40.1166 508.901 40.93 510.223 41.5402C511.546 42.0486 513.02 42.3029 514.647 42.3029H549.424V67.9287H514.8C513.071 67.9287 511.546 68.2339 510.223 68.844C508.901 69.454 507.834 70.3185 507.02 71.4371C506.309 72.5556 505.953 73.9285 505.953 75.5555C505.953 77.0808 506.309 78.4028 507.02 79.5213C507.834 80.6399 508.901 81.5044 510.223 82.1145C511.546 82.6229 513.071 82.8772 514.8 82.8772H554.763V108.808H506.867Z" fill="white"/>
<path d="M376.521 108.808V2.03369H421.824C433.01 2.03369 442.722 4.3217 450.959 8.89776C459.195 13.4738 465.551 19.7787 470.025 27.812C474.602 35.8456 476.89 45.0486 476.89 55.4209C476.89 65.7933 474.602 74.9962 470.025 83.0297C465.551 91.0633 459.195 97.3681 450.959 101.944C442.722 106.52 433.01 108.808 421.824 108.808H376.521ZM409.469 83.0297H419.994C424.57 83.0297 428.637 81.962 432.196 79.8265C435.757 77.5894 438.553 74.386 440.587 70.2167C442.619 66.0475 443.637 61.1155 443.637 55.4209C443.637 49.7262 442.619 44.8452 440.587 40.7775C438.553 36.6082 435.757 33.405 432.196 31.1679C428.637 28.9306 424.57 27.812 419.994 27.812H409.469V83.0297Z" fill="white"/>
<path d="M276.986 108.808V2.03369H322.289C333.475 2.03369 343.186 4.3217 351.423 8.89776C359.66 13.4738 366.016 19.7787 370.49 27.812C375.065 35.8456 377.355 45.0486 377.355 55.4209C377.355 65.7933 375.065 74.9962 370.49 83.0297C366.016 91.0633 359.66 97.3681 351.423 101.944C343.186 106.52 333.475 108.808 322.289 108.808H276.986ZM309.934 83.0297H320.458C325.034 83.0297 329.102 81.962 332.661 79.8265C336.22 77.5894 339.016 74.386 341.05 70.2167C343.084 66.0475 344.1 61.1155 344.1 55.4209C344.1 49.7262 343.084 44.8452 341.05 40.7775C339.016 36.6082 336.22 33.405 332.661 31.1679C329.102 28.9306 325.034 27.812 320.458 27.812H309.934V83.0297Z" fill="white"/>
<path d="M218.593 110.803C213 110.803 207.611 110.142 202.424 108.82C197.34 107.498 192.611 105.566 188.239 103.024L183.357 108.82H158.342L173.595 91.1265C169.527 86.3471 166.375 80.9066 164.138 74.8052C161.901 68.7038 160.782 62.2465 160.782 55.4333C160.782 47.5016 162.206 40.1798 165.053 33.4684C167.901 26.7568 171.867 20.9097 176.951 15.9268C182.137 10.8423 188.239 6.92729 195.255 4.18168C202.374 1.43605 210.152 0.0632324 218.593 0.0632324C223.983 0.0632324 229.067 0.673379 233.846 1.89365C238.728 3.11393 243.253 4.79182 247.422 6.92729L251.694 2.04619H277.015L262.524 18.6724C266.896 23.4518 270.302 28.994 272.743 35.2987C275.183 41.5018 276.404 48.2133 276.404 55.4333C276.404 63.3651 274.981 70.6868 272.133 77.3984C269.286 84.1098 265.269 90.0078 260.083 95.0924C254.997 100.075 248.897 103.939 241.778 106.685C234.762 109.431 227.033 110.803 218.593 110.803ZM218.593 84.2625C222.356 84.2625 225.762 83.5505 228.813 82.1269C231.863 80.6016 234.457 78.517 236.592 75.873C238.728 73.2291 240.355 70.1784 241.473 66.7209C242.591 63.1617 243.151 59.3992 243.151 55.4333C243.151 53.0944 242.898 50.9081 242.389 48.8744C241.982 46.7389 241.371 44.7051 240.557 42.773L207.153 81.3643C208.881 82.2794 210.661 82.9912 212.491 83.4998C214.424 84.0082 216.457 84.2625 218.593 84.2625ZM196.17 66.2633L228.507 28.7398C226.982 28.0279 225.406 27.5195 223.779 27.2145C222.152 26.8077 220.424 26.6043 218.593 26.6043C214.831 26.6043 211.424 27.367 208.374 28.8923C205.322 30.3159 202.73 32.3498 200.594 34.9937C198.458 37.6377 196.831 40.7391 195.712 44.2984C194.594 47.7558 194.034 51.4674 194.034 55.4333C194.034 57.3654 194.187 59.2467 194.492 61.077C194.899 62.9076 195.459 64.6363 196.17 66.2633Z" fill="white"/>
<path d="M81.7585 110.795C75.2504 110.795 69.0982 109.473 63.3018 106.829C57.6072 104.185 52.9803 100.27 49.4212 95.0839C45.8621 89.8977 44.0825 83.542 44.0825 76.017V34.68C44.0825 33.3581 43.7775 32.2395 43.1673 31.3243C42.6589 30.3074 41.9469 29.5447 41.0318 29.0363C40.1166 28.5279 39.0489 28.2736 37.8286 28.2736C36.6084 28.2736 35.4897 28.5279 34.4729 29.0363C33.5577 29.5447 32.795 30.3074 32.1848 31.3243C31.6763 32.2395 31.4222 33.3581 31.4222 34.68V65.0853H0V34.9852C0 27.5618 1.72872 21.257 5.18617 16.0708C8.74532 10.8847 13.423 6.91875 19.2194 4.17314C25.0156 1.4275 31.2188 0.0546875 37.8286 0.0546875C44.4384 0.0546875 50.5906 1.4275 56.2853 4.17314C61.9799 6.91875 66.6068 10.8847 70.1659 16.0708C73.725 21.257 75.5046 27.5618 75.5046 34.9852V76.322C75.5046 77.644 75.8096 78.8134 76.4198 79.8304C77.03 80.7455 77.7927 81.4573 78.7078 81.9659C79.623 82.4743 80.5891 82.7286 81.606 82.7286C82.7246 82.7286 83.7923 82.4743 84.8092 81.9659C85.8262 81.4573 86.6396 80.7455 87.2498 79.8304C87.8599 78.8134 88.1649 77.644 88.1649 76.322V34.9852C88.1649 27.5618 89.9446 21.257 93.5037 16.0708C97.0628 10.8847 101.69 6.91875 107.384 4.17314C113.181 1.4275 119.333 0.0546875 125.841 0.0546875C132.349 0.0546875 138.451 1.4275 144.145 4.17314C149.84 6.91875 154.467 10.8847 158.026 16.0708C161.585 21.257 163.365 27.5618 163.365 34.9852V108.812H132.095V34.2225C132.095 33.0022 131.79 31.9852 131.18 31.1718C130.57 30.2566 129.807 29.5447 128.892 29.0363C127.977 28.5279 126.96 28.2736 125.841 28.2736C124.722 28.2736 123.655 28.5279 122.638 29.0363C121.621 29.5447 120.807 30.2566 120.197 31.1718C119.689 31.9852 119.435 33.0022 119.435 34.2225V76.017C119.435 83.542 117.604 89.8977 113.943 95.0839C110.384 100.27 105.757 104.185 100.063 106.829C94.3681 109.473 88.2667 110.795 81.7585 110.795Z" fill="white"/>
</g>
<defs>
<clipPath id="clip0_87_284">
<rect width="674" height="112.333" fill="white"/>
</clipPath>
</defs>
</svg>
