<svg width="82" height="31" viewBox="0 0 82 31" fill="none" xmlns="http://www.w3.org/2000/svg">
<path d="M64.7952 30.0126C63.1481 30.0126 61.5608 29.8335 60.0334 29.4751C58.536 29.1169 57.1434 28.5932 55.8556 27.9043L54.4181 29.4751H47.0508L51.5431 24.6798C50.3451 23.3845 49.4167 21.91 48.7578 20.2565C48.0989 18.6028 47.7695 16.8528 47.7695 15.0063C47.7695 12.8566 48.1887 10.8723 49.0274 9.05339C49.8659 7.23444 51.0339 5.64976 52.5313 4.29933C54.0587 2.92134 55.8556 1.86028 57.9221 1.11617C60.0185 0.372058 62.3095 0 64.7952 0C66.3825 0 67.88 0.165361 69.2875 0.496079C70.725 0.826797 72.0578 1.28153 73.2857 1.86028L74.5435 0.537417H82.0007L77.7331 5.04344C79.0208 6.33876 80.0241 7.84076 80.7429 9.54947C81.4617 11.2306 81.821 13.0496 81.821 15.0063C81.821 17.156 81.4018 19.1403 80.5632 20.9593C79.7246 22.7782 78.5417 24.3766 77.0143 25.7546C75.5169 27.1051 73.72 28.1523 71.6236 28.8965C69.5571 29.6405 67.281 30.0126 64.7952 30.0126ZM64.7952 22.8195C65.9034 22.8195 66.9066 22.6266 67.8051 22.2407C68.7036 21.8273 69.4672 21.2624 70.0962 20.5459C70.725 19.8293 71.2042 19.0025 71.5337 18.0655C71.8631 17.1009 72.0278 16.0811 72.0278 15.0063C72.0278 14.3725 71.953 13.7799 71.8032 13.2287C71.6835 12.6499 71.5037 12.0987 71.2641 11.5751L61.426 22.034C61.9351 22.2821 62.4593 22.475 62.9984 22.6128C63.5674 22.7506 64.1663 22.8195 64.7952 22.8195ZM58.1916 17.9415L67.7153 7.77186C67.266 7.57894 66.8018 7.44114 66.3226 7.35847C65.8435 7.24823 65.3343 7.1931 64.7952 7.1931C63.6871 7.1931 62.6839 7.39981 61.7855 7.8132C60.8869 8.19904 60.1233 8.75023 59.4944 9.46679C58.8655 10.1834 58.3863 11.0239 58.0568 11.9885C57.7274 12.9255 57.5627 13.9315 57.5627 15.0063C57.5627 15.5299 57.6076 16.0398 57.6974 16.5359C57.8173 17.032 57.982 17.5005 58.1916 17.9415Z" fill="#FF3D00"/>
<path d="M24.0787 30.0126C22.1619 30.0126 20.35 29.6544 18.643 28.9378C16.9659 28.2213 15.6032 27.1601 14.555 25.7546C13.5068 24.349 12.9827 22.6266 12.9827 20.5872V9.38411C12.9827 9.02583 12.8929 8.72268 12.7131 8.47464C12.5635 8.19904 12.3538 7.99234 12.0843 7.85454C11.8147 7.71674 11.5002 7.64785 11.1409 7.64785C10.7815 7.64785 10.4521 7.71674 10.1526 7.85454C9.88303 7.99234 9.65842 8.19904 9.47872 8.47464C9.32898 8.72268 9.25411 9.02583 9.25411 9.38411V17.6245H0V9.46679C0 7.45493 0.509126 5.74622 1.52738 4.34067C2.57557 2.93512 3.95321 1.86028 5.66029 1.11617C7.36735 0.372058 9.19421 0 11.1409 0C13.0875 0 14.8994 0.372058 16.5766 1.11617C18.2537 1.86028 19.6163 2.93512 20.6645 4.34067C21.7127 5.74622 22.2368 7.45493 22.2368 9.46679V20.6699C22.2368 21.0281 22.3267 21.3451 22.5063 21.6206C22.6861 21.8687 22.9107 22.0616 23.1802 22.1994C23.4498 22.3372 23.7343 22.4061 24.0337 22.4061C24.3632 22.4061 24.6776 22.3372 24.9771 22.1994C25.2766 22.0616 25.5162 21.8687 25.6958 21.6206C25.8756 21.3451 25.9654 21.0281 25.9654 20.6699V9.46679C25.9654 7.45493 26.4895 5.74622 27.5377 4.34067C28.5859 2.93512 29.9486 1.86028 31.6257 1.11617C33.3327 0.372058 35.1446 0 37.0613 0C38.9781 0 40.775 0.372058 42.4521 1.11617C44.1293 1.86028 45.4918 2.93512 46.5401 4.34067C47.5883 5.74622 48.1124 7.45493 48.1124 9.46679V29.4751H38.9032V9.26009C38.9032 8.92937 38.8134 8.65377 38.6337 8.4333C38.4539 8.18526 38.2293 7.99234 37.9598 7.85454C37.6903 7.71674 37.3908 7.64785 37.0613 7.64785C36.7319 7.64785 36.4174 7.71674 36.118 7.85454C35.8185 7.99234 35.5789 8.18526 35.3992 8.4333C35.2495 8.65377 35.1746 8.92937 35.1746 9.26009V20.5872C35.1746 22.6266 34.6355 24.349 33.5573 25.7546C32.5091 27.1601 31.1466 28.2213 29.4694 28.9378C27.7923 29.6544 25.9954 30.0126 24.0787 30.0126Z" fill="#FF3D00"/>
</svg>
