<svg width="458" height="458" viewBox="0 0 458 458" fill="none" xmlns="http://www.w3.org/2000/svg">
<path fill-rule="evenodd" clip-rule="evenodd" d="M214 1.45196C210.975 2.24396 204.711 4.74896 200.079 7.01896C192.546 10.712 189.858 12.912 174.579 27.886C164.913 37.359 155.547 45.641 153 46.967C148.788 49.159 146.995 49.351 125 49.978C99.211 50.712 96.151 51.275 83.502 57.615C74.152 62.302 61.776 74.737 57.362 83.881C51.397 96.238 50.825 99.45 50.051 124.881C49.467 144.079 49.014 149.104 47.573 152.328C46.511 154.704 38.925 163.311 28.517 173.948C13.017 189.789 10.801 192.488 7.123 200.001C1.836 210.798 0 218.244 0 228.881C0 239.518 1.836 246.964 7.123 257.761C10.804 265.28 13.016 267.971 28.63 283.929C38.875 294.401 46.733 303.293 47.733 305.549C49.1 308.631 49.562 313.98 50.092 332.881C50.813 358.584 51.389 361.746 57.6 374.079C61.586 381.994 70.869 392.272 78.768 397.515C81.872 399.576 88.257 402.603 92.956 404.244C101.217 407.127 102.277 407.246 125 407.84C147.056 408.416 148.776 408.597 153 410.795C155.534 412.114 164.926 420.403 174.5 429.771C193.303 448.17 198.939 451.95 213.545 455.957C220.241 457.795 223.161 458.054 232 457.595C252.264 456.544 260.863 451.897 283.5 429.761C293.06 420.412 302.469 412.113 305 410.795C309.212 408.603 311.005 408.411 333 407.784C358.805 407.05 361.877 406.483 374.498 400.134C384.003 395.353 395.472 383.884 400.253 374.379C406.585 361.792 407.165 358.666 407.949 332.881C408.533 313.683 408.986 308.658 410.427 305.434C411.486 303.065 419.05 294.471 429.35 283.934C443.056 269.914 447.238 264.972 450.132 259.381C456.445 247.181 457.5 242.814 457.5 228.881C457.5 214.948 456.445 210.581 450.132 198.381C447.235 192.784 443.047 187.839 429.238 173.713C419.098 163.34 411.265 154.463 410.267 152.213C408.9 149.131 408.438 143.782 407.908 124.881C407.185 99.089 406.631 96.082 400.266 83.383C395.579 74.033 383.144 61.657 374 57.243C361.608 51.261 358.454 50.702 333 49.978C311.005 49.351 309.212 49.159 305 46.967C302.453 45.641 293.087 37.359 283.421 27.886C268.133 12.903 265.458 10.715 257.921 7.02396C253.289 4.75596 246.818 2.22096 243.54 1.39096C236.121 -0.48904 221.298 -0.458041 214 1.45196ZM285.483 172.416C283.823 173.235 265.608 190.768 245.003 211.378L207.541 248.85L190.521 231.957C171.931 213.507 169.57 212.035 161.5 213.867C156.6 214.98 151.537 220.174 150.08 225.582C147.903 233.669 148.956 235.17 175.333 261.554C196.138 282.364 200.091 285.882 203.75 286.843C212.488 289.136 211.419 290.004 261.314 240.083C301.203 200.173 307.245 193.736 308.025 190.313C310.998 177.279 297.438 166.514 285.483 172.416Z" fill="#8A9CA2"/>
</svg>
