<svg width="1788" height="291" viewBox="0 0 1788 291" fill="none" xmlns="http://www.w3.org/2000/svg">
<g clip-path="url(#clip0_31_2)">
<path d="M1688.05 293.773C1670.79 293.773 1654.46 290.266 1639.09 283.253C1623.98 275.969 1611.71 265.448 1602.26 251.69C1592.82 237.932 1588.1 221.207 1588.1 201.514V91.855C1588.1 88.3481 1587.29 85.3803 1585.68 82.9525C1584.33 80.2551 1582.44 78.2319 1580.01 76.8828C1577.58 75.5341 1574.75 74.8595 1571.51 74.8595C1568.27 74.8595 1565.31 75.5341 1562.61 76.8828C1560.18 78.2319 1558.16 80.2551 1556.54 82.9525C1555.19 85.3803 1554.52 88.3481 1554.52 91.855V288.513H1471.16V92.6641C1471.16 72.9713 1475.74 56.2458 1484.92 42.4879C1494.36 28.7299 1506.77 18.2091 1522.15 10.9255C1537.52 3.64182 1553.98 0 1571.51 0C1589.05 0 1605.37 3.64182 1620.47 10.9255C1635.58 18.2091 1647.86 28.7299 1657.3 42.4879C1666.74 56.2458 1671.46 72.9713 1671.46 92.6641V202.324C1671.46 205.83 1672.27 208.933 1673.89 211.63C1675.51 214.328 1677.53 216.351 1679.96 217.7C1682.39 219.049 1684.95 219.723 1687.65 219.723C1690.61 219.723 1693.45 219.049 1696.14 217.7C1698.84 216.351 1701 214.328 1702.62 211.63C1704.24 208.933 1705.05 205.83 1705.05 202.324V171.3H1788V201.514C1788 221.207 1783.28 237.932 1773.84 251.69C1764.39 265.448 1751.99 275.969 1736.61 283.253C1721.5 290.266 1705.32 293.773 1688.05 293.773Z" fill="white"/>
<path d="M1344.62 288.648C1328.44 288.648 1313.61 285.141 1300.11 278.128C1286.9 271.114 1276.38 261.537 1268.55 249.398C1260.73 236.989 1256.82 222.691 1256.82 206.505C1256.82 193.826 1259.65 181.957 1265.32 170.896C1271.25 159.566 1279.34 150.124 1289.59 142.571C1280.69 135.557 1273.54 127.06 1268.15 117.078C1262.75 106.827 1260.06 96.3063 1260.06 85.5156C1260.06 69.5997 1263.83 55.7065 1271.38 43.837C1279.21 31.6975 1289.59 22.2558 1302.54 15.5117C1315.76 8.76756 1330.19 5.39551 1345.84 5.39551H1471.69V74.1853L1365.26 73.7807C1360.95 73.7807 1357.04 74.5903 1353.53 76.2085C1350.02 77.5576 1347.19 79.7159 1345.03 82.6832C1343.14 85.3806 1342.2 88.8875 1342.2 93.204C1342.2 97.2505 1343.14 100.757 1345.03 103.725C1347.19 106.423 1350.02 108.58 1353.53 110.199C1357.04 111.548 1360.95 112.222 1365.26 112.222H1457.52V180.203H1365.67C1361.08 180.203 1357.04 181.012 1353.53 182.631C1350.02 184.249 1347.19 186.543 1345.03 189.51C1343.14 192.477 1342.2 196.119 1342.2 200.435C1342.2 204.482 1343.14 207.989 1345.03 210.956C1347.19 213.923 1350.02 216.217 1353.53 217.835C1357.04 219.184 1361.08 219.859 1365.67 219.859H1471.69V288.648H1344.62Z" fill="white"/>
<path d="M998.842 288.648V5.39551H1119.02C1148.7 5.39551 1174.46 11.4652 1196.31 23.6046C1218.16 35.744 1235.02 52.4696 1246.89 73.7807C1259.03 95.0922 1265.1 119.506 1265.1 147.022C1265.1 174.538 1259.03 198.952 1246.89 220.263C1235.02 241.575 1218.16 258.3 1196.31 270.439C1174.46 282.579 1148.7 288.648 1119.02 288.648H998.842ZM1086.25 220.263H1114.17C1126.3 220.263 1137.1 217.431 1146.54 211.766C1155.98 205.831 1163.4 197.333 1168.8 186.273C1174.19 175.212 1176.89 162.129 1176.89 147.022C1176.89 131.915 1174.19 118.967 1168.8 108.176C1163.4 97.1155 1155.98 88.6179 1146.54 82.6832C1137.1 76.7481 1126.3 73.7807 1114.17 73.7807H1086.25V220.263Z" fill="white"/>
<path d="M734.795 288.648V5.39551H854.975C884.648 5.39551 910.412 11.4652 932.261 23.6046C954.114 35.744 970.973 52.4696 982.844 73.7807C994.981 95.0922 1001.05 119.506 1001.05 147.022C1001.05 174.538 994.981 198.952 982.844 220.263C970.973 241.575 954.114 258.3 932.261 270.439C910.412 282.579 884.648 288.648 854.975 288.648H734.795ZM822.199 220.263H850.116C862.258 220.263 873.049 217.431 882.49 211.766C891.931 205.831 899.35 197.333 904.745 186.273C910.141 175.212 912.836 162.129 912.836 147.022C912.836 131.915 910.141 118.967 904.745 108.176C899.35 97.1155 891.931 88.6179 882.49 82.6832C873.049 76.7481 862.258 73.7807 850.116 73.7807H822.199V220.263Z" fill="white"/>
<path d="M579.889 293.941C565.052 293.941 550.758 292.188 536.995 288.681C523.509 285.174 510.965 280.049 499.366 273.304L486.417 288.681H420.055L460.518 241.742C449.726 229.063 441.366 214.631 435.431 198.445C429.496 182.259 426.529 165.129 426.529 147.055C426.529 126.013 430.305 106.59 437.859 88.7857C445.412 70.9812 455.935 55.4698 469.422 42.2512C483.179 28.763 499.366 18.3771 517.978 11.0935C536.864 3.8098 557.499 0.167969 579.889 0.167969C594.189 0.167969 607.676 1.78658 620.354 5.02374C633.304 8.26092 645.309 12.712 656.367 18.3771L667.7 5.42839H734.872L696.43 49.5347C708.029 62.2136 717.064 76.9159 723.539 93.6413C730.014 110.097 733.251 127.901 733.251 147.055C733.251 168.096 729.476 187.519 721.922 205.324C714.369 223.128 703.713 238.774 689.955 252.263C676.464 265.481 660.282 275.732 641.395 283.016C622.783 290.299 602.28 293.941 579.889 293.941ZM579.889 223.533C589.872 223.533 598.907 221.644 607.003 217.868C615.094 213.821 621.975 208.291 627.637 201.277C633.304 194.264 637.62 186.171 640.587 176.999C643.553 167.557 645.038 157.575 645.038 147.055C645.038 140.85 644.366 135.05 643.016 129.655C641.937 123.99 640.316 118.595 638.157 113.469L549.543 215.845C554.126 218.273 558.849 220.161 563.702 221.51C568.832 222.859 574.223 223.533 579.889 223.533ZM520.407 175.785L606.19 76.2418C602.145 74.3531 597.963 73.0044 593.647 72.1953C589.331 71.1162 584.748 70.5766 579.889 70.5766C569.911 70.5766 560.871 72.5998 552.78 76.6463C544.685 80.4228 537.808 85.8184 532.142 92.8322C526.475 99.846 522.159 108.074 519.192 117.516C516.226 126.688 514.74 136.534 514.74 147.055C514.74 152.18 515.147 157.171 515.955 162.026C517.034 166.882 518.519 171.468 520.407 175.785Z" fill="white"/>
<path d="M216.891 293.908C199.626 293.908 183.305 290.401 167.928 283.387C152.822 276.374 140.547 265.987 131.105 252.23C121.664 238.472 116.943 221.611 116.943 201.649V91.9894C116.943 88.4825 116.134 85.5152 114.515 83.0874C113.166 80.3896 111.278 78.3663 108.85 77.0177C106.422 75.669 103.59 74.9944 100.352 74.9944C97.1154 74.9944 94.1476 75.669 91.4503 77.0177C89.0225 78.3663 86.9992 80.3896 85.3805 83.0874C84.0314 85.5152 83.3573 88.4825 83.3573 91.9894V172.649H0V92.799C0 73.1062 4.58599 56.3807 13.758 42.6227C23.1997 28.8647 35.6089 18.3439 50.9855 11.0603C66.3618 3.77659 82.8177 0.134766 100.352 0.134766C117.887 0.134766 134.208 3.77659 149.315 11.0603C164.421 18.3439 176.696 28.8647 186.137 42.6227C195.579 56.3807 200.3 73.1062 200.3 92.799V202.458C200.3 205.965 201.109 209.067 202.728 211.765C204.347 214.193 206.37 216.081 208.798 217.43C211.225 218.779 213.788 219.453 216.486 219.453C219.453 219.453 222.286 218.779 224.984 217.43C227.681 216.081 229.839 214.193 231.458 211.765C233.076 209.067 233.886 205.965 233.886 202.458V92.799C233.886 73.1062 238.607 56.3807 248.048 42.6227C257.49 28.8647 269.764 18.3439 284.871 11.0603C300.248 3.77659 316.568 0.134766 333.833 0.134766C351.098 0.134766 367.284 3.77659 382.391 11.0603C397.498 18.3439 409.772 28.8647 419.214 42.6227C428.656 56.3807 433.377 73.1062 433.377 92.799V288.648H350.424V90.7758C350.424 87.5384 349.615 84.8406 347.996 82.6828C346.378 80.255 344.354 78.3663 341.926 77.0177C339.499 75.669 336.801 74.9944 333.833 74.9944C330.866 74.9944 328.034 75.669 325.336 77.0177C322.638 78.3663 320.48 80.255 318.862 82.6828C317.513 84.8406 316.838 87.5384 316.838 90.7758V201.649C316.838 221.611 311.983 238.472 302.271 252.23C292.829 265.987 280.555 276.374 265.448 283.387C250.341 290.401 234.156 293.908 216.891 293.908Z" fill="white"/>
</g>
<defs>
<clipPath id="clip0_31_2">
<rect width="1788" height="298" fill="white"/>
</clipPath>
</defs>
</svg>
