<svg width="28" height="26" viewBox="0 0 28 26" fill="none" xmlns="http://www.w3.org/2000/svg">
<path d="M2 15.1405L22 15.1405L15.42 22.2663C15.2325 22.4676 15.0838 22.7072 14.9822 22.9711C14.8807 23.2351 14.8284 23.5182 14.8284 23.8041C14.8284 24.09 14.8807 24.3731 14.9822 24.637C15.0838 24.901 15.2325 25.1405 15.42 25.3419C15.7947 25.7453 16.3016 25.9717 16.83 25.9717C17.3584 25.9717 17.8653 25.7453 18.24 25.3419L26.82 16.0286C27.5712 15.2199 27.9955 14.1217 28 12.9747C27.9903 11.8352 27.5663 10.7457 26.82 9.94242L18.24 0.629115C18.0535 0.428594 17.8324 0.269811 17.5893 0.161834C17.3461 0.0538569 17.0857 -0.0012006 16.8229 -0.000195399C16.5601 0.000809798 16.3001 0.0578605 16.0577 0.167697C15.8152 0.277532 15.5952 0.438003 15.41 0.639947C15.2248 0.841892 15.0782 1.08135 14.9785 1.34466C14.8788 1.60797 14.828 1.88997 14.8289 2.17455C14.8298 2.45914 14.8825 2.74074 14.9839 3.00328C15.0853 3.26582 15.2335 3.50415 15.42 3.70467L22 10.8088L2 10.8088C1.46957 10.8088 0.960858 11.037 0.585786 11.4431C0.210713 11.8493 -1.09637e-06 12.4002 -1.04997e-06 12.9747C-1.00356e-06 13.5491 0.210713 14.1 0.585786 14.5062C0.960858 14.9124 1.46957 15.1405 2 15.1405Z" fill="white"/>
</svg>
