<svg width="1390" height="609" viewBox="0 0 1390 609" fill="none" xmlns="http://www.w3.org/2000/svg">
<path d="M153.395 212V115.475H182.285L204.83 175.55L227.105 115.475H255.455V212H233.72V144.23L206.99 212H199.835L172.97 144.23V212H153.395ZM293.019 213.485C286.089 213.485 280.419 211.73 276.009 208.22C271.599 204.71 269.394 199.445 269.394 192.425C269.394 177.305 281.634 169.745 306.114 169.745H314.079V166.91C314.079 162.5 313.224 159.26 311.514 157.19C309.804 155.03 306.834 153.95 302.604 153.95C295.494 153.95 291.489 157.28 290.589 163.94H272.094C272.634 155.93 275.784 149.9 281.544 145.85C287.304 141.8 294.729 139.775 303.819 139.775C323.529 139.775 333.384 148.505 333.384 165.965V212H314.349V203.495C309.579 210.155 302.469 213.485 293.019 213.485ZM298.824 199.85C303.234 199.85 306.879 198.725 309.759 196.475C312.639 194.225 314.079 191.165 314.079 187.295V181.355H306.519C300.579 181.355 296.079 182.12 293.019 183.65C290.049 185.18 288.564 187.745 288.564 191.345C288.564 197.015 291.984 199.85 298.824 199.85ZM350.185 212V109.4H369.76V171.23L392.44 141.395H413.23L387.58 173.525L415.255 212H393.115L369.76 178.655V212H350.185ZM454.175 213.485C443.285 213.485 434.42 210.29 427.58 203.9C420.74 197.42 417.32 188.645 417.32 177.575V176.495C417.32 165.515 420.74 156.65 427.58 149.9C434.51 143.15 443.195 139.775 453.635 139.775C463.535 139.775 471.725 142.79 478.205 148.82C484.775 154.85 488.06 163.805 488.06 175.685V181.085H437.165C437.435 186.935 439.1 191.48 442.16 194.72C445.22 197.96 449.405 199.58 454.715 199.58C463.175 199.58 468.08 196.295 469.43 189.725H487.925C486.755 197.375 483.245 203.27 477.395 207.41C471.545 211.46 463.805 213.485 454.175 213.485ZM437.435 169.07H469.025C468.395 158.54 463.265 153.275 453.635 153.275C449.225 153.275 445.58 154.67 442.7 157.46C439.91 160.16 438.155 164.03 437.435 169.07ZM531.34 212V141.395H550.78V212H531.34ZM548.89 128.84C546.73 130.82 544.075 131.81 540.925 131.81C537.775 131.81 535.12 130.82 532.96 128.84C530.89 126.77 529.855 124.205 529.855 121.145C529.855 118.085 530.89 115.565 532.96 113.585C535.12 111.515 537.775 110.48 540.925 110.48C544.075 110.48 546.73 111.515 548.89 113.585C551.05 115.565 552.13 118.085 552.13 121.145C552.13 124.205 551.05 126.77 548.89 128.84ZM594.554 213.35C587.084 213.35 581.414 211.46 577.544 207.68C573.674 203.9 571.739 198.365 571.739 191.075V155.3H562.694V141.395H571.739V126.14H591.179V141.395H606.029V155.3H591.179V189.32C591.179 194.9 593.789 197.69 599.009 197.69C601.799 197.69 604.274 197.24 606.434 196.34V211.46C602.834 212.72 598.874 213.35 594.554 213.35ZM177.29 362.485C167.75 362.485 160.325 360.46 155.015 356.41C149.705 352.36 146.87 346.51 146.51 338.86H164.735C165.185 342.19 166.355 344.71 168.245 346.42C170.135 348.04 173.105 348.85 177.155 348.85C184.535 348.85 188.225 346.285 188.225 341.155C188.225 338.815 187.145 337.015 184.985 335.755C182.825 334.495 179.135 333.505 173.915 332.785C164.375 331.345 157.625 329.005 153.665 325.765C149.795 322.525 147.86 317.53 147.86 310.78C147.86 303.76 150.56 298.36 155.96 294.58C161.45 290.71 168.065 288.775 175.805 288.775C193.625 288.775 203.345 296.065 204.965 310.645H187.01C185.93 304.975 182.24 302.14 175.94 302.14C172.79 302.14 170.315 302.815 168.515 304.165C166.805 305.515 165.95 307.27 165.95 309.43C165.95 311.68 166.895 313.345 168.785 314.425C170.765 315.505 174.365 316.405 179.585 317.125C189.125 318.475 196.055 320.725 200.375 323.875C204.785 327.025 206.99 332.155 206.99 339.265C206.99 346.825 204.38 352.585 199.16 356.545C194.03 360.505 186.74 362.485 177.29 362.485ZM219.944 361V290.395H239.384V361H219.944ZM237.494 277.84C235.334 279.82 232.679 280.81 229.529 280.81C226.379 280.81 223.724 279.82 221.564 277.84C219.494 275.77 218.459 273.205 218.459 270.145C218.459 267.085 219.494 264.565 221.564 262.585C223.724 260.515 226.379 259.48 229.529 259.48C232.679 259.48 235.334 260.515 237.494 262.585C239.654 264.565 240.734 267.085 240.734 270.145C240.734 273.205 239.654 275.77 237.494 277.84ZM257.372 361V290.395H276.947V301.195C278.837 297.595 281.672 294.625 285.452 292.285C289.232 289.945 293.597 288.775 298.547 288.775C308.357 288.775 314.927 292.87 318.257 301.06C323.747 292.87 331.667 288.775 342.017 288.775C348.947 288.775 354.527 291.025 358.757 295.525C363.077 300.025 365.237 306.775 365.237 315.775V361H345.797V317.935C345.797 309.205 342.107 304.84 334.727 304.84C330.767 304.84 327.482 306.1 324.872 308.62C322.352 311.14 321.092 314.695 321.092 319.285V361H301.652V317.935C301.652 309.205 297.962 304.84 290.582 304.84C286.622 304.84 283.337 306.1 280.727 308.62C278.207 311.14 276.947 314.695 276.947 319.285V361H257.372ZM381.957 385.03V290.395H401.532V301.465C403.602 297.865 406.617 294.85 410.577 292.42C414.627 289.99 419.127 288.775 424.077 288.775C433.077 288.775 440.457 291.97 446.217 298.36C451.977 304.75 454.857 313.615 454.857 324.955V326.035C454.857 337.375 451.977 346.285 446.217 352.765C440.457 359.245 433.077 362.485 424.077 362.485C418.857 362.485 414.267 361.36 410.307 359.11C406.347 356.77 403.422 353.8 401.532 350.2V385.03H381.957ZM418.272 347.23C423.672 347.23 427.812 345.43 430.692 341.83C433.572 338.23 435.012 333.01 435.012 326.17V325.09C435.012 318.16 433.482 312.895 430.422 309.295C427.362 305.605 423.267 303.76 418.137 303.76C412.827 303.76 408.597 305.605 405.447 309.295C402.387 312.895 400.857 318.16 400.857 325.09V326.17C400.857 333.1 402.387 338.365 405.447 341.965C408.507 345.475 412.782 347.23 418.272 347.23ZM468.454 361V258.4H487.894V361H468.454ZM538.286 362.485C527.396 362.485 518.531 359.29 511.691 352.9C504.851 346.42 501.431 337.645 501.431 326.575V325.495C501.431 314.515 504.851 305.65 511.691 298.9C518.621 292.15 527.306 288.775 537.746 288.775C547.646 288.775 555.836 291.79 562.316 297.82C568.886 303.85 572.171 312.805 572.171 324.685V330.085H521.276C521.546 335.935 523.211 340.48 526.271 343.72C529.331 346.96 533.516 348.58 538.826 348.58C547.286 348.58 552.191 345.295 553.541 338.725H572.036C570.866 346.375 567.356 352.27 561.506 356.41C555.656 360.46 547.916 362.485 538.286 362.485ZM521.546 318.07H553.136C552.506 307.54 547.376 302.275 537.746 302.275C533.336 302.275 529.691 303.67 526.811 306.46C524.021 309.16 522.266 313.03 521.546 318.07ZM595.396 362.215C592.066 362.215 589.231 361.09 586.891 358.84C584.551 356.5 583.381 353.665 583.381 350.335C583.381 347.095 584.551 344.35 586.891 342.1C589.231 339.76 592.066 338.59 595.396 338.59C598.816 338.59 601.696 339.76 604.036 342.1C606.376 344.35 607.546 347.095 607.546 350.335C607.546 353.665 606.376 356.5 604.036 358.84C601.696 361.09 598.816 362.215 595.396 362.215ZM153.395 510V413.475H182.285L204.83 473.55L227.105 413.475H255.455V510H233.72V442.23L206.99 510H199.835L172.97 442.23V510H153.395ZM293.019 511.485C286.089 511.485 280.419 509.73 276.009 506.22C271.599 502.71 269.394 497.445 269.394 490.425C269.394 475.305 281.634 467.745 306.114 467.745H314.079V464.91C314.079 460.5 313.224 457.26 311.514 455.19C309.804 453.03 306.834 451.95 302.604 451.95C295.494 451.95 291.489 455.28 290.589 461.94H272.094C272.634 453.93 275.784 447.9 281.544 443.85C287.304 439.8 294.729 437.775 303.819 437.775C323.529 437.775 333.384 446.505 333.384 463.965V510H314.349V501.495C309.579 508.155 302.469 511.485 293.019 511.485ZM298.824 497.85C303.234 497.85 306.879 496.725 309.759 494.475C312.639 492.225 314.079 489.165 314.079 485.295V479.355H306.519C300.579 479.355 296.079 480.12 293.019 481.65C290.049 483.18 288.564 485.745 288.564 489.345C288.564 495.015 291.984 497.85 298.824 497.85ZM350.185 510V407.4H369.76V469.23L392.44 439.395H413.23L387.58 471.525L415.255 510H393.115L369.76 476.655V510H350.185ZM454.175 511.485C443.285 511.485 434.42 508.29 427.58 501.9C420.74 495.42 417.32 486.645 417.32 475.575V474.495C417.32 463.515 420.74 454.65 427.58 447.9C434.51 441.15 443.195 437.775 453.635 437.775C463.535 437.775 471.725 440.79 478.205 446.82C484.775 452.85 488.06 461.805 488.06 473.685V479.085H437.165C437.435 484.935 439.1 489.48 442.16 492.72C445.22 495.96 449.405 497.58 454.715 497.58C463.175 497.58 468.08 494.295 469.43 487.725H487.925C486.755 495.375 483.245 501.27 477.395 505.41C471.545 509.46 463.805 511.485 454.175 511.485ZM437.435 467.07H469.025C468.395 456.54 463.265 451.275 453.635 451.275C449.225 451.275 445.58 452.67 442.7 455.46C439.91 458.16 438.155 462.03 437.435 467.07ZM531.34 510V439.395H550.78V510H531.34ZM548.89 426.84C546.73 428.82 544.075 429.81 540.925 429.81C537.775 429.81 535.12 428.82 532.96 426.84C530.89 424.77 529.855 422.205 529.855 419.145C529.855 416.085 530.89 413.565 532.96 411.585C535.12 409.515 537.775 408.48 540.925 408.48C544.075 408.48 546.73 409.515 548.89 411.585C551.05 413.565 552.13 416.085 552.13 419.145C552.13 422.205 551.05 424.77 548.89 426.84ZM594.554 511.35C587.084 511.35 581.414 509.46 577.544 505.68C573.674 501.9 571.739 496.365 571.739 489.075V453.3H562.694V439.395H571.739V424.14H591.179V439.395H606.029V453.3H591.179V487.32C591.179 492.9 593.789 495.69 599.009 495.69C601.799 495.69 604.274 495.24 606.434 494.34V509.46C602.834 510.72 598.874 511.35 594.554 511.35ZM658.494 534.03L670.914 502.845L642.834 439.395H663.894L681.039 481.785L696.834 439.395H715.599L677.394 534.03H658.494ZM742.868 490.965C745.928 494.745 750.203 496.635 755.693 496.635C761.183 496.635 765.413 494.745 768.383 490.965C771.443 487.185 772.973 481.92 772.973 475.17V474.225C772.973 467.475 771.443 462.21 768.383 458.43C765.413 454.56 761.183 452.625 755.693 452.625C750.293 452.625 746.063 454.515 743.003 458.295C739.943 461.985 738.413 467.205 738.413 473.955V475.035C738.413 481.785 739.898 487.095 742.868 490.965ZM755.558 511.485C744.848 511.485 735.983 508.2 728.963 501.63C721.943 494.97 718.433 486.24 718.433 475.44V474.36C718.433 463.47 721.943 454.65 728.963 447.9C735.983 441.15 744.893 437.775 755.693 437.775C766.493 437.775 775.358 441.105 782.288 447.765C789.308 454.335 792.818 463.065 792.818 473.955V475.035C792.818 486.015 789.308 494.835 782.288 501.495C775.268 508.155 766.358 511.485 755.558 511.485ZM829.432 511.485C822.142 511.485 816.292 509.28 811.882 504.87C807.562 500.46 805.402 493.8 805.402 484.89V439.395H824.842V482.19C824.842 491.64 828.937 496.365 837.127 496.365C841.447 496.365 844.957 495.06 847.657 492.45C850.447 489.75 851.842 485.88 851.842 480.84V439.395H871.282V510H851.842V498.93C847.612 507.3 840.142 511.485 829.432 511.485ZM888.603 510V439.395H908.178V452.895C912.678 443.265 920.283 438.405 930.993 438.315V456.54C923.433 456.45 917.718 457.845 913.848 460.725C910.068 463.515 908.178 468.15 908.178 474.63V510H888.603ZM969.492 511.485C959.952 511.485 952.527 509.46 947.217 505.41C941.907 501.36 939.072 495.51 938.712 487.86H956.937C957.387 491.19 958.557 493.71 960.447 495.42C962.337 497.04 965.307 497.85 969.357 497.85C976.737 497.85 980.427 495.285 980.427 490.155C980.427 487.815 979.347 486.015 977.187 484.755C975.027 483.495 971.337 482.505 966.117 481.785C956.577 480.345 949.827 478.005 945.867 474.765C941.997 471.525 940.062 466.53 940.062 459.78C940.062 452.76 942.762 447.36 948.162 443.58C953.652 439.71 960.267 437.775 968.007 437.775C985.827 437.775 995.547 445.065 997.167 459.645H979.212C978.132 453.975 974.442 451.14 968.142 451.14C964.992 451.14 962.517 451.815 960.717 453.165C959.007 454.515 958.152 456.27 958.152 458.43C958.152 460.68 959.097 462.345 960.987 463.425C962.967 464.505 966.567 465.405 971.787 466.125C981.327 467.475 988.257 469.725 992.577 472.875C996.987 476.025 999.192 481.155 999.192 488.265C999.192 495.825 996.582 501.585 991.362 505.545C986.232 509.505 978.942 511.485 969.492 511.485ZM1022.68 511.215C1019.35 511.215 1016.51 510.09 1014.17 507.84C1011.83 505.5 1010.66 502.665 1010.66 499.335C1010.66 496.095 1011.83 493.35 1014.17 491.1C1016.51 488.76 1019.35 487.59 1022.68 487.59C1026.1 487.59 1028.98 488.76 1031.32 491.1C1033.66 493.35 1034.83 496.095 1034.83 499.335C1034.83 502.665 1033.66 505.5 1031.32 507.84C1028.98 510.09 1026.1 511.215 1022.68 511.215Z" fill="white"/>
<path d="M619 569.034C619.128 569.034 619.256 569.034 690.118 564.101C760.98 559.169 902.571 549.304 978.584 544.323C1054.6 539.341 1060.74 539.54 1062.03 540.645C1063.33 541.75 1059.58 543.754 1025.58 554.097C991.576 564.441 927.43 583.063 861.34 602.249" stroke="#00D4F3" stroke-width="13"/>
<path d="M266.471 324.716C266.461 328.507 272.561 354.72 266.38 358.279C260.199 361.838 217.008 351.071 211.757 356.219C206.505 361.366 222.047 395.577 219.895 403.851C217.742 412.124 198.688 433.672 192.699 429.46C186.709 425.248 173.78 370.036 166.873 366.563C159.966 363.091 139.477 396.096 131.556 398.72C123.635 401.344 96.3015 396.563 96.7543 389.795C97.2071 383.027 137.637 346.158 135.564 338.807C133.491 331.455 85.2458 330.392 78.4022 324.716C71.5585 319.039 67.5658 291.42 74.9811 288.555C82.3964 285.69 137.647 303.614 144.046 299.353C150.445 295.093 130.318 259.886 131.632 250.843C132.945 241.801 149.99 215.907 155.675 219.305C161.36 222.704 174.659 278.042 181.959 280.932C189.258 283.822 212.298 247.39 220.293 244.89C228.288 242.39 253.149 251.525 252.735 258.798C252.321 266.071 216.02 301.829 216.63 309.276C217.24 316.722 252.848 319.302 258.134 324.716C263.42 330.129 269.166 354.067 263.422 357.201C257.678 360.336 212.132 347.072 207.285 352.463C202.438 357.854 222.326 397.162 220.514 404.925C218.702 412.688 197.467 424.573 191.241 421.185C185.015 417.798 172.061 377.61 165.398 374.936C158.734 372.262 140.207 395.667 132.252 397.514C124.297 399.361 95.8119 397.478 94.9773 391.287C94.1427 385.096 125.655 350.225 124.863 342.705C124.072 335.185 92.6756 330.494 87.969 324.716C83.2625 318.937 77.2523 294.74 83.199 291.549C89.1457 288.358 135.5 301.69 140.612 296.47C145.724 291.249 126.593 253.142 128.455 245.336C130.317 237.531 150.945 223.958 157.096 227.373C163.247 230.787 176.278 272.695 182.905 275.56C189.533 278.425 207.768 254.721 215.768 252.734C223.768 250.747 252.783 251.888 253.724 257.968C254.665 264.047 223.165 299.015 224.098 306.555C225.032 314.095 256.496 318.613 261.986 324.716C267.477 330.819 278.087 356.781 272.701 360.582C267.315 364.382 220.439 353.762 214.307 358.361C208.175 362.959 221.084 394.534 218.419 401.292C215.753 408.05 196.616 421.643 190.712 418.183C184.808 414.723 173.136 372.335 166.151 370.662C159.165 368.988 136.991 400.973 128.875 403.367C120.759 405.761 93.7614 399.069 94.3011 391.855C94.8407 384.641 134.162 347.087 133.652 339.503C133.141 331.919 95.9693 330.311 89.7819 324.716C83.5944 319.121 73.9422 293.843 78.878 289.975C83.8137 286.107 127.654 295.134 133.476 290.476C139.298 285.818 127.786 256.074 130.418 248.739C133.05 241.404 150.839 222.547 156.774 225.544C162.709 228.541 176.057 272.606 182.956 275.271C189.855 277.935 210.062 250.908 217.848 249.129C225.633 247.35 252.362 252.599 251.875 259.52C251.388 266.442 212.207 303.038 213.536 310.403C214.866 317.767 256.683 318.947 263.642 324.716C270.6 330.484 281.355 358.211 275.135 361.468C268.915 364.726 214.654 348.473 208.581 353.552C202.509 358.63 223.398 399.124 221.379 406.424C219.361 413.725 196.911 422.439 190.711 418.179C184.511 413.919 173.081 371.074 166.495 368.71C159.908 366.346 139.945 395.151 132.404 397.25C124.862 399.35 100.105 393.63 99.7316 387.294C99.3577 380.958 131.573 348.233 129.094 341.163C126.616 334.094 83.1312 330.377 77.7899 324.716C72.4485 319.054 75.0192 294.49 81.81 291.043C88.6008 287.595 132.589 299.278 137.905 294.196C143.221 289.114 126.783 254.064 128.87 246.056C130.957 238.048 150.465 218.901 156.38 223.307C162.295 227.712 173.885 282.837 181.233 285.054C188.58 287.27 213.445 245.814 221.423 242.931C229.401 240.048 251.835 252.245 251.859 259.534C251.882 266.823 220.755 300.091 221.631 307.454C222.507 314.817 253.663 318.647 259.617 324.716C265.571 330.784 279.878 357.731 274.339 361.178C268.8 364.625 217.231 351.277 210.581 355.231C203.931 359.185 217.713 389.058 215.47 396.181C213.228 403.304 196.357 420.858 190.731 418.29C185.104 415.722 172.908 374.681 165.66 373.446C158.412 372.212 133.777 406 126.571 407.362C119.364 408.724 100.843 393.248 101.866 385.501C102.89 377.754 138.355 345.648 135.632 338.782C132.909 331.915 83.5584 330.005 77.7628 324.716C71.9673 319.426 78.0611 295.851 84.3273 291.96C90.5936 288.069 127.762 294.694 133.234 290.274C138.707 285.853 130.037 259.692 132.775 252.824C135.512 245.956 151.943 226.112 157.466 229.473C162.989 232.834 174.463 281.023 181.669 282.575C188.876 284.128 213.021 246.078 221.258 243.216C229.496 240.354 250.823 255.657 254.588 257.242" stroke="#D381A4" stroke-width="10" stroke-linecap="round" stroke-linejoin="round"/>
<path d="M671.12 105.111C672.201 106.563 681.437 116.408 680.684 117.962C679.93 119.516 667.028 118.337 664.45 118.867C661.872 119.396 659.621 120.517 657.861 122.647C656.102 124.778 650.54 137.889 648.871 137.727C647.202 137.566 644.567 123.528 643.087 121.217C641.606 118.907 638.209 118.338 635.76 117.27C633.312 116.202 621.362 113.53 621.409 111.765C621.456 110 634.502 103.73 636.176 101.644C637.851 99.5582 636.225 96.0897 636.231 93.2997C636.236 90.5096 634.621 77.5771 636.227 76.9455C637.832 76.3139 647.985 86.5611 650.446 87.7085C652.907 88.8558 655.264 88.0054 658.013 87.1022C660.762 86.1989 673.671 78.4731 674.779 79.7125C675.887 80.9519 668.211 95.2045 667.822 98.0736C667.433 100.943 669.795 102.825 671.335 105.111C672.876 107.398 682.37 116.908 681.459 118.312C680.549 119.717 665.866 116.811 663.279 117.546C660.692 118.281 660.2 122.394 658.557 124.82C656.914 127.245 650.482 139.428 648.737 139.015C646.993 138.603 644.414 123.747 643.115 121.167C641.816 118.588 639.958 117.186 637.235 116.182C634.513 115.179 619.511 114.005 619.015 112.281C618.518 110.558 630.776 102.98 632.841 100.924C634.905 98.8686 637.032 97.0064 637.292 94.0824C637.552 91.1584 633.664 75.8334 635.143 75.0396C636.621 74.2458 647.816 85.6279 650.378 87.0556C652.941 88.4834 654.974 88.6188 657.829 87.6785C660.683 86.7381 674.516 77.5592 675.65 78.7312C676.784 79.9032 668.607 95.0738 667.865 98.0538C667.124 101.034 667.567 102.831 669.085 105.111C670.603 107.392 681.982 116.862 681.304 118.242C680.626 119.622 665.646 116.564 663.083 117.325C660.519 118.086 660.215 122.659 658.608 124.978C657.001 127.297 650.504 138.47 648.857 137.858C647.21 137.246 645.504 121.887 644.031 119.557C642.557 117.227 638.61 118.06 635.812 117.232C633.014 116.404 619.498 114.049 619.262 112.228C619.026 110.407 631.816 103.259 633.724 101.115C635.633 98.9706 635.959 96.1245 636.157 93.2452C636.355 90.366 633.89 76.5162 635.476 75.6266C637.063 74.7369 647.641 84.1256 650.204 85.3697C652.766 86.6137 655.419 87.2398 658.161 86.6395C660.903 86.0392 673.23 78.8333 674.475 80.0555C675.72 81.2776 669.799 94.6285 669.182 97.4589C668.565 100.289 667.533 102.714 669.013 105.111C670.493 107.509 682.871 117.213 682.283 118.684C681.694 120.155 666.553 117.667 663.801 118.134C661.048 118.601 659.59 120.729 657.916 122.819C656.243 124.908 650.583 136.944 648.984 136.63C647.385 136.315 645.158 122.292 643.759 120.034C642.361 117.777 639.345 117.534 636.607 116.646C633.869 115.758 619.809 113.919 619.519 112.173C619.229 110.426 632.124 103.295 634.039 101.183C635.953 99.0707 636.305 96.3606 636.468 93.4745C636.631 90.5884 633.917 76.4334 635.48 75.6337C637.044 74.8341 647.701 85.2986 650.31 86.3954C652.919 87.4921 655.992 85.8956 658.576 85.343C661.161 84.7905 672.062 80.1037 673.19 81.5042C674.318 82.9046 668.644 95.0733 668.56 97.7401C668.475 100.407 670.82 102.712 672.444 105.111C674.069 107.511 683.868 117.457 682.938 118.98C682.008 120.504 666.968 117.948 664.21 118.596C661.453 119.245 660.284 122.304 658.525 124.721C656.766 127.137 650.327 140.477 648.637 139.987C646.946 139.496 644.882 123.046 643.563 120.38C642.243 117.714 637.703 116.839 636.956 116.388" stroke="#DBC76E" stroke-width="2" stroke-linecap="round" stroke-linejoin="round"/>
<path d="M117.857 70.2345C116.12 71.315 99.9389 75.8278 101.11 80.6532C102.281 85.4786 130.129 114.332 129.147 116.765C128.164 119.198 97.0409 105.655 91.6362 104.113C86.2316 102.572 80.4613 98.303 77.0306 101.903C73.5998 105.504 61.644 137.998 58.5542 138.832C55.4644 139.666 48.5302 114.965 47.2362 109.943C45.9423 104.92 50.6723 92.0543 46.0768 90.4022C41.4814 88.7502 5.06557 96.1035 2.92274 94.0121C0.779901 91.9206 21.4565 73.7879 25.4138 70.2345C29.3711 66.6811 42.1262 64.3971 41.0825 59.7471C40.0388 55.0971 14.4337 27.9651 15.3499 25.3955C16.266 22.826 44.7166 33.5261 49.9171 34.9694C55.1175 36.4128 61.9773 42.7828 65.497 39.3138C69.0167 35.8447 80.9623 2.13025 83.8574 1.5178C86.7526 0.905354 91.8477 28.5944 93.4147 33.408C94.9817 38.2217 94.0398 46.6351 98.9673 47.9354C103.895 49.2358 139.387 43.6348 140.93 45.9473C142.474 48.2598 117.869 66.5971 113.85 70.2345C109.83 73.8719 100.971 76.5084 102.169 81.0221C103.367 85.5358 126.323 111.08 125.403 113.759C124.483 116.439 98.386 108.493 93.2958 106.864C88.2057 105.235 79.8847 94.9395 76.32 98.0477C72.7554 101.156 61.9348 135.608 58.922 136.836C55.9093 138.064 48.3997 114.866 47.2683 109.89C46.137 104.913 52.4926 90.5359 48.0125 88.848C43.5324 87.1601 6.48542 95.5438 4.06718 93.6135C1.64893 91.6832 20.907 73.7646 24.6937 70.2345C28.4805 66.7044 41.584 64.2491 40.5824 59.5729C39.5809 54.8968 14.0987 27.7462 15.0357 25.1433C15.9727 22.5404 44.4579 33.4001 49.618 34.4738C54.7781 35.5475 61.233 38.9682 64.7936 35.4968C68.3543 32.0255 81.1229 0.987681 83.9529 1C86.7828 1.01233 90.5116 30.7595 92.0827 35.6156C93.6538 40.4717 94.1373 46.7204 99.1027 47.8268C104.068 48.9332 138.137 43.9604 139.963 46.2841C141.789 48.6079 120.6 66.6214 116.711 70.2345C112.822 73.8476 101.296 76.3977 102.463 81.1246C103.63 85.8516 128.954 113.211 127.964 115.816C126.975 118.421 98.1823 107.571 92.9214 106.243C87.6605 104.915 80.772 99.774 77.2344 103.01C73.6969 106.246 61.8786 136.797 58.8094 137.447C55.7402 138.097 48.9493 114.162 47.6388 109.275C46.3284 104.389 50.6361 91.9686 46.1729 90.3251C41.7096 88.6817 6.58835 95.5113 4.60031 93.4278C2.61227 91.3443 23.0816 73.6794 27.0025 70.2345C30.9234 66.7896 43.9208 65.1027 42.4089 60.2091C40.897 55.3154 11.8141 25.9436 12.4238 23.0461C13.0334 20.1486 42.8457 30.9183 48.2876 32.2689C53.7295 33.6194 61.2149 39.2338 64.8991 36.0693C68.5833 32.9049 80.8533 2.03604 83.8138 1.75456C86.7743 1.47307 92.3421 28.191 93.4467 33.355C94.5513 38.519 89.7881 50.1585 94.465 51.5504C99.142 52.9424 136.167 44.8401 138.546 46.7777C140.925 48.7153 121.176 66.6818 117.408 70.2345C113.639 73.7872 100.883 76.1229 102.209 81.0361C103.536 85.9494 131.182 115.027 130.201 117.612C129.221 120.197 98.3291 107.935 92.7517 105.962C87.1744 103.989 79.9883 95.0609 76.4198 98.5892C72.8514 102.118 61.122 139.216 58.3417 139.985C55.5613 140.755 51.0578 111.01 49.6093 106.01C48.1607 101.01 48.9962 93.0904 44.3733 91.77C39.7504 90.4497 6.80233 95.5111 5.03109 93.2778C3.25985 91.0445 23.7201 73.7693 27.2935 70.2345C30.8668 66.6997 40.9348 64.0087 39.4884 59.1919C38.042 54.3751 12.2549 26.2823 13.3464 23.787C14.438 21.2916 44.6831 33.9402 50.0139 35.1299C55.3446 36.3196 61.2652 38.6089 64.7498 35.2592C68.2345 31.9095 80.8109 2.74311 83.6158 2.82922C86.4207 2.91533 90.6935 31.0194 91.7968 36.0895C92.9001 41.1596 89.5603 50.5574 94.2547 51.7193C98.9492 52.8812 135.162 45.3735 137.065 47.2936C138.967 49.2137 116.312 66.7685 112.602 70.2345C108.892 73.7005 99.7879 76.0624 101.289 80.7157C102.791 85.3691 127.823 112.251 127.081 115.107C126.339 117.962 99.365 109.854 94.131 108.248C88.8969 106.642 80.2721 96.5933 76.6096 99.6189C72.947 102.645 61.6693 136.669 58.8137 137.424C55.958 138.179 50.1775 111.948 49.0731 106.898C47.9688 101.848 53.1498 89.9929 48.1645 88.726C43.1791 87.4591 5.89113 94.0641 1 94.6817" stroke="#98BA61" stroke-width="2" stroke-linecap="round" stroke-linejoin="round"/>
<path d="M1016.71 376.456C1015.63 376.351 1006.05 372.421 1005.31 375.349C1004.57 378.276 1009.98 406.523 1008.86 407.457C1007.74 408.39 995.546 387.85 993.453 385.231C991.359 382.612 989.474 378.22 986.692 379.729C983.91 381.238 965.417 401.63 963.996 401.208C962.576 400.786 970.958 378.531 971.652 375.259C972.345 371.987 974.208 367.83 971.339 366.563C968.47 365.297 941.695 363.231 941.275 361.847C940.855 360.463 963.792 353.325 966.892 351.91C969.991 350.495 974.93 349.865 974.093 346.863C973.256 343.862 957.318 321.354 958.031 320.13C958.743 318.906 978.643 332.546 981.633 333.904C984.622 335.262 987.85 337.202 989.68 334.505C991.509 331.807 999.498 305.565 1001 305.343C1002.51 305.121 1004.93 328.712 1005.61 332.158C1006.29 335.603 1005.13 341.833 1008.17 341.829C1011.22 341.825 1036.68 331.191 1037.86 332.117C1039.05 333.044 1022.85 349.049 1020.71 351.638C1018.57 354.227 1013.03 357.08 1015.21 359.533C1017.38 361.985 1043.69 376.075 1043.75 377.608C1043.81 379.142 1019.3 375.738 1015.84 375.767C1012.38 375.796 1007.65 374.663 1007.07 377.912C1006.49 381.161 1011 409.233 1009.71 410.17C1008.42 411.106 995.606 390.811 993.465 387.827C991.324 384.844 989.775 377.389 987.041 378.58C984.307 379.77 965.952 400.765 964.521 400.433C963.09 400.101 971.177 378.293 971.892 375.066C972.607 371.84 975.001 367.515 972.09 366.268C969.178 365.021 941.837 363.283 941.065 361.863C940.292 360.443 960.773 352.639 963.91 351.233C967.046 349.826 974.851 349.927 974.276 346.968C973.701 344.01 957.149 321.186 957.82 319.905C958.492 318.623 978.376 332.009 981.387 333.4C984.398 334.791 987.843 337.303 989.699 334.63C991.555 331.956 999.587 305.221 1001.04 305.093C1002.49 304.965 1004.33 329.881 1005.08 333.274C1005.82 336.666 1005.73 341.18 1008.92 341.016C1012.11 340.853 1037.81 330.523 1038.85 331.543C1039.89 332.562 1022.24 349.173 1019.95 351.812C1017.66 354.452 1012.46 357.084 1014.63 359.49C1016.79 361.895 1042.75 375.706 1042.92 377.286C1043.09 378.866 1019.79 376.157 1016.41 376.217C1013.02 376.276 1007.76 374.879 1007.08 377.917C1006.39 380.954 1010.43 407.668 1009.15 408.377C1007.86 409.087 995.601 388.048 993.454 385.428C991.307 382.809 989.157 379.208 986.415 380.64C983.672 382.072 965.804 401.102 964.416 400.588C963.028 400.075 971.066 378.418 971.718 375.205C972.37 371.993 974.325 367.823 971.319 366.571C968.312 365.319 940.306 363.337 939.886 361.952C939.466 360.567 963.601 353.306 966.877 351.906C970.152 350.507 975.568 350.315 974.566 347.135C973.564 343.956 955.675 319.648 956.266 318.241C956.857 316.833 977.654 330.636 980.82 332.235C983.985 333.833 987.868 337.758 989.782 335.162C991.696 332.567 999.553 305.125 1001.09 304.755C1002.62 304.386 1005.31 327.814 1006.04 331.25C1006.77 334.686 1005.69 341.12 1008.81 341.135C1011.93 341.151 1037.79 330.461 1039.07 331.419C1040.34 332.376 1024.49 348.61 1022.32 351.271C1020.14 353.932 1013.95 357.086 1016.02 359.593C1018.09 362.099 1044.26 376.263 1044.26 377.811C1044.27 379.358 1019.63 375.99 1016.11 375.98C1012.58 375.97 1007.55 374.519 1006.93 377.704C1006.31 380.889 1010.84 408.957 1009.56 409.704C1008.29 410.451 995.569 388.59 993.454 385.611C991.339 382.631 989.931 376.714 987.169 378.157C984.408 379.6 965.676 401.166 964.21 400.893C962.745 400.619 970.806 378.568 971.653 375.257C972.5 371.947 976.2 367.094 973.179 365.839C970.158 364.584 940.292 363.293 939.664 361.969C939.036 360.646 963.4 353.325 966.528 351.827C969.655 350.329 973.717 349.246 972.782 346.11C971.846 342.974 955.795 319.793 956.621 318.621C957.448 317.449 978.406 332.163 981.534 333.701C984.662 335.24 987.914 337.521 989.743 334.909C991.572 332.297 999.36 306.391 1000.9 306.045C1002.44 305.698 1005.35 327.873 1006.05 331.241C1006.74 334.61 1005.05 341.761 1008.28 341.712C1011.51 341.663 1039.15 329.77 1040.27 330.72C1041.4 331.669 1022.57 349.044 1020.17 351.762C1017.77 354.481 1012.56 357.05 1014.82 359.504C1017.08 361.957 1043.93 376.161 1044.08 377.739C1044.23 379.317 1019.9 376.203 1016.41 376.216C1012.91 376.23 1007.73 374.819 1007.05 377.884C1006.38 380.948 1010.52 407.915 1009.24 408.664C1007.95 409.412 995.576 388.572 993.455 385.811C991.335 383.051 989.636 377.872 986.782 379.433C983.927 380.994 964.656 402.737 963.229 402.341C961.802 401.946 970.713 378.698 971.669 375.245C972.625 371.791 976.193 367.039 973.35 365.772C970.506 364.504 942.146 363.13 941.559 361.826C940.972 360.522 964.032 353.36 967.136 351.965C970.241 350.57 975.262 350.034 974.43 347.057C973.597 344.08 957.705 321.813 958.322 320.442C958.94 319.071 978.013 331.247 980.969 332.542C983.926 333.837 987.76 336.54 989.625 334.154C991.49 331.768 999.249 307.386 1000.72 307.279C1002.19 307.172 1004.43 329.824 1005.2 333.018C1005.97 336.211 1005.65 341.246 1008.85 341.093C1012.05 340.939 1036.25 332.31 1039.11 331.394" stroke="#F77053" stroke-width="2" stroke-linecap="round" stroke-linejoin="round"/>
</svg>
