<svg width="1634" height="273" viewBox="0 0 1634 273" fill="none" xmlns="http://www.w3.org/2000/svg">
<path d="M1542.66 268.471C1526.88 268.471 1511.97 265.266 1497.92 258.857C1484.11 252.201 1472.89 242.585 1464.26 230.013C1455.63 217.44 1451.32 202.155 1451.32 184.158V83.9439C1451.32 80.739 1450.58 78.0268 1449.1 75.8081C1447.87 73.3431 1446.14 71.4941 1443.92 70.2612C1441.71 69.0287 1439.12 68.4122 1436.16 68.4122C1433.2 68.4122 1430.49 69.0287 1428.02 70.2612C1425.8 71.4941 1423.96 73.3431 1422.47 75.8081C1421.25 78.0268 1420.63 80.739 1420.63 83.9439V263.664H1344.45V84.6833C1344.45 66.6866 1348.64 51.4017 1357.02 38.8287C1365.65 26.2557 1376.99 16.641 1391.04 9.98472C1405.09 3.3284 1420.14 0.000244141 1436.16 0.000244141C1452.18 0.000244141 1467.1 3.3284 1480.9 9.98472C1494.71 16.641 1505.93 26.2557 1514.56 38.8287C1523.18 51.4017 1527.5 66.6866 1527.5 84.6833V184.898C1527.5 188.103 1528.24 190.938 1529.72 193.403C1531.2 195.868 1533.05 197.717 1535.26 198.95C1537.48 200.182 1539.83 200.799 1542.29 200.799C1545 200.799 1547.59 200.182 1550.05 198.95C1552.52 197.717 1554.49 195.868 1555.97 193.403C1557.45 190.938 1558.19 188.103 1558.19 184.898V156.547H1634V184.158C1634 202.155 1629.68 217.44 1621.06 230.013C1612.43 242.585 1601.09 252.201 1587.03 258.857C1573.23 265.266 1558.44 268.471 1542.66 268.471Z" fill="white"/>
<path d="M1228.81 263.787C1214.02 263.787 1200.46 260.582 1188.14 254.172C1176.06 247.763 1166.44 239.011 1159.29 227.917C1152.14 216.577 1148.57 203.51 1148.57 188.719C1148.57 177.132 1151.16 166.284 1156.33 156.177C1161.76 145.822 1169.15 137.194 1178.52 130.291C1170.39 123.881 1163.85 116.116 1158.92 106.994C1153.99 97.6258 1151.53 88.0112 1151.53 78.1498C1151.53 63.6047 1154.98 50.9082 1161.88 40.061C1169.03 28.9671 1178.52 20.3386 1190.36 14.1753C1202.44 8.01204 1215.62 4.93042 1229.92 4.93042H1344.93V67.7954L1247.67 67.4257C1243.73 67.4257 1240.15 68.1655 1236.95 69.6444C1233.74 70.8773 1231.16 72.8496 1229.18 75.5614C1227.46 78.0265 1226.6 81.2313 1226.6 85.176C1226.6 88.874 1227.46 92.0789 1229.18 94.7907C1231.16 97.2561 1233.74 99.2281 1236.95 100.707C1240.15 101.94 1243.73 102.556 1247.67 102.556H1331.98V164.682H1248.04C1243.85 164.682 1240.15 165.422 1236.95 166.901C1233.74 168.38 1231.16 170.475 1229.18 173.187C1227.46 175.899 1226.6 179.227 1226.6 183.172C1226.6 186.87 1227.46 190.074 1229.18 192.786C1231.16 195.498 1233.74 197.594 1236.95 199.073C1240.15 200.306 1243.85 200.922 1248.04 200.922H1344.93V263.787H1228.81Z" fill="white"/>
<path d="M912.812 263.787V4.93042H1022.64C1049.76 4.93042 1073.3 10.4773 1093.27 21.5712C1113.24 32.665 1128.65 47.9501 1139.5 67.4257C1150.59 86.9016 1156.14 109.213 1156.14 134.359C1156.14 159.505 1150.59 181.816 1139.5 201.292C1128.65 220.768 1113.24 236.053 1093.27 247.146C1073.3 258.24 1049.76 263.787 1022.64 263.787H912.812ZM992.689 201.292H1018.21C1029.3 201.292 1039.16 198.703 1047.79 193.526C1056.42 188.102 1063.2 180.336 1068.13 170.229C1073.06 160.121 1075.52 148.164 1075.52 134.359C1075.52 120.553 1073.06 108.72 1068.13 98.8583C1063.2 88.7506 1056.42 80.985 1047.79 75.5614C1039.16 70.1375 1029.3 67.4257 1018.21 67.4257H992.689V201.292Z" fill="white"/>
<path d="M671.508 263.787V4.93042H781.337C808.454 4.93042 831.999 10.4773 851.966 21.5712C871.937 32.665 887.344 47.9501 898.192 67.4257C909.284 86.9016 914.834 109.213 914.834 134.359C914.834 159.505 909.284 181.816 898.192 201.292C887.344 220.768 871.937 236.053 851.966 247.146C831.999 258.24 808.454 263.787 781.337 263.787H671.508ZM751.384 201.292H776.897C787.992 201.292 797.854 198.703 806.482 193.526C815.11 188.102 821.89 180.336 826.82 170.229C831.751 160.121 834.215 148.164 834.215 134.359C834.215 120.553 831.751 108.72 826.82 98.8583C821.89 88.7506 815.11 80.985 806.482 75.5614C797.854 70.1375 787.992 67.4257 776.897 67.4257H751.384V201.292Z" fill="white"/>
<path d="M529.943 268.624C516.384 268.624 503.321 267.022 490.744 263.817C478.419 260.612 466.956 255.928 456.355 249.765L444.521 263.817H383.875L420.853 220.921C410.991 209.334 403.351 196.144 397.927 181.353C392.503 166.561 389.792 150.906 389.792 134.389C389.792 115.16 393.243 97.4092 400.146 81.1385C407.049 64.8674 416.665 50.6921 428.99 38.612C441.563 26.2855 456.355 16.7941 473.364 10.1378C490.624 3.48148 509.481 0.15332 529.943 0.15332C543.011 0.15332 555.336 1.63252 566.923 4.59087C578.757 7.54924 589.729 11.617 599.834 16.7941L610.191 4.96067H671.577L636.446 45.2681C647.047 56.8551 655.303 70.291 661.22 85.5759C667.137 100.614 670.096 116.885 670.096 134.389C670.096 153.618 666.646 171.368 659.743 187.639C652.84 203.91 643.102 218.209 630.529 230.536C618.2 242.615 603.411 251.984 586.151 258.64C569.143 265.296 550.405 268.624 529.943 268.624ZM529.943 204.28C539.066 204.28 547.323 202.554 554.721 199.103C562.116 195.405 568.404 190.351 573.579 183.941C578.757 177.532 582.702 170.136 585.413 161.754C588.124 153.125 589.481 144.003 589.481 134.389C589.481 128.718 588.866 123.418 587.633 118.488C586.646 113.311 585.165 108.38 583.193 103.696L502.211 197.254C506.399 199.473 510.715 201.198 515.151 202.431C519.838 203.664 524.765 204.28 529.943 204.28ZM475.584 160.644L553.979 69.6749C550.282 67.9489 546.461 66.7164 542.516 65.977C538.571 64.9908 534.383 64.4977 529.943 64.4977C520.824 64.4977 512.563 66.3467 505.169 70.0447C497.771 73.4959 491.486 78.4268 486.308 84.8365C481.129 91.2462 477.185 98.7651 474.474 107.394C471.763 115.776 470.405 124.774 470.405 134.389C470.405 139.073 470.777 143.634 471.515 148.071C472.501 152.509 473.859 156.7 475.584 160.644Z" fill="white"/>
<path d="M198.21 268.603C182.432 268.603 167.517 265.398 153.465 258.989C139.659 252.579 128.442 243.087 119.813 230.515C111.185 217.942 106.871 202.533 106.871 184.29V84.0757C106.871 80.8708 106.131 78.159 104.652 75.9403C103.419 73.4749 101.693 71.6259 99.4746 70.3934C97.256 69.1609 94.6676 68.5444 91.709 68.5444C88.7509 68.5444 86.0387 69.1609 83.5737 70.3934C81.355 71.6259 79.506 73.4749 78.0268 75.9403C76.7938 78.159 76.1778 80.8708 76.1778 84.0757V157.788H0V84.8155C0 66.8188 4.191 51.5339 12.573 38.9608C21.2016 26.3878 32.5419 16.7731 46.5941 10.1168C60.6461 3.46048 75.6847 0.132324 91.709 0.132324C107.733 0.132324 122.649 3.46048 136.454 10.1168C150.26 16.7731 161.477 26.3878 170.105 38.9608C178.734 51.5339 183.048 66.8188 183.048 84.8155V185.03C183.048 188.234 183.788 191.07 185.267 193.535C186.746 195.754 188.595 197.479 190.814 198.712C193.033 199.945 195.375 200.561 197.84 200.561C200.552 200.561 203.14 199.945 205.606 198.712C208.071 197.479 210.043 195.754 211.522 193.535C213.002 191.07 213.741 188.234 213.741 185.03V84.8155C213.741 66.8188 218.056 51.5339 226.684 38.9608C235.312 26.3878 246.53 16.7731 260.335 10.1168C274.388 3.46048 289.302 0.132324 305.08 0.132324C320.858 0.132324 335.65 3.46048 349.456 10.1168C363.262 16.7731 374.479 26.3878 383.107 38.9608C391.736 51.5339 396.05 66.8188 396.05 84.8155V263.796H320.242V82.9665C320.242 80.008 319.503 77.5425 318.023 75.5706C316.544 73.3519 314.695 71.6259 312.476 70.3934C310.258 69.1609 307.792 68.5444 305.08 68.5444C302.369 68.5444 299.78 69.1609 297.315 70.3934C294.849 71.6259 292.877 73.3519 291.398 75.5706C290.166 77.5425 289.549 80.008 289.549 82.9665V184.29C289.549 202.533 285.112 217.942 276.237 230.515C267.608 243.087 256.391 252.579 242.585 258.989C228.78 265.398 213.988 268.603 198.21 268.603Z" fill="white"/>
</svg>
