<svg width="60" height="62" viewBox="0 0 60 62" fill="none" xmlns="http://www.w3.org/2000/svg">
<path fill-rule="evenodd" clip-rule="evenodd" d="M27.4553 0.0871347C17.9665 0.964565 9.63263 6.19438 4.49193 14.4975C1.55684 19.2384 0 24.8595 0 30.7162C0 38.8264 2.93403 46.2576 8.41942 52.04C11.4575 55.2427 14.9115 57.6342 18.831 59.2488C20.2636 59.839 22.9633 60.6502 24.3567 60.9094L25.2632 61.078V50.3627V39.6475H21.5205H17.7778V35.2717V30.896H21.5047H25.2315L25.294 26.5502C25.3598 21.9872 25.4444 21.1117 25.9865 19.3871C26.8196 16.7373 28.518 14.6645 30.8042 13.5073C32.418 12.6905 33.8953 12.3214 35.9064 12.2325C37.7094 12.1527 41.3689 12.4198 42.8947 12.7424L43.1579 12.7981V16.499V20.1999L40.614 20.2563C38.3605 20.3063 37.9863 20.3434 37.3354 20.5815C36.3426 20.9448 35.4681 21.7703 35.0181 22.7689L34.6784 23.5231L34.6429 27.2096L34.6074 30.896H38.7073C40.9621 30.896 42.807 30.9364 42.807 30.9859C42.8069 31.1217 41.6449 38.9389 41.5684 39.3178L41.5019 39.6475H38.0609H34.6199V50.3852C34.6199 60.5546 34.6308 61.1197 34.8246 61.0627C34.9371 61.0297 35.4752 60.9122 36.0202 60.8015C40.184 59.9568 44.2538 58.0677 47.9436 55.2672C49.6145 53.9989 52.6033 50.9584 53.8158 49.2934C56.2688 45.9248 57.9813 42.2865 58.9487 38.3887C59.3875 36.6208 59.7661 34.401 59.7661 33.5969C59.7661 33.3719 59.8187 33.1546 59.883 33.1138C59.9549 33.0683 60 32.0912 60 30.5821C60 29.2304 59.9549 28.1532 59.8995 28.1882C59.8443 28.2231 59.7635 27.8083 59.72 27.2661C59.4311 23.6664 57.9408 18.983 55.9722 15.4879C51.929 8.30997 45.1596 3.00175 37.4701 0.979191C34.4458 0.183881 30.3529 -0.180806 27.4553 0.0871347ZM0.0494737 30.7162C0.0495906 32.1008 0.0666667 32.6508 0.0873684 31.9385C0.10807 31.226 0.107953 30.0931 0.0871345 29.4209C0.0663158 28.7486 0.0493567 29.3315 0.0494737 30.7162Z" fill="#999999"/>
</svg>
