<svg width="60" height="62" viewBox="0 0 60 62" fill="none" xmlns="http://www.w3.org/2000/svg">
<path fill-rule="evenodd" clip-rule="evenodd" d="M26.6631 0.114867C25.202 0.284012 22.7376 0.80601 21.2974 1.25137C7.79734 5.42616 -1.10722 18.7901 0.11123 33.0473C0.918035 42.4881 5.77653 50.8148 13.5615 56.0989C14.689 56.8643 18.1513 58.7092 18.8141 58.8978C19.0935 58.9774 19.0946 58.9741 19.0168 58.2777C18.8463 56.7503 18.7977 53.2546 18.9299 52.0191C19.0142 51.2301 19.7427 47.8161 20.8762 42.897L22.6878 35.036L22.4614 34.4186C21.8145 32.6542 21.6533 29.8625 22.0968 28.1042C22.719 25.6373 24.0109 24.007 25.8443 23.3752C27.3139 22.8687 29.0677 23.2541 29.9085 24.2682C30.5182 25.0037 30.8022 25.8522 30.8531 27.0901C30.9143 28.5793 30.7095 29.634 29.6845 33.107C28.7093 36.4114 28.3012 38.0714 28.301 38.7346C28.3007 39.4532 28.7096 40.6633 29.1656 41.2934C29.6266 41.9306 30.4053 42.4888 31.33 42.8452C32.2549 43.2016 34.1968 43.1257 35.3479 42.6882C39.4499 41.1289 42.0817 36.3657 42.3066 30.094C42.4096 27.2226 42.0556 25.3018 41.0384 23.2111C39.5348 20.1211 36.9205 18.0415 33.3396 17.0871C31.9667 16.7213 29.2788 16.5863 27.6825 16.803C24.4334 17.2442 21.2959 18.948 19.3411 21.3327C17.9867 22.9849 16.956 25.1299 16.5229 27.1982C16.2003 28.7393 16.2319 31.3385 16.5902 32.7409C16.9549 34.1677 17.5077 35.4737 18.1907 36.5221L18.7538 37.3865L18.234 39.474C17.8711 40.9317 17.652 41.6006 17.5079 41.6912C17.3446 41.7939 17.1465 41.7389 16.5565 41.4271C14.2221 40.1935 12.1857 37.0821 11.2499 33.3187C10.9516 32.1193 10.9304 31.8679 10.9351 29.5856C10.9394 27.5203 10.9805 26.9489 11.1987 25.9224C11.9226 22.518 13.3836 19.6744 15.6425 17.2729C18.4174 14.3228 21.8488 12.5386 26.3122 11.7251C27.3023 11.5447 28.1075 11.502 30.465 11.5051C33.0602 11.5086 33.5277 11.5395 34.6177 11.7805C38.3781 12.6117 41.5042 14.2899 43.9859 16.8095C46.2273 19.0854 47.5727 21.4425 48.3605 24.474C48.7778 26.0793 48.8996 27.1434 48.8981 29.1688C48.8955 32.5772 48.2582 35.6418 46.9621 38.4785C44.2586 44.3953 39.3117 47.8838 33.6234 47.885C31.8523 47.8854 30.856 47.6605 29.3979 46.931C28.5149 46.4894 27.1019 45.2672 26.8031 44.6867C26.7358 44.556 26.655 44.4754 26.6236 44.5076C26.5921 44.54 26.1093 46.339 25.5506 48.5055C24.9919 50.672 24.3528 52.9281 24.1304 53.519C23.6484 54.8 22.5766 57.0031 21.6753 58.5659C21.1849 59.416 21.0608 59.7199 21.1744 59.7917C21.6446 60.0883 24.9782 60.7769 26.9433 60.9834C28.6888 61.1669 32.8291 61.0699 34.4171 60.8083C42.8028 59.4275 49.9719 54.7902 54.7292 47.6699C57.4284 43.63 59.2536 38.5598 59.6633 33.9636C59.7287 33.2298 59.8316 32.4645 59.8922 32.2629C60.0293 31.8059 60.0387 28.5935 59.9026 28.6794C59.8478 28.714 59.7706 28.2471 59.7309 27.6419C59.5901 25.4931 58.9255 22.3986 58.1105 20.0958C57.0783 17.1795 55.1212 13.6465 53.2107 11.25C48.2785 5.06376 41.1895 1.08068 33.4714 0.159391C31.8692 -0.0318367 28.1406 -0.0563072 26.6631 0.114867ZM0.0387027 30.4809C0.0388197 31.4657 0.0569514 31.8527 0.0789435 31.3408C0.100936 30.8291 0.100819 30.0233 0.0787096 29.5503C0.0564835 29.0773 0.0385857 29.4961 0.0387027 30.4809Z" fill="#999999"/>
</svg>
