<svg width="60" height="62" viewBox="0 0 60 62" fill="none" xmlns="http://www.w3.org/2000/svg">
<path fill-rule="evenodd" clip-rule="evenodd" d="M26.5474 0.166117C19.6781 1.01978 13.5879 4.02528 8.76913 8.93958C3.08489 14.7367 0 22.3367 0 30.5438C0 38.7571 3.07249 46.3224 8.77206 52.1433C12.6751 56.1294 17.3994 58.8596 22.7012 60.1929C25.1183 60.8008 26.5302 60.9906 29.1792 61.0633C32.542 61.1556 35.1894 60.8176 38.3275 59.8951C47.3883 57.2317 54.8071 50.1379 58.1013 40.9879C58.8969 38.7778 59.7661 34.7385 59.7661 33.251C59.7661 33.0171 59.8187 32.7926 59.883 32.752C59.9544 32.707 60 31.7935 60 30.4104C60 28.9289 59.9594 28.1681 59.883 28.2163C59.8132 28.2603 59.7661 28.1132 59.7661 27.8507C59.7661 26.3496 58.9006 22.32 58.1013 20.0998C55.1364 11.8642 48.867 5.29145 40.9344 2.10238C37.3442 0.659195 33.7095 -0.0247407 29.764 0.000683113C28.6704 0.00772538 27.2229 0.0820869 26.5474 0.166117ZM21.8687 10.8573C17.8894 11.0715 15.4967 12.0564 13.3602 14.3597C11.9711 15.8572 11.1201 17.6739 10.6992 20.0401C10.2499 22.5654 10.2455 38.508 10.6934 40.9879C11.618 46.1078 14.8262 49.201 20.0558 50.0148C21.5318 50.2445 37.8092 50.2526 39.3297 50.0245C44.5522 49.2407 47.844 46.0942 48.7211 41.0475C48.9695 39.6182 49.1147 35.7673 49.117 30.5438C49.1196 24.7881 48.9677 21.2517 48.6494 19.6583C48.0986 16.9001 46.9774 14.9351 45.0445 13.3402C43.0731 11.7138 41.0406 11.0638 37.2499 10.8478C34.9459 10.7166 24.3634 10.7232 21.8687 10.8573ZM21.05 14.4404C18.0012 14.738 15.9648 15.9975 14.8329 18.2857C13.9559 20.0585 13.7988 21.9121 13.7988 30.4841C13.7988 37.0851 13.913 39.6994 14.2621 41.0924C15.0416 44.2023 17.0062 45.9421 20.3748 46.506C21.4196 46.6809 22.6371 46.707 29.7055 46.707C36.7237 46.707 37.9962 46.68 39.0156 46.5091C41.1284 46.155 42.4188 45.5141 43.5666 44.249C44.8006 42.889 45.3025 41.4081 45.5092 38.5179C45.6729 36.2274 45.5734 21.8348 45.3867 20.8159C44.6489 16.7882 42.4237 14.815 38.1856 14.4298C36.6625 14.2913 22.487 14.3001 21.05 14.4404ZM39.6461 17.6542C37.7035 17.9913 37.1104 20.6328 38.7115 21.8164C40.2506 22.9542 42.338 21.8623 42.338 19.9195C42.338 19.3181 42.1364 18.7543 41.7686 18.327C41.3366 17.8252 40.3899 17.5251 39.6461 17.6542ZM27.6586 20.596C24.6878 21.2428 22.162 23.2533 20.8204 26.0394C20.0705 27.5966 19.8433 28.6457 19.8454 30.5438C19.8471 31.94 19.8887 32.2954 20.1573 33.2052C21.0364 36.1826 22.8652 38.3933 25.5051 39.6698C26.9074 40.3477 28.0152 40.5915 29.7055 40.594C31.5205 40.5966 32.5367 40.3482 34.2672 39.4787C35.3653 38.927 35.6193 38.7341 36.6651 37.6569C38.3459 35.9257 39.1902 34.2559 39.5411 31.9686C39.7053 30.8983 39.6121 28.9822 39.3468 27.9776C38.5222 24.854 36.2497 22.2279 33.3977 21.1025C31.6236 20.4025 29.4345 20.2092 27.6586 20.596ZM28.5507 23.994C28.2051 24.0526 27.4749 24.3145 26.928 24.576C24.6819 25.6502 23.2775 27.9227 23.2737 30.4889C23.2711 32.3446 23.8731 33.81 25.1893 35.1511C27.5436 37.55 31.0112 37.7699 33.7218 35.6922C34.3945 35.1765 35.2523 34.0592 35.6124 33.2294C36.7232 30.6701 36.1836 27.7965 34.2229 25.8287C32.6519 24.2521 30.7181 23.6266 28.5507 23.994ZM0.0449153 30.5438C0.0449153 31.824 0.0621095 32.3477 0.0831636 31.7076C0.104101 31.0674 0.104101 30.0202 0.0831636 29.3801C0.0621095 28.7399 0.0449153 29.2637 0.0449153 30.5438Z" fill="#999999"/>
</svg>
