<svg width="20" height="23" viewBox="0 0 20 23" fill="none" xmlns="http://www.w3.org/2000/svg">
<path d="M3.279 6.39225C2.896 6.01031 2.908 5.40285 3.306 5.0353L7.893 0.799391C8.998 -0.261985 10.988 -0.27542 12.122 0.812826L16.694 5.0353C17.092 5.40285 17.104 6.01031 16.721 6.39225C16.525 6.58802 16.263 6.68686 16 6.68686C15.75 6.68686 15.5 6.59761 15.307 6.41912L11 2.4404V15.3237C11 15.8535 10.552 16.2834 10 16.2834C9.448 16.2834 9 15.8535 9 15.3237V2.4404L4.693 6.41912C4.296 6.78666 3.664 6.77419 3.279 6.39225ZM18.75 7.64651C18.278 7.64651 18.008 7.86436 18 7.87107C16.826 8.86143 14.949 8.75299 13.79 7.68202L13 6.95268V15.3247C13 16.912 11.654 18.2037 10 18.2037C8.346 18.2037 7 16.9129 7 15.3247V6.95173L6.21 7.68106C5.05 8.75203 3.174 8.86047 2 7.87011C1.992 7.8634 1.722 7.64555 1.25 7.64555C0.56 7.64555 0 8.18296 0 8.84512V18.2017C0 20.8513 2.239 23 5 23H15C17.761 23 20 20.8513 20 18.2017V8.84608C20 8.18392 19.44 7.64651 18.75 7.64651Z" fill="white"/>
</svg>
