<svg width="30" height="30" viewBox="0 0 30 30" fill="none" xmlns="http://www.w3.org/2000/svg">
<path d="M16.3041 14.5576C16.3623 14.6156 16.4085 14.6846 16.44 14.7605C16.4715 14.8365 16.4878 14.9179 16.4878 15.0001C16.4878 15.0823 16.4715 15.1637 16.44 15.2396C16.4085 15.3156 16.3623 15.3845 16.3041 15.4426L10.5716 21.1738C10.2199 21.5254 10.0222 22.0023 10.0221 22.4996C10.022 22.997 10.2194 23.474 10.571 23.8257C10.9226 24.1775 11.3995 24.3751 11.8968 24.3752C12.3941 24.3754 12.8711 24.1779 13.2229 23.8263L18.9554 18.0938C19.7744 17.2725 20.2344 16.16 20.2344 15.0001C20.2344 13.8402 19.7744 12.7276 18.9554 11.9063L13.2229 6.17383C12.8711 5.82225 12.3941 5.62481 11.8968 5.62492C11.3995 5.62504 10.9226 5.82271 10.571 6.17446C10.2194 6.5262 10.022 7.0032 10.0221 7.50052C10.0222 7.99785 10.2199 8.47476 10.5716 8.82633L16.3041 14.5576Z" fill="#272D43"/>
</svg>
