<svg width="20" height="20" viewBox="0 0 20 20" fill="none" xmlns="http://www.w3.org/2000/svg">
<g clip-path="url(#clip0_132_163)">
<path d="M19.2667 8.43323L14.7667 13.0832C14.6 13.2499 14.3833 13.3332 14.1667 13.3332C13.95 13.3332 13.75 13.2582 13.5833 13.0999C13.25 12.7832 13.2417 12.2499 13.5667 11.9249L17.85 7.50823H10.8333C9.45833 7.50823 8.33333 8.63323 8.33333 10.0082V14.1749C8.33333 14.6332 7.95833 15.0082 7.5 15.0082C7.04167 15.0082 6.66667 14.6332 6.66667 14.1749V10.0082C6.66667 7.70823 8.53333 5.84156 10.8333 5.84156H17.85L13.5667 1.41656C13.25 1.08323 13.25 0.558227 13.5833 0.24156C13.9167 -0.0751064 14.4417 -0.0751064 14.7583 0.258227L19.2667 4.91656C20.2333 5.88323 20.2333 7.46656 19.2583 8.44156L19.2667 8.43323ZM12.425 14.2916C12.1167 13.9916 10.8667 12.3332 10 11.1666C10 11.1666 10 12.8332 10 14.0666C10 15.2999 9.18333 16.3832 8 16.6166C6.4 16.9249 5 15.7082 5 14.1666V9.99989C5 8.36656 5.675 6.89156 6.75833 5.83323H4.16667C1.86667 5.83323 0 7.69989 0 9.99989V15.8332C0 18.1332 1.86667 19.9999 4.16667 19.9999H10C12.3 19.9999 14.1667 18.1332 14.1667 15.8332V14.9999C13.5167 14.9999 12.8917 14.7499 12.425 14.2916Z" fill="white"/>
</g>
<defs>
<clipPath id="clip0_132_163">
<rect width="20" height="20" fill="white"/>
</clipPath>
</defs>
</svg>
