<svg width="30" height="30" viewBox="0 0 30 30" fill="none" xmlns="http://www.w3.org/2000/svg">
<path d="M13.6959 15.4424C13.6377 15.3844 13.5915 15.3154 13.56 15.2395C13.5285 15.1635 13.5122 15.0821 13.5122 14.9999C13.5122 14.9177 13.5285 14.8363 13.56 14.7604C13.5915 14.6844 13.6377 14.6155 13.6959 14.5574L19.4284 8.82616C19.7801 8.47459 19.9778 7.99768 19.9779 7.50036C19.978 7.00303 19.7806 6.52603 19.429 6.17429C19.0774 5.82255 18.6005 5.62487 18.1032 5.62476C17.6059 5.62464 17.1289 5.82209 16.7771 6.17366L11.0446 11.9062C10.2256 12.7275 9.76562 13.84 9.76562 14.9999C9.76562 16.1598 10.2256 17.2724 11.0446 18.0937L16.7771 23.8262C17.1289 24.1777 17.6059 24.3752 18.1032 24.3751C18.6005 24.375 19.0774 24.1773 19.429 23.8255C19.7806 23.4738 19.978 22.9968 19.9779 22.4995C19.9778 22.0022 19.7801 21.5252 19.4284 21.1737L13.6959 15.4424Z" fill="#272D43"/>
</svg>
