<svg width="28" height="28" viewBox="0 0 28 28" fill="none" xmlns="http://www.w3.org/2000/svg">
<g clip-path="url(#clip0_104_245)">
<path fill-rule="evenodd" clip-rule="evenodd" d="M1.61685 0.108872C0.913354 0.333528 0.318409 0.934215 0.105675 1.6346C-0.00189578 1.98881 -0.0044114 2.11678 0.0104089 6.53618L0.025612 11.0741L0.200667 11.4437C0.40744 11.8802 0.821917 12.3389 1.19122 12.5398C1.78589 12.8635 1.49304 12.8514 8.74827 12.8514C16.0035 12.8514 15.7106 12.8635 16.3053 12.5398C16.6746 12.3389 17.0891 11.8802 17.2959 11.4437L17.4709 11.0741L17.4861 6.53618C17.5008 2.1375 17.498 1.98733 17.3924 1.63963C17.1763 0.928364 16.5785 0.327457 15.869 0.10827C15.5268 0.00261374 15.3476 -6.595e-05 8.72886 0.00283249C2.23247 0.00562155 1.92573 0.0102153 1.61685 0.108872ZM21.6547 0.0402387C21.3719 0.0930122 20.8514 0.374708 20.5753 0.62452C20.2055 0.959043 19.9151 1.5302 19.8473 2.05618C19.7799 2.57982 19.7836 10.3207 19.8515 10.8007C19.991 11.7863 20.7323 12.5848 21.6982 12.7899C21.8821 12.829 22.7027 12.8514 23.9426 12.8514C26.0658 12.8514 26.2746 12.8287 26.8053 12.5398C27.1746 12.3389 27.5891 11.8802 27.7959 11.4437L27.9709 11.0741L27.9861 6.53618C28.0008 2.1375 27.998 1.98733 27.8924 1.63963C27.6763 0.928364 27.0785 0.327457 26.369 0.10827C26.0427 0.00748092 25.8694 0.000426238 23.9046 0.00731686C22.7423 0.0114184 21.7298 0.0262387 21.6547 0.0402387ZM1.75401 15.2349C1.07682 15.4169 0.513206 15.8964 0.200667 16.556L0.025612 16.9257L0.0104089 21.4636C-0.00430203 25.8623 -0.00145828 26.0124 0.104143 26.3601C0.320214 27.0714 0.918003 27.6723 1.62757 27.8915C1.95171 27.9916 2.13819 27.9998 4.06456 27.9992C6.25922 27.9986 6.44494 27.9816 6.91908 27.7392C7.5551 27.414 8.05352 26.6864 8.14922 25.9436C8.21665 25.4199 8.21299 17.679 8.14501 17.1991C8.0055 16.2135 7.26421 15.415 6.29832 15.2098C5.84179 15.1129 2.13152 15.1333 1.75401 15.2349ZM12.254 15.2349C11.5768 15.4169 11.0132 15.8964 10.7007 16.556L10.5256 16.9257L10.5104 21.4636C10.4957 25.8623 10.4985 26.0124 10.6041 26.3601C10.8202 27.0714 11.418 27.6723 12.1276 27.8915C12.4695 27.9971 12.6533 27.9999 19.2483 27.9999C25.8433 27.9999 26.0271 27.9971 26.369 27.8915C27.0782 27.6724 27.6763 27.0714 27.8921 26.3611C27.9973 26.0147 28.0003 25.8597 27.9859 21.4645L27.9709 16.9257L27.7959 16.556C27.4779 15.8848 26.9172 15.414 26.219 15.2322C25.7483 15.1095 12.7106 15.1121 12.254 15.2349Z" fill="#272D43"/>
</g>
<defs>
<clipPath id="clip0_104_245">
<rect width="28" height="28" fill="white"/>
</clipPath>
</defs>
</svg>
