<svg width="36" height="26" viewBox="0 0 36 26" fill="none" xmlns="http://www.w3.org/2000/svg">
<path fill-rule="evenodd" clip-rule="evenodd" d="M28.5 0C30.4883 0.00228006 32.3948 0.758656 33.8008 2.10449C35.2067 3.45034 35.9975 5.27541 36 7.17871V18.666C35.9976 20.5694 35.2067 22.3943 33.8008 23.7402C32.3948 25.0862 30.4884 25.8434 28.5 25.8457H7.5C5.51161 25.8434 3.60523 25.0862 2.19922 23.7402C0.793288 22.3943 0.00238172 20.5694 0 18.666V7.17871C0.00247157 5.27541 0.793292 3.45034 2.19922 2.10449C3.60521 0.758656 5.51167 0.00228018 7.5 0H28.5ZM17.3652 8.25586C16.9675 8.2559 16.586 8.40751 16.3047 8.67676C16.0236 8.94594 15.8653 9.31079 15.8652 9.69141V12.5635H12.8652C12.4675 12.5635 12.086 12.7151 11.8047 12.9844C11.5236 13.2535 11.3654 13.6184 11.3652 13.999C11.3652 14.3798 11.5234 14.7454 11.8047 15.0146C12.086 15.2839 12.4675 15.4355 12.8652 15.4355H15.8652V18.3076C15.8654 18.6882 16.0236 19.0531 16.3047 19.3223C16.586 19.5915 16.9675 19.7431 17.3652 19.7432C17.763 19.7432 18.1445 19.5915 18.4258 19.3223C18.707 19.0531 18.8651 18.6883 18.8652 18.3076V15.4355H21.8652C22.263 15.4355 22.6445 15.2839 22.9258 15.0146C23.2071 14.7454 23.3652 14.3798 23.3652 13.999C23.3651 13.6184 23.207 13.2536 22.9258 12.9844C22.6445 12.7151 22.2631 12.5635 21.8652 12.5635H18.8652V9.69141C18.8651 9.31072 18.707 8.94596 18.4258 8.67676C18.1445 8.40747 17.7631 8.25586 17.3652 8.25586Z" fill="#272D43"/>
</svg>
