<svg width="28" height="28" viewBox="0 0 28 28" fill="none" xmlns="http://www.w3.org/2000/svg">
<path d="M3.32143 27.4838C3.95849 27.756 4.66281 27.83 5.34251 27.696C6.02222 27.5619 6.64575 27.2262 7.13177 26.7325L13.9976 19.904L20.8634 26.7325C21.1836 27.0573 21.5649 27.3154 21.9855 27.4918C22.406 27.6682 22.8574 27.7595 23.3134 27.7603C23.7822 27.7589 24.2461 27.665 24.6784 27.4838C25.3207 27.2239 25.8697 26.7763 26.2537 26.1996C26.6377 25.6229 26.8388 24.9438 26.8309 24.251V5.84212C26.8291 4.2956 26.2139 2.81294 25.1203 1.71938C24.0268 0.625818 22.5441 0.0106416 20.9976 0.00878906L6.9976 0.00878906C5.45107 0.0106416 3.96842 0.625818 2.87486 1.71938C1.78129 2.81294 1.16612 4.2956 1.16427 5.84212V24.251C1.15674 24.9443 1.3586 25.6238 1.74347 26.2006C2.12834 26.7774 2.6783 27.2246 3.32143 27.4838Z" fill="#272D43"/>
</svg>
