<svg width="87" height="87" viewBox="0 0 87 87" fill="none" xmlns="http://www.w3.org/2000/svg">
<path fill-rule="evenodd" clip-rule="evenodd" d="M40.7741 0.558855C39.5159 1.10308 37.587 2.78908 36.9237 3.92474C36.6434 4.40442 36.4769 9.24942 36.3569 20.4009L36.187 36.1976L20.3871 36.3674C9.2333 36.4873 4.3873 36.6538 3.90752 36.9341C1.71829 38.2121 0 41.1003 0 43.5014C0 45.9025 1.71829 48.7908 3.90752 50.0688C4.3873 50.349 9.2333 50.5155 20.3871 50.6354L36.187 50.8053L36.3569 66.602C36.4769 77.7534 36.6434 82.5984 36.9237 83.0781C37.6094 84.2525 39.5346 85.9103 40.8482 86.4579C44.0384 87.7886 47.4217 86.6298 49.7268 83.4178C50.4437 82.4184 50.4614 82.0929 50.6279 66.602L50.7978 50.8053L66.5977 50.6354C82.0919 50.469 82.4174 50.4513 83.4171 49.7345C86.6297 47.4299 87.7887 44.0473 86.4578 40.8578C85.9101 39.5444 84.2519 37.6196 83.0773 36.9341C82.5975 36.6538 77.7515 36.4873 66.5977 36.3674L50.7978 36.1976L50.6279 20.4009C50.4614 4.90991 50.4437 4.58447 49.7268 3.58503C47.4237 0.375411 43.9297 -0.805437 40.7741 0.558855Z" fill="#708D96"/>
</svg>
