<svg width="28" height="28" viewBox="0 0 28 28" fill="none" xmlns="http://www.w3.org/2000/svg">
<g clip-path="url(#clip0_351_3)">
<path fill-rule="evenodd" clip-rule="evenodd" d="M2.57711 0.104233C1.95329 0.28292 1.53748 0.534351 1.0351 1.0365C0.312758 1.75858 0 2.50253 0 3.49858C0 4.09847 0.100541 4.52924 0.370124 5.08472C0.648058 5.65732 1.33678 6.34805 1.91039 6.62946C2.70342 7.01855 2.20939 6.99733 10.4847 6.99821C17.7593 6.99903 17.9505 6.9964 18.3664 6.8898C18.9776 6.73316 19.4387 6.45613 19.9511 5.93784C20.6436 5.23732 20.958 4.4757 20.958 3.49858C20.958 2.50319 20.6446 1.75634 19.9246 1.03634C19.404 0.51581 19.0241 0.286093 18.395 0.111398C17.9912 -0.000725619 17.9114 -0.00181951 10.4536 0.0020091C3.37413 0.00567364 2.89948 0.0118541 2.57711 0.104233ZM2.57711 10.6056C1.95329 10.7843 1.53748 11.0357 1.0351 11.5379C0.312758 12.2599 0 13.0039 0 13.9999C0 14.5998 0.100541 15.0306 0.370124 15.5861C0.648058 16.1587 1.33678 16.8494 1.91039 17.1308C2.71542 17.5258 1.82759 17.4987 13.978 17.4996C24.7442 17.5004 24.9338 17.4986 25.353 17.3912C25.9641 17.2345 26.4253 16.9575 26.9377 16.4392C27.4211 15.9501 27.7343 15.4059 27.8498 14.8542C27.8852 14.6852 27.9337 14.5469 27.9575 14.5469C27.9813 14.5469 28.0004 14.27 28 13.9316C27.9995 13.5932 27.9799 13.3466 27.9564 13.3836C27.9304 13.4247 27.8887 13.3313 27.8496 13.1446C27.7306 12.5757 27.4236 12.0502 26.9111 11.5377C26.3906 11.0172 26.0107 10.7874 25.3816 10.6128C24.975 10.4999 24.9376 10.4995 13.9469 10.5034C3.50545 10.5071 2.90193 10.5125 2.57711 10.6056ZM0.0206322 13.9999C0.0206322 14.3459 0.0295291 14.4874 0.0403365 14.3144C0.0511438 14.1414 0.0511438 13.8584 0.0403365 13.6854C0.0295291 13.5125 0.0206322 13.654 0.0206322 13.9999ZM2.57711 21.1069C1.95329 21.2856 1.53748 21.5371 1.0351 22.0392C0.312758 22.7613 0 23.5052 0 24.5013C0 25.1012 0.100541 25.5319 0.370124 26.0874C0.648058 26.66 1.33678 27.3508 1.91039 27.6322C2.67296 28.0063 2.58623 28 6.99147 28.0009C10.7745 28.0017 10.9729 27.9968 11.3798 27.8925C11.991 27.7359 12.4522 27.4588 12.9645 26.9406C13.6571 26.24 13.9715 25.4784 13.9715 24.5013C13.9715 23.5059 13.658 22.759 12.938 22.039C12.4175 21.5185 12.0376 21.2888 11.4084 21.1141C11.0122 21.0041 10.8852 21.0009 6.96036 21.0047C3.24291 21.0083 2.89276 21.0165 2.57711 21.1069Z" fill="#272D43"/>
</g>
<defs>
<clipPath id="clip0_351_3">
<rect width="28" height="28" fill="white"/>
</clipPath>
</defs>
</svg>
