<svg width="28" height="28" viewBox="0 0 28 28" fill="none" xmlns="http://www.w3.org/2000/svg">
<g clip-path="url(#clip0_106_63)">
<path d="M26.639 19.8998C26.499 19.5638 26.359 19.1987 26.219 18.8907C25.995 18.3855 25.5459 17.4335 25.5459 17.4335C23.6115 13.2288 21.5267 8.97517 19.352 4.76467C19.1607 4.39483 18.82 3.7275 18.5949 3.2795C18.3149 2.7755 18.0349 2.24233 17.5857 1.73833C16.6897 0.617167 15.4005 0 14.0274 0C12.6262 0 11.365 0.617167 10.4399 1.68117C10.0187 2.18633 9.71069 2.71833 9.43069 3.2235C9.20669 3.6715 8.67352 4.70867 8.67352 4.70867C6.51519 8.91333 4.41285 13.1728 2.47969 17.3775C2.47969 17.3775 2.03169 18.3587 1.80652 18.8627C1.66652 19.1707 1.52652 19.5078 1.38652 19.8718C1.02252 20.909 0.910521 21.8902 1.05052 22.8993C1.35852 25.0017 2.75969 26.7668 4.69402 27.552C5.42202 27.86 6.17919 28 6.96435 28C7.18835 28 7.46835 27.972 7.69352 27.944C8.61869 27.832 9.57185 27.524 10.4959 26.9908C11.645 26.3457 12.7382 25.4217 13.9714 24.0765C15.2045 25.4217 16.3257 26.3468 17.4469 26.9908C18.372 27.524 19.3252 27.832 20.2492 27.944C20.4732 27.972 20.7532 28 20.9784 28C21.7635 28 22.5475 27.86 23.2487 27.5508C25.211 26.7657 26.5842 24.9725 26.8922 22.8982C27.1162 21.9182 27.0042 20.937 26.639 19.8998ZM13.9994 21.357C12.4862 19.4507 11.505 17.6575 11.169 16.1432C11.029 15.498 11.001 14.938 11.085 14.434C11.141 13.986 11.309 13.5928 11.533 13.2568C12.065 12.4997 12.9622 12.0237 13.9994 12.0237C15.0365 12.0237 15.9617 12.4717 16.4657 13.2568C16.6897 13.5928 16.8577 13.986 16.9137 14.434C16.9977 14.938 16.9697 15.5272 16.8297 16.1432C16.4937 17.6295 15.5125 19.4238 13.9994 21.357ZM25.1819 22.6742C24.9859 24.1313 24.0047 25.3925 22.6315 25.9537C21.9584 26.2337 21.2304 26.3177 20.5012 26.2337C19.8 26.1497 19.1 25.9257 18.3709 25.5045C17.3617 24.9445 16.3525 24.0753 15.1754 22.7862C17.0257 20.5158 18.1469 18.4415 18.5669 16.5923C18.7629 15.7232 18.7909 14.938 18.7069 14.21C18.5949 13.5088 18.3429 12.8648 17.9497 12.3037C17.0817 11.0437 15.6245 10.3145 13.9994 10.3145C12.3742 10.3145 10.9159 11.0717 10.0479 12.3048C9.65586 12.8648 9.40269 13.51 9.29069 14.2112C9.17869 14.9403 9.20669 15.7523 9.43069 16.5935C9.85069 18.4427 10.9999 20.545 12.8222 22.8153C11.673 24.1045 10.6359 24.9737 9.62669 25.5337C8.89752 25.9537 8.19752 26.1788 7.49636 26.2628C6.73919 26.3468 6.01119 26.2348 5.36602 25.9828C3.99285 25.4228 3.01169 24.1605 2.81569 22.7033C2.73169 22.0022 2.78769 21.3022 3.06769 20.517C3.15169 20.237 3.29169 19.957 3.43169 19.6198C3.62769 19.1718 4.10485 18.1627 4.10485 18.1627C6.03919 13.9872 8.11235 9.7265 10.2707 5.57783C10.2707 5.57783 10.8027 4.54067 11.0279 4.12067C11.2519 3.6715 11.5039 3.2515 11.813 2.8875C12.4022 2.2155 13.1862 1.85033 14.0554 1.85033C14.9245 1.85033 15.7085 2.21433 16.2977 2.8875C16.6057 3.2515 16.8577 3.67267 17.0829 4.12067C17.3069 4.54067 17.6522 5.21267 17.84 5.57783C19.9762 9.751 22.0447 14.014 23.9779 18.1907C23.9779 18.1907 24.3979 19.1718 24.623 19.6198C24.763 19.9558 24.903 20.237 24.987 20.517C25.2099 21.245 25.2939 21.9462 25.1819 22.6742Z" fill="#272D43"/>
</g>
<defs>
<clipPath id="clip0_106_63">
<rect width="28" height="28" fill="white"/>
</clipPath>
</defs>
</svg>
