<svg width="28" height="28" viewBox="0 0 28 28" fill="none" xmlns="http://www.w3.org/2000/svg">
<g clip-path="url(#clip0_106_65)">
<path d="M25.067 19.6211L22.1667 18.4614V14.5846C22.1667 13.6198 21.3815 12.8346 20.4167 12.8346C19.4518 12.8346 18.6667 13.6198 18.6667 14.5846V22.3989L17.941 21.7304C17.1512 20.9394 15.8737 20.7376 14.952 21.3979C13.7888 22.2356 13.692 23.8689 14.6615 24.8384L17.3145 27.3923C17.7205 27.7831 18.2607 28.0013 18.8242 28.0013H25.6667C26.9558 28.0013 28 26.9571 28 25.6679V23.9541C28 22.0454 26.838 20.3304 25.067 19.6211ZM13.0433 26.5184C12.0587 25.5338 11.5733 24.2154 11.6818 22.8703C11.7623 21.8646 12.1718 20.9266 12.8333 20.1846V5.20343C12.8333 2.9471 11.2222 1.01627 9.06967 0.626601L6.8775 0.0934342C5.1695 -0.213399 3.42767 0.242767 2.09533 1.3546C0.763 2.46643 0 4.0986 0 5.83227V20.7574C0 23.5773 2.01483 25.9911 4.78917 26.4963L12.1217 27.8298C12.7447 27.9429 13.3712 28.0001 13.9988 28.0001C14.1843 28.0001 14.3698 27.9849 14.5542 27.9756L13.041 26.5184H13.0433ZM8.1375 20.8869C8.015 21.4283 7.53317 21.7946 7.00117 21.7946C6.916 21.7946 3.241 20.9698 3.241 20.9698C2.61217 20.8263 2.219 20.2021 2.3625 19.5733C2.506 18.9444 3.13017 18.5524 3.759 18.6948L7.259 19.4904C7.88783 19.6339 8.281 20.2581 8.1375 20.8869ZM10.4755 16.5714C10.36 17.1221 9.87467 17.4989 9.3345 17.4989C9.25517 17.4989 3.26083 16.2553 3.26083 16.2553C2.62967 16.1234 2.226 15.5051 2.35783 14.8739C2.48967 14.2428 3.11033 13.8414 3.73917 13.9709L9.5725 15.1901C10.2037 15.3219 10.6073 15.9403 10.4755 16.5714ZM10.4755 11.9048C10.36 12.4554 9.87467 12.8323 9.3345 12.8323C9.25517 12.8323 3.26083 11.5886 3.26083 11.5886C2.62967 11.4568 2.226 10.8384 2.35783 10.2073C2.48967 9.5761 3.11033 9.17243 3.73917 9.30427L9.5725 10.5234C10.2037 10.6553 10.6073 11.2736 10.4755 11.9048ZM10.4755 7.2906C10.36 7.84127 9.87467 8.2181 9.3345 8.2181C9.25517 8.2181 3.26083 6.97443 3.26083 6.97443C2.62967 6.8426 2.226 6.22427 2.35783 5.5931C2.48967 4.96193 3.11033 4.56177 3.73917 4.6901L9.5725 5.90927C10.2037 6.0411 10.6073 6.65943 10.4755 7.2906ZM16.3333 18.6598V14.5823C16.3333 12.3306 18.165 10.4989 20.4167 10.4989C22.6683 10.4989 24.5 12.3306 24.5 14.5823V16.8794L25.9338 17.4523C26.7143 17.7638 27.4015 18.2141 28 18.7496V5.83227C28 4.09743 27.237 2.46527 25.9047 1.3546C24.5735 0.242767 22.8375 -0.218066 21.0548 0.107434L18.9968 0.611434C16.7778 1.01627 15.1667 2.9471 15.1667 5.20343V18.7904C15.5447 18.7006 15.932 18.6481 16.3333 18.6598ZM18.4275 5.91043L24.2608 4.69127C24.892 4.56527 25.5103 4.96427 25.6422 5.59427C25.774 6.22427 25.3692 6.8426 24.7392 6.9756C24.7392 6.9756 18.7448 8.21927 18.6655 8.21927C18.1253 8.21927 17.64 7.84127 17.5245 7.29177C17.3927 6.6606 17.7975 6.04343 18.4275 5.91043Z" fill="#272D43"/>
</g>
<defs>
<clipPath id="clip0_106_65">
<rect width="28" height="28" fill="white"/>
</clipPath>
</defs>
</svg>
