<svg width="28" height="28" viewBox="0 0 28 28" fill="none" xmlns="http://www.w3.org/2000/svg">
<path d="M16 8.16667V0.536667C17.0792 0.944224 18.0595 1.57653 18.8758 2.39167L22.9405 6.45867C23.7566 7.27403 24.3894 8.25404 24.7967 9.33333H17.1667C16.8572 9.33333 16.5605 9.21042 16.3417 8.99162C16.1229 8.77283 16 8.47609 16 8.16667ZM25.3333 12.2325V22.1667C25.3315 23.7132 24.7163 25.1959 23.6227 26.2894C22.5292 27.383 21.0465 27.9981 19.5 28H7.83333C6.28681 27.9981 4.80415 27.383 3.71059 26.2894C2.61703 25.1959 2.00185 23.7132 2 22.1667V5.83333C2.00185 4.28681 2.61703 2.80415 3.71059 1.71059C4.80415 0.617029 6.28681 0.0018525 7.83333 0L13.1008 0C13.291 0 13.4788 0.0151667 13.6667 0.028V8.16667C13.6667 9.09492 14.0354 9.98516 14.6918 10.6415C15.3482 11.2979 16.2384 11.6667 17.1667 11.6667H25.3053C25.3182 11.8545 25.3333 12.0423 25.3333 12.2325ZM18.3333 19.8333C18.3333 19.5239 18.2104 19.2272 17.9916 19.0084C17.7728 18.7896 17.4761 18.6667 17.1667 18.6667H14.8333V16.3333C14.8333 16.0239 14.7104 15.7272 14.4916 15.5084C14.2728 15.2896 13.9761 15.1667 13.6667 15.1667C13.3572 15.1667 13.0605 15.2896 12.8417 15.5084C12.6229 15.7272 12.5 16.0239 12.5 16.3333V18.6667H10.1667C9.85725 18.6667 9.5605 18.7896 9.34171 19.0084C9.12292 19.2272 9 19.5239 9 19.8333C9 20.1428 9.12292 20.4395 9.34171 20.6583C9.5605 20.8771 9.85725 21 10.1667 21H12.5V23.3333C12.5 23.6428 12.6229 23.9395 12.8417 24.1583C13.0605 24.3771 13.3572 24.5 13.6667 24.5C13.9761 24.5 14.2728 24.3771 14.4916 24.1583C14.7104 23.9395 14.8333 23.6428 14.8333 23.3333V21H17.1667C17.4761 21 17.7728 20.8771 17.9916 20.6583C18.2104 20.4395 18.3333 20.1428 18.3333 19.8333Z" fill="#272D43"/>
</svg>
