<svg width="22" height="22" viewBox="0 0 22 22" fill="none" xmlns="http://www.w3.org/2000/svg">
<path fill-rule="evenodd" clip-rule="evenodd" d="M8.41273 0.0614498C6.23357 0.357576 4.34658 1.28958 2.8068 2.83018C2.04246 3.595 1.43928 4.45606 0.93585 5.50109C-0.126385 7.70618 -0.292015 10.2908 0.478174 12.6429C1.42031 15.5201 3.69528 17.8188 6.5423 18.7702C7.63183 19.1343 8.53588 19.2801 9.68119 19.2763C11.6075 19.2699 13.4172 18.723 14.98 17.6751L15.4215 17.379L17.6359 19.5886C19.1197 21.0691 19.9142 21.8315 20.0438 21.8992C20.2073 21.9844 20.3007 22.0001 20.6458 22C21.0054 22 21.08 21.9862 21.2693 21.8856C21.5269 21.7484 21.7609 21.5113 21.8988 21.2474C21.9844 21.0837 22 20.9908 22 20.6451C22 20.3 21.9843 20.2063 21.8991 20.0428C21.8315 19.9131 21.0695 19.1181 19.5899 17.6335L17.3816 15.4178L17.6828 14.9661C18.6147 13.5684 19.1602 11.9392 19.2668 10.2355C19.5842 5.16237 15.9153 0.715225 10.8722 0.0600731C10.251 -0.0205947 9.01157 -0.0199063 8.41273 0.0614498ZM8.79972 2.88284C5.41621 3.3135 2.84365 6.24684 2.84455 9.67318C2.84507 11.5692 3.58619 13.2856 4.98364 14.627C7.83483 17.3639 12.4334 17.0743 14.9678 13.9981C15.6632 13.154 16.148 12.123 16.3941 10.965C16.5339 10.3067 16.5353 9.08484 16.397 8.39308C16.1179 6.99832 15.52 5.86919 14.5275 4.8631C13.2099 3.52754 11.4929 2.8199 9.61669 2.83922C9.3329 2.84214 8.96526 2.86181 8.79972 2.88284Z" fill="#272D43"/>
</svg>
