<svg width="28" height="28" viewBox="0 0 28 28" fill="none" xmlns="http://www.w3.org/2000/svg">
<g clip-path="url(#clip0_106_67)">
<path d="M23.3333 0L16.3333 0.00233333C15.05 0.00233333 14.0012 1.0535 14.0012 2.33683L14.0035 11.564C14.0035 12.3083 14.6148 12.8333 15.274 12.8333C15.5027 12.8333 15.7372 12.7703 15.9542 12.6315L18.8172 10.5H25.6678V2.33333C25.6678 1.04417 24.6213 0 23.3333 0ZM19.8333 8.37083C19.8333 8.37083 16.625 6.1425 16.625 4.32833C16.625 3.37167 17.3437 2.59583 18.2292 2.59583C19.1147 2.59583 19.8333 3.24333 19.8333 4.2C19.8333 3.24333 20.552 2.59583 21.4375 2.59583C22.323 2.59583 23.0417 3.37167 23.0417 4.32833C23.0417 6.1425 19.8333 8.37083 19.8333 8.37083ZM9.3345 0.00233333L2.3345 0C1.04533 0 0 1.04417 0 2.33333V10.5H6.85067L9.71367 12.6315C9.93067 12.7703 10.1652 12.8333 10.3938 12.8333C11.0542 12.8333 11.6643 12.3083 11.6643 11.564L11.6667 2.33683C11.6667 1.0535 10.6178 0.0035 9.3345 0.00233333ZM3.5 8.16667V2.33333L8.75 5.25L3.5 8.16667ZM27.2277 16.7358L16.912 28H3.5C1.56683 28 0 26.4332 0 24.5V18.6667C0 16.7335 1.56683 15.1667 3.5 15.1667H13.7515C15.3545 15.1667 16.6215 16.6367 16.2762 18.2992C16.0522 19.3795 15.1048 20.1635 14.0128 20.3198L9.16883 21.0117L9.499 23.3205L14.4468 22.6135C16.8525 22.2705 18.6667 20.1787 18.6667 17.7485C18.6667 17.493 18.6293 17.248 18.5908 17.0042L22.722 12.6443C23.2528 12.061 24.0018 11.7075 24.815 11.6702C25.6223 11.6305 26.4052 11.914 27.006 12.4612C28.2333 13.5788 28.3337 15.4968 27.2265 16.737L27.2277 16.7358Z" fill="#272D43"/>
</g>
<defs>
<clipPath id="clip0_106_67">
<rect width="28" height="28" fill="white"/>
</clipPath>
</defs>
</svg>
