<svg width="28" height="28" viewBox="0 0 28 28" fill="none" xmlns="http://www.w3.org/2000/svg">
<path d="M15.6217 11.6433L16.3567 12.3899C16.9867 13.0199 18.0017 13.0199 18.6317 12.3899L27.1017 3.91993C26.0633 2.27493 24.2433 1.17826 22.155 1.17826H5.83333C2.61333 1.16659 0 3.77993 0 6.99993V16.3333C0 17.8149 0.56 19.1799 1.48167 20.2066L10.045 11.6433C11.585 10.1033 14.0817 10.1033 15.6217 11.6433ZM6.41667 9.33326C5.44833 9.33326 4.66667 8.5516 4.66667 7.58326C4.66667 6.61493 5.44833 5.83326 6.41667 5.83326C7.385 5.83326 8.16667 6.61493 8.16667 7.58326C8.16667 8.5516 7.385 9.33326 6.41667 9.33326ZM28 6.99993V16.3333C28 19.5533 25.3867 22.1666 22.1667 22.1666H15.1667V24.4999H19.8333C20.475 24.4999 21 25.0249 21 25.6666C21 26.3083 20.475 26.8333 19.8333 26.8333H8.16667C7.525 26.8333 7 26.3083 7 25.6666C7 25.0249 7.525 24.4999 8.16667 24.4999H12.8333V22.1666H5.83333C4.94667 22.1666 4.11833 21.9683 3.36 21.6183L11.69 13.2883C12.32 12.6583 13.335 12.6583 13.965 13.2883L14.7 14.0349C16.24 15.5749 18.7367 15.5749 20.2767 14.0349L27.9533 6.35826C27.9767 6.56826 27.9883 6.78993 27.9883 6.99993H28Z" fill="#272D43"/>
</svg>
