<svg width="30" height="30" viewBox="0 0 30 30" fill="none" xmlns="http://www.w3.org/2000/svg">
<g clip-path="url(#clip0_487_150)">
<path fill-rule="evenodd" clip-rule="evenodd" d="M24.4232 0.0577271C23.7457 0.181946 24.3426 -0.0575267 13.2124 4.55591C11.1499 5.41079 7.90815 6.75417 6.00848 7.54114C4.10887 8.32812 2.40708 9.05064 2.22678 9.14673C1.24727 9.6688 0.445181 10.6958 0.147935 11.8084C-0.159975 12.9613 0.0493806 14.3848 0.679498 15.4221C1.1595 16.2122 2.04462 16.9517 2.84553 17.2317C3.65342 17.5142 3.78631 17.5213 8.26639 17.5213H12.48L12.481 21.8133C12.4821 26.3716 12.486 26.4449 12.7682 27.1943C13.2408 28.4499 14.3791 29.4438 15.8198 29.8589C16.3407 30.009 17.6176 30.0117 18.1636 29.8638C19.249 29.5697 20.2569 28.8043 20.7984 27.8631C20.9557 27.5897 29.4665 7.1529 29.717 6.44708C30.3372 4.6997 29.8915 2.74952 28.5718 1.43603C27.6654 0.533801 26.6156 0.0771802 25.3413 0.0308911C24.9868 0.0180591 24.5737 0.0300708 24.4232 0.0577271Z" fill="white"/>
</g>
<defs>
<clipPath id="clip0_487_150">
<rect width="30" height="30" fill="white"/>
</clipPath>
</defs>
</svg>
