<svg width="75" height="40" viewBox="0 0 75 40" fill="none" xmlns="http://www.w3.org/2000/svg">
<path d="M61.8716 0.0428219C55.9959 0.0376819 50.1203 0.0325403 44.2446 0.0299615C42.8784 0.029366 41.5122 0.0287514 40.1459 0.0281051L39.6166 0.0278517C36.8127 0.0265243 34.0088 0.0243226 31.2048 0.0214651C28.3178 0.0185157 25.4309 0.0164439 22.5439 0.0157659C20.7646 0.0153763 18.9853 0.0145653 17.206 0.0120325C15.9754 0.010279 14.7447 0.00930327 13.5141 0.00946484L13.2808 0.00954879C12.6476 0.00977847 12.0145 0.0100097 11.3813 0.00881065C10.7232 0.0072441 10.0651 0.00600859 9.40698 0.00670079C9.16628 0.00709996 8.92557 0.00737398 8.68486 0.00750862C6.12144 -0.00331155 4.02838 0.162693 2.13442 2.03028C0.283678 3.9333 -0.00950814 5.98424 0.000727028 8.55798C0.00182037 8.81214 0.00213456 9.0663 0.00175213 9.32046C-0.000195724 10.0167 -0.000622585 10.7129 0.000995205 11.4091C0.0027931 12.1495 0.00303192 12.8899 0.00268282 13.6302C0.00207426 14.8731 0.00275819 16.1159 0.00506706 17.3587C0.00785277 18.8011 0.0093206 20.2435 0.00812491 21.6859C0.00693596 23.0882 0.00678164 24.4904 0.00823837 25.8927L0.00825979 25.9151C0.00887946 26.5017 0.00949912 27.0883 0.00918016 27.6749C0.0085843 28.384 0.00847481 29.093 0.0103292 29.8021C0.0111742 30.0652 0.0118992 30.3284 0.0124921 30.5916C0.00954673 32.0213 0.0327282 33.402 0.269261 34.8172C1.12932 38.5198 4.6996 40.0264 8.14933 39.9996C8.39894 39.9976 8.64857 39.9969 8.8982 39.9974C9.59143 40.0005 10.2846 40.0009 10.9778 39.9979C11.7338 39.9947 12.4898 39.9946 13.2458 39.9957C14.7286 39.998 16.2114 39.997 17.6943 39.9935C19.4359 39.9894 21.1775 39.9882 22.9192 39.9882C26.023 39.9882 29.1267 39.9855 32.2305 39.9801C35.2511 39.9747 38.2717 39.9709 41.2923 39.9706L44.1071 39.9704C47.0008 39.9701 49.8945 39.9678 52.7883 39.965C53.8327 39.9639 54.8771 39.963 55.9215 39.9626C57.5932 39.962 59.2649 39.961 60.9365 39.9577L61.2198 39.9571C61.8906 39.9556 62.5614 39.9541 63.2321 39.9539C63.9406 39.9541 64.649 39.9539 65.3574 39.9518C65.6163 39.9509 65.8752 39.9501 66.1341 39.9495C68.7377 39.9543 70.9132 39.8331 72.8514 37.9218C74.7022 36.0188 74.9954 33.9679 74.9851 31.3941C74.984 31.14 74.9837 30.8858 74.9841 30.6316C74.9861 29.9354 74.9865 29.2392 74.9849 28.543C74.9831 27.8026 74.9828 27.0622 74.9832 26.3219C74.9838 25.079 74.9831 23.8362 74.9808 22.5933C74.978 21.151 74.9765 19.7086 74.9777 18.2662C74.9789 16.8639 74.9791 15.4617 74.9776 14.0594L74.9776 14.0348C74.977 13.4489 74.9764 12.863 74.9767 12.2772C74.9773 11.5681 74.9774 10.8591 74.9755 10.15C74.9747 9.88685 74.974 9.62368 74.9734 9.36051C74.979 6.6115 74.9513 4.14202 72.8961 2.0585L72.5503 1.72065C72.5503 1.72065 70.8549 1.06731 69.7316 0.771635C67.6711 0.229286 64.3238 0.0449587 64.3238 0.0449587L61.8716 0.0428219Z" fill="#FE5F96"/>
<path d="M0.26961 34.8172C0.0330757 33.4021 0.00989639 32.0214 0.0128407 30.5916C0.0122464 30.3285 0.0115217 30.0653 0.0106779 29.8021C0.00882485 29.0931 0.008933 28.384 0.00952859 27.675C0.00985174 27.0809 0.00921457 26.4868 0.00858838 25.8927C0.00713191 24.4905 0.00728628 23.0882 0.00847373 21.686C0.00966823 20.2436 0.00820134 18.8012 0.00541588 17.3588C0.00310642 16.116 0.00242224 14.8731 0.00303164 13.6303C0.00338082 12.8899 0.00314153 12.1496 0.00134403 11.4092C-0.000272894 10.713 0.000152133 10.0168 0.00210016 9.32052C0.00248117 9.06636 0.00217 8.8122 0.00107506 8.55804C-0.00915892 5.9843 0.284023 3.93336 2.13477 2.03034C2.91231 1.26363 3.6649 0.659195 4.73466 0.356438C4.87115 0.31753 4.87115 0.31753 5.0104 0.277836C6.43228 -0.066089 7.88289 0.003834 9.33563 0.00966022C9.64323 0.00974817 9.95084 0.00969856 10.2584 0.00952242C11.0899 0.00943337 11.9213 0.011256 12.7527 0.0134348C13.6229 0.0153868 14.4932 0.0155684 15.3634 0.0159375C17.0097 0.016904 18.656 0.0194584 20.3023 0.0225871C22.1772 0.0260726 24.0522 0.0277791 25.9271 0.0293412C29.7825 0.0325931 33.6379 0.0380677 37.4933 0.0450131C37.4933 0.665615 37.4932 1.28621 37.4926 1.90682C37.4924 2.06321 37.4923 2.21961 37.4921 2.38075C37.492 2.54929 37.4918 2.71784 37.4916 2.89149C37.4899 4.72649 37.4888 6.56149 37.4879 8.39649C37.4874 9.50592 37.4866 10.6153 37.4854 11.7248C37.4844 12.6956 37.4837 13.6664 37.4835 14.6372C37.4834 15.1498 37.483 15.6625 37.4823 16.1751C37.4814 16.7477 37.4814 17.3203 37.4815 17.8929C37.4811 18.0604 37.4807 18.2279 37.4803 18.4005C37.4811 19.248 37.5108 20.0846 37.5737 20.9295C37.6186 21.6853 37.6108 22.4417 37.6091 23.1986C37.6091 23.379 37.6091 23.5595 37.6091 23.7454C37.6091 24.2352 37.6086 24.7249 37.6078 25.2147C37.6072 25.7284 37.6071 26.2421 37.607 26.7558C37.6067 27.7264 37.6058 28.6969 37.6048 29.6674C37.6036 30.7733 37.603 31.8792 37.6025 32.985C37.6014 35.2578 37.5996 37.5306 37.5973 39.8034C36.7115 39.8817 35.8337 39.923 34.9446 39.9246C34.821 39.9252 34.6974 39.9258 34.57 39.9264C34.1597 39.9282 33.7493 39.9294 33.3389 39.9305C33.0431 39.9317 32.7473 39.9329 32.4514 39.9341C31.4834 39.9379 30.5154 39.9405 29.5474 39.9429C29.3822 39.9433 29.2171 39.9437 29.047 39.9441C27.4878 39.9479 25.9286 39.9512 24.3695 39.9534C22.3808 39.9562 20.3922 39.9615 18.4035 39.97C17.0019 39.9758 15.6004 39.9788 14.1988 39.9798C13.3632 39.9804 12.5276 39.9823 11.692 39.9872C10.9053 39.9918 10.1187 39.9928 9.33196 39.9913C9.04477 39.9913 8.75757 39.9926 8.47039 39.9952C4.9102 40.0261 1.1753 38.7163 0.26961 34.8172Z" fill="#6AA9FE"/>
<path d="M37.701 39.9072C37.5096 39.4183 37.4673 39.0106 37.468 38.4871C37.4677 38.3261 37.4674 38.1652 37.4671 37.9993C37.4679 37.8236 37.4686 37.6479 37.4694 37.4668C37.4694 37.2811 37.4693 37.0954 37.4693 36.904C37.4693 36.3953 37.4705 35.8866 37.4719 35.3779C37.4732 34.8455 37.4734 34.3132 37.4736 33.7808C37.4742 32.7725 37.476 31.7642 37.478 30.7559C37.4804 29.6096 37.4815 28.4632 37.4826 27.3169C37.4846 25.0551 37.4881 22.7932 37.4924 20.5314C37.4929 20.2771 37.493 20.0228 37.493 19.7685C37.5879 19.7759 37.6828 19.7832 37.7806 19.7908C38.7154 19.8589 39.6423 19.8863 40.5794 19.8827C40.7247 19.8826 40.8701 19.8824 41.0199 19.8823C41.5024 19.8817 41.985 19.8804 42.4676 19.8791C42.8153 19.8786 43.1631 19.8781 43.5108 19.8777C44.2573 19.8766 45.0038 19.8753 45.7502 19.8738C46.93 19.8714 48.1097 19.87 49.2895 19.8688C49.6938 19.8684 50.098 19.868 50.5023 19.8675C50.6538 19.8674 50.6538 19.8674 50.8083 19.8672C51.9552 19.866 53.102 19.8646 54.2489 19.863C54.3536 19.8629 54.4583 19.8627 54.5662 19.8626C56.2672 19.8603 57.9681 19.8572 59.6691 19.8539C61.4172 19.8505 63.1653 19.8484 64.9134 19.8472C66.0869 19.8464 67.2604 19.8442 68.4339 19.841C69.1623 19.8393 69.8906 19.8389 70.619 19.839C70.9575 19.8387 71.2961 19.8379 71.6346 19.8366C72.0954 19.8348 72.5562 19.8349 73.0171 19.8355C73.2196 19.8341 73.2196 19.8341 73.4262 19.8326C73.611 19.8334 73.611 19.8334 73.7996 19.8343C73.906 19.8341 74.0124 19.8339 74.122 19.8337C74.4696 19.88 74.6612 19.9601 74.9314 20.1837C74.9836 20.6127 75.0014 20.9987 74.9971 21.4282C74.9978 21.5569 74.9986 21.6856 74.9993 21.8181C75.0011 22.2456 74.9991 22.673 74.9969 23.1005C74.9969 23.3981 74.9972 23.6958 74.9976 23.9934C74.9979 24.619 74.9964 25.2446 74.9935 25.8703C74.99 26.6678 74.9906 27.4653 74.9926 28.2628C74.9937 28.8787 74.9927 29.4945 74.9912 30.1104C74.9906 30.4041 74.9907 30.6978 74.9913 30.9915C74.9951 33.7117 74.8276 35.8898 72.8514 37.9218C72.0739 38.6885 71.3214 39.293 70.2516 39.5958C70.1604 39.6217 70.0692 39.6476 69.9752 39.6744C68.5592 40.0164 67.1165 39.9484 65.6698 39.9425C65.3642 39.9425 65.0587 39.9425 64.7531 39.9427C63.9273 39.9428 63.1015 39.9409 62.2756 39.9388C61.4112 39.9368 60.5468 39.9366 59.6824 39.9363C58.0471 39.9353 56.4119 39.9327 54.7766 39.9296C52.9143 39.9261 51.0519 39.9244 49.1896 39.9229C45.36 39.9196 41.5305 39.9141 37.701 39.9072Z" fill="#FE8EB7"/>
<path d="M0.269355 34.8322C0.00129257 33.2764 0.0153206 31.7385 0.0245441 30.1643C0.0251272 29.8692 0.0255707 29.5741 0.0258818 29.279C0.0270632 28.5088 0.0301195 27.7387 0.0335891 26.9685C0.036802 26.18 0.0382101 25.3915 0.0397778 24.603C0.0431064 23.0607 0.0484193 21.5184 0.0550116 19.9761C0.157967 20.0104 0.260923 20.0446 0.366998 20.0799C0.575096 20.011 0.783072 19.9418 0.990972 19.8723C1.32448 19.8438 1.32448 19.8438 1.68693 19.8405C1.82329 19.8388 1.95965 19.8372 2.10015 19.8355C2.31905 19.8346 2.31905 19.8346 2.54238 19.8338C2.6931 19.8328 2.84382 19.8319 2.99912 19.8309C3.31721 19.8294 3.6353 19.8285 3.9534 19.8281C4.44162 19.8269 4.9297 19.8218 5.4179 19.8165C5.72683 19.8155 6.03577 19.8148 6.34472 19.8143C6.56457 19.8113 6.56457 19.8113 6.78886 19.8082C6.92424 19.8088 7.05962 19.8094 7.1991 19.8101C7.31846 19.8095 7.43782 19.809 7.56079 19.8085C7.85468 19.8723 7.85468 19.8723 8.04944 20.0725C8.21576 20.5249 8.20391 20.9215 8.20209 21.4032C8.20213 21.5045 8.20218 21.6058 8.20223 21.7102C8.20201 22.0444 8.19958 22.3786 8.19714 22.7128C8.19656 22.9448 8.19611 23.1768 8.1958 23.4088C8.19461 24.0189 8.19155 24.629 8.18809 25.2391C8.1849 25.8619 8.18348 26.4846 8.1819 27.1074C8.17856 28.329 8.17324 29.5505 8.16667 30.7721C8.67632 30.9537 9.08163 31.0041 9.62505 31C9.78256 30.9993 9.94008 30.9987 10.1024 30.998C10.2658 30.9962 10.4292 30.9945 10.5976 30.9927C10.7634 30.9918 10.9292 30.9908 11.1001 30.9899C11.5089 30.9874 11.9177 30.984 12.3265 30.9797C12.5542 30.4294 12.5566 29.9491 12.5498 29.3572C12.549 29.2584 12.5482 29.1596 12.5474 29.0578C12.5456 28.844 12.5433 28.6303 12.5406 28.4165C12.5365 28.0784 12.5339 27.7404 12.5319 27.4023C12.5259 26.4413 12.5178 25.4804 12.5067 24.5194C12.5 23.9311 12.4958 23.3428 12.4933 22.7545C12.4918 22.5302 12.4893 22.3059 12.4859 22.0816C12.4811 21.7687 12.4796 21.456 12.4788 21.143C12.477 20.9649 12.4752 20.7867 12.4734 20.6032C12.5345 20.1837 12.5345 20.1837 12.7366 20.0041C13.1816 19.8195 13.5592 19.8341 14.0408 19.8348C14.1407 19.8346 14.2405 19.8343 14.3433 19.834C14.678 19.8335 15.0127 19.8352 15.3474 19.8369C15.5872 19.837 15.827 19.837 16.0669 19.8368C16.7183 19.8367 17.3697 19.8385 18.0211 19.8407C18.7018 19.8427 19.3824 19.8428 20.0631 19.8432C21.3522 19.8442 22.6412 19.8467 23.9303 19.8499C25.3978 19.8533 26.8653 19.855 28.3328 19.8566C31.3517 19.8599 34.3705 19.8654 37.3894 19.8723C37.5827 20.3646 37.6232 20.7758 37.6224 21.303C37.6227 21.4664 37.623 21.6297 37.6233 21.798C37.6226 21.9763 37.6218 22.1546 37.621 22.3383C37.6211 22.5267 37.6211 22.7151 37.6211 22.9092C37.6212 23.4252 37.62 23.9412 37.6185 24.4572C37.6172 24.9967 37.6171 25.5362 37.6169 26.0756C37.6162 27.0969 37.6145 28.1182 37.6124 29.1395C37.6101 30.3024 37.6089 31.4652 37.6079 32.6281C37.6057 35.0198 37.6021 37.4116 37.5974 39.8034C36.7116 39.8817 35.8339 39.923 34.9448 39.9246C34.8211 39.9252 34.6975 39.9258 34.5702 39.9264C34.1598 39.9282 33.7495 39.9294 33.3391 39.9305C33.0433 39.9317 32.7474 39.9329 32.4516 39.9341C31.4836 39.9379 30.5155 39.9405 29.5475 39.9429C29.3824 39.9433 29.2173 39.9437 29.0472 39.9441C27.488 39.9479 25.9288 39.9511 24.3696 39.9534C22.3809 39.9562 20.3923 39.9615 18.4037 39.97C17.0021 39.9758 15.6005 39.9788 14.1989 39.9798C13.3633 39.9804 12.5277 39.9823 11.6921 39.9872C10.9054 39.9917 10.1188 39.9928 9.33211 39.9913C9.04492 39.9913 8.75773 39.9926 8.47054 39.9952C4.89873 40.0262 1.20973 38.7191 0.269355 34.8322Z" fill="#7ED7F5"/>
<path d="M8.27046 31.0835C8.04461 30.5352 8.03793 30.0539 8.0405 29.4643C8.04064 29.3658 8.04078 29.2673 8.04092 29.1659C8.04159 28.8415 8.04372 28.5171 8.04581 28.1927C8.04646 27.9667 8.04701 27.7408 8.04745 27.5148C8.04883 26.9206 8.05137 26.3264 8.05425 25.7322C8.05873 24.7808 8.06182 23.8294 8.06423 22.8779C8.0653 22.5457 8.06707 22.2136 8.06891 21.8814C8.06962 21.6777 8.07031 21.474 8.07097 21.2704C8.07183 21.0927 8.07269 20.915 8.07357 20.7319C8.07482 20.2719 8.07482 20.2719 7.95847 19.7684C7.99012 19.6748 8.02178 19.5811 8.05439 19.4847C8.20118 19.0405 8.19213 18.6516 8.19172 18.1841C8.19192 18.0893 8.19212 17.9945 8.19232 17.8969C8.19271 17.585 8.1916 17.2731 8.19043 16.9612C8.19031 16.744 8.19026 16.5269 8.19029 16.3097C8.19012 15.8554 8.18926 15.401 8.18787 14.9467C8.1861 14.3637 8.1857 13.7808 8.18578 13.1978C8.18575 12.7498 8.18518 12.3017 8.18443 11.8537C8.1841 11.6387 8.18389 11.4237 8.18381 11.2087C8.18359 10.9087 8.1826 10.6088 8.18157 10.3089C8.18117 10.1381 8.18078 9.96732 8.18037 9.79136C8.18591 9.39685 8.18591 9.39685 8.06247 9.07623C8.57754 8.87072 9.01376 8.84443 9.56634 8.84834C9.73324 8.84901 9.90014 8.84968 10.0721 8.85037C10.2454 8.85211 10.4188 8.85385 10.5974 8.85564C10.7731 8.85658 10.9489 8.85751 11.1299 8.85848C11.5634 8.86092 11.9968 8.86434 12.4303 8.86862C12.6573 9.41857 12.6622 9.90133 12.6586 10.4927C12.6583 10.5917 12.658 10.6907 12.6577 10.7927C12.6569 11.0068 12.6556 11.2209 12.6539 11.435C12.6512 11.7735 12.6499 12.112 12.6489 12.4505C12.6465 13.1683 12.6425 13.8862 12.6383 14.604C12.6334 15.4372 12.6291 16.2704 12.6266 17.1037C12.6253 17.4378 12.6227 17.7719 12.62 18.106C12.6193 18.3097 12.6186 18.5134 12.618 18.7171C12.6169 18.8955 12.6158 19.0738 12.6147 19.2576C12.593 19.6654 12.593 19.6654 12.8463 19.8722C12.7781 20.1493 12.7085 20.4261 12.6383 20.7027C12.6207 21.0451 12.6138 21.388 12.6147 21.7308C12.6146 21.8302 12.6146 21.9295 12.6146 22.0319C12.6147 22.3577 12.6163 22.6834 12.618 23.0092C12.6183 23.2361 12.6186 23.463 12.6189 23.6899C12.6196 24.2851 12.6217 24.8804 12.624 25.4756C12.6261 26.0838 12.6271 26.692 12.6281 27.3002C12.6303 28.4921 12.6339 29.684 12.6383 30.8759C12.1139 31.0634 11.694 31.1077 11.1344 31.1037C10.884 31.1027 10.884 31.1027 10.6286 31.1017C10.4553 31.1 10.282 31.0982 10.1034 31.0965C9.92763 31.0955 9.75188 31.0946 9.57081 31.0936C9.13734 31.0912 8.70391 31.0878 8.27046 31.0835Z" fill="#6AA9FE"/>
<path d="M8.06247 19.8723C8.06442 19.585 8.06442 19.585 8.1006 19.2116C8.18103 18.2141 8.1814 17.2215 8.18027 16.2212C8.18034 16.024 8.18044 15.8268 8.18058 15.6296C8.18073 15.2199 8.18051 14.8102 8.18002 14.4006C8.17942 13.8752 8.17977 13.3499 8.18039 12.8246C8.18077 12.419 8.18065 12.0135 8.18038 11.6079C8.18027 11.32 8.18059 11.0321 8.18091 10.7442C8.18058 10.5705 8.18026 10.3968 8.17992 10.2178C8.17984 10.0646 8.17975 9.91143 8.17967 9.75358C8.18382 9.3909 8.18382 9.39087 8.06247 9.07623C8.57754 8.87072 9.01376 8.84443 9.56634 8.84834C9.73324 8.84901 9.90014 8.84968 10.0721 8.85037C10.2454 8.85211 10.4188 8.85385 10.5974 8.85564C10.7731 8.85658 10.9489 8.85751 11.1299 8.85848C11.5634 8.86092 11.9968 8.86434 12.4303 8.86862C12.6605 9.42424 12.6634 9.91747 12.6619 10.5151C12.6619 10.6165 12.6619 10.7178 12.662 10.8222C12.6618 11.1559 12.6602 11.4895 12.6586 11.8231C12.6582 12.055 12.6579 12.2868 12.6577 12.5187C12.6569 13.1279 12.6549 13.7371 12.6526 14.3464C12.6504 14.9685 12.6495 15.5906 12.6484 16.2126C12.6462 17.4325 12.6427 18.6524 12.6383 19.8723C12.118 20.0579 11.6967 20.1066 11.1417 20.1075C10.9757 20.1077 10.8098 20.108 10.6388 20.1083C10.4664 20.1075 10.294 20.1067 10.1164 20.1058C9.94237 20.1066 9.76837 20.1074 9.58909 20.1083C9.42366 20.108 9.25824 20.1077 9.0878 20.1075C8.93601 20.1072 8.78423 20.107 8.62784 20.1067C8.27046 20.0799 8.27046 20.0799 8.06247 19.8723Z" fill="#4895FF"/>
</svg>
