<svg width="133" height="50" viewBox="0 0 133 50" fill="none" xmlns="http://www.w3.org/2000/svg">
<path d="M3.17953 44.4849C2.98123 44.0527 2.80678 43.6177 2.63983 43.1724C2.57597 43.0054 2.51211 42.8383 2.44631 42.6662C0.428466 37.2404 -0.0695006 32.1857 0.0154228 26.4293C0.0324807 25.2619 0.0223309 24.0964 0.00510845 22.929C-0.0659406 17.2196 0.593687 12.238 2.63983 6.88496C2.69794 6.72999 2.75605 6.57502 2.81592 6.41536C3.23742 5.37722 3.73637 4.72868 4.59527 4.00073C5.21309 3.85684 5.21309 3.85684 5.8765 3.86091C6.1259 3.85803 6.3753 3.85515 6.63225 3.85217C6.89824 3.85198 7.16423 3.85179 7.43828 3.85159C7.99965 3.82912 8.56052 3.80436 9.12164 3.77702C9.4131 3.76437 9.70457 3.75195 9.99605 3.73974C10.1417 3.73359 10.2873 3.72744 10.4374 3.7211C10.7323 3.70867 11.0273 3.69624 11.3223 3.68381C12.7962 3.62155 14.2698 3.55785 15.7429 3.47876C17.5107 3.38383 19.2795 3.31093 21.0484 3.23641C22.516 3.17441 23.9834 3.11105 25.4502 3.03135C26.7151 2.96309 27.9802 2.91222 29.2459 2.86357C30.182 2.82708 31.1173 2.78417 32.0527 2.73308C33.3114 2.66435 34.5702 2.61371 35.8298 2.56531C36.7658 2.52881 37.7012 2.4859 38.6366 2.43481C39.7336 2.3749 40.8306 2.32787 41.9285 2.28568C43.2615 2.23439 44.5932 2.17163 45.9253 2.09926C47.4583 2.0195 48.9922 1.95881 50.5259 1.8942C51.9935 1.8322 53.4609 1.76884 54.9277 1.68914C56.1926 1.62088 57.4577 1.57001 58.7234 1.52136C59.6595 1.48487 60.5948 1.44195 61.5303 1.39087C62.7889 1.32213 64.0478 1.27149 65.3073 1.22309C66.2434 1.1866 67.1787 1.14368 68.1141 1.0926C69.3727 1.02386 70.6316 0.973222 71.8911 0.924823C72.8272 0.888327 73.7625 0.845415 74.6979 0.794331C75.7949 0.734419 76.892 0.687387 77.9898 0.645196C79.3228 0.593905 80.6546 0.531152 81.9866 0.458778C82.9333 0.409522 83.8803 0.367956 84.8274 0.328613C85.5351 0.299193 86.2423 0.267205 86.9496 0.229833C87.8283 0.185131 88.7069 0.151671 89.5863 0.123225C89.7958 0.115559 90.0054 0.107896 90.2214 0.0999977C90.9137 0.0770101 91.6058 0.0620537 92.2983 0.0486576C92.6327 0.036384 92.6328 0.0363863 92.9739 0.0238648C94.5436 0.00451019 94.5436 0.00450785 95.1431 0.551404C95.2351 0.754606 95.3271 0.957808 95.4219 1.16717C95.5583 1.41666 95.6961 1.66537 95.8351 1.91342C96.0535 2.3244 96.2698 2.73632 96.4842 3.14932C99.6595 9.10571 105.551 13.5406 111.964 15.5081C113.616 15.9815 115.256 16.2529 116.964 16.4232C117.719 16.5284 118.36 16.6829 119.064 16.9754C119.692 17.831 119.908 18.4552 119.812 19.5107C120.477 19.7651 121.023 19.845 121.734 19.8405C121.935 19.84 122.136 19.8395 122.344 19.839C122.667 19.8359 122.667 19.8359 122.997 19.8329C123.22 19.8321 123.442 19.8313 123.672 19.8305C124.384 19.8279 125.095 19.8232 125.807 19.8183C126.519 19.8142 127.231 19.8105 127.943 19.8077C128.386 19.8059 128.829 19.8032 129.272 19.7997C129.472 19.7988 129.673 19.7978 129.88 19.7968C130.056 19.7956 130.233 19.7943 130.414 19.7931C131.375 19.8256 131.918 20.0551 132.582 20.7544C132.889 21.2454 132.915 21.5738 132.939 22.1497C132.947 22.3476 132.956 22.5455 132.965 22.7494C132.99 23.845 133.001 24.9395 132.998 26.0354C132.999 26.2634 132.999 26.4914 133 26.7263C133 26.9435 133 27.1607 132.999 27.3846C132.999 27.6783 132.999 27.6783 132.999 27.978C132.966 28.7907 132.655 29.2781 132.064 29.8419C131.501 30.1782 131.101 30.1878 130.446 30.2094C130.193 30.2178 129.94 30.2262 129.68 30.2349C127.877 30.2675 126.075 30.2636 124.273 30.2577C123.868 30.257 123.463 30.2563 123.057 30.2557C122.075 30.2541 121.093 30.2515 120.111 30.2484C119.94 30.7337 119.811 31.1515 119.756 31.6652C119.644 32.2869 119.478 32.6045 119.064 33.082C118.262 33.5011 117.576 33.5951 116.679 33.6505C113.142 33.9677 109.859 35.1223 106.738 36.7917C106.61 36.8599 106.482 36.928 106.35 36.9983C104.292 38.1367 102.561 39.5712 100.902 41.2284C100.713 41.4173 100.524 41.6061 100.33 41.8006C98.2872 43.8895 96.5655 46.1762 95.5049 48.9159C95.1979 49.4725 94.9424 49.6403 94.3745 49.9342C93.8315 49.9866 93.3363 50.0074 92.7946 49.9977C92.5653 49.9969 92.5653 49.9969 92.3315 49.9962C91.8434 49.9939 91.3555 49.9873 90.8675 49.9808C90.5445 49.9791 90.2216 49.9776 89.8987 49.9764C88.4137 49.9678 86.935 49.935 85.4538 49.8213C84.563 49.7575 83.6706 49.7368 82.778 49.7105C81.5129 49.6704 80.2527 49.619 78.9904 49.5241C78.059 49.4686 77.1268 49.442 76.1942 49.4122C74.9145 49.3712 73.6392 49.3205 72.3622 49.2258C71.0832 49.1439 69.8014 49.1067 68.5207 49.058C66.7449 48.9893 64.9695 48.9119 63.1949 48.8157C61.9301 48.7474 60.665 48.6965 59.3992 48.6479C58.2354 48.6025 57.0727 48.5436 55.9097 48.4801C55.0402 48.4362 54.1705 48.4017 53.3005 48.3683C51.9675 48.317 50.6357 48.2542 49.3037 48.1819C47.9181 48.1098 46.5318 48.0538 45.1455 47.9954C41.9077 47.859 41.9077 47.859 40.3012 47.7717C39.0364 47.7035 37.7713 47.6526 36.5055 47.604C35.3417 47.5586 34.179 47.4997 33.016 47.4362C32.1465 47.3923 31.2768 47.3578 30.4068 47.3243C29.0812 47.2734 27.7569 47.2102 26.4322 47.1379C25.5627 47.094 24.693 47.0595 23.823 47.0261C22.49 46.9748 21.1582 46.912 19.8262 46.8396C18.4406 46.7675 17.0543 46.7116 15.668 46.6532C13.8247 46.5756 11.9821 46.4927 10.1398 46.3922C9.56387 46.3638 8.9883 46.3391 8.41206 46.3177C8.24451 46.3114 8.07697 46.3052 7.90435 46.2987C7.57631 46.2868 7.24826 46.2753 6.9202 46.2644C6.4942 46.2489 6.06842 46.2276 5.6427 46.2058C5.4583 46.2043 5.2739 46.2027 5.08392 46.2012C4.22055 45.9459 3.62 45.2476 3.17953 44.4849Z" fill="#48D8FE"/>
<path d="M88.389 49.9342C88.0556 48.8646 88.0485 47.871 88.0537 46.7633C88.0533 46.4658 88.0533 46.4657 88.0529 46.1622C88.0525 45.4982 88.0541 44.8341 88.0557 44.1701C88.0558 43.6939 88.0558 43.2176 88.0556 42.7414C88.0555 41.4486 88.0573 40.1558 88.0594 38.863C88.0612 37.5119 88.0614 36.1609 88.0618 34.8098C88.0626 32.5421 88.0645 30.2744 88.0671 28.0068C88.0699 25.6713 88.072 23.3358 88.0733 21.0003C88.0734 20.8563 88.0734 20.7123 88.0735 20.5639C88.0739 19.8414 88.0743 19.1189 88.0746 18.3964C88.0777 12.4048 88.083 6.41314 88.0897 0.421516C89.3189 -0.0154679 90.5451 0.0503558 91.8399 0.039359C92.1007 0.0319576 92.3616 0.0245562 92.6304 0.0169306C92.8805 0.014912 93.1305 0.0128934 93.3882 0.0108137C93.6168 0.00724519 93.8454 0.00367667 94.0809 0C94.6735 0.123247 94.6735 0.123247 95.1021 0.605604C95.2076 0.790927 95.313 0.976251 95.4217 1.16719C95.4963 1.29476 95.5708 1.42232 95.6477 1.55375C95.7095 1.67245 95.7713 1.79115 95.8349 1.91344C95.9068 2.04869 95.9786 2.18393 96.0526 2.32327C96.197 2.59831 96.3409 2.87366 96.484 3.14934C99.6593 9.10573 105.551 13.5406 111.964 15.5081C113.615 15.9815 115.256 16.2529 116.964 16.4232C117.719 16.5284 118.36 16.6829 119.064 16.9755C119.691 17.831 119.908 18.4552 119.812 19.5107C120.477 19.7651 121.023 19.845 121.734 19.8405C122.035 19.8398 122.035 19.8398 122.343 19.839C122.667 19.836 122.667 19.836 122.997 19.8329C123.219 19.8321 123.442 19.8313 123.672 19.8305C124.383 19.8279 125.095 19.8232 125.806 19.8183C126.518 19.8142 127.23 19.8105 127.942 19.8077C128.385 19.8059 128.828 19.8033 129.271 19.7998C129.573 19.7983 129.573 19.7983 129.88 19.7968C130.056 19.7956 130.233 19.7944 130.414 19.7931C131.375 19.8256 131.918 20.0551 132.582 20.7544C132.888 21.2454 132.915 21.5738 132.938 22.1497C132.947 22.3476 132.956 22.5455 132.964 22.7494C132.99 23.845 133.001 24.9395 132.998 26.0354C132.999 26.2634 132.999 26.4914 133 26.7263C133 26.9435 132.999 27.1608 132.999 27.3846C132.999 27.5804 132.999 27.7763 132.999 27.9781C132.966 28.7907 132.655 29.2781 132.063 29.8419C131.501 30.1782 131.101 30.1878 130.445 30.2094C130.193 30.2178 129.94 30.2262 129.679 30.2349C127.877 30.2675 126.075 30.2636 124.273 30.2578C123.867 30.257 123.462 30.2563 123.057 30.2557C122.075 30.2541 121.093 30.2515 120.111 30.2484C119.94 30.7337 119.811 31.1515 119.756 31.6652C119.644 32.2869 119.477 32.6045 119.064 33.082C118.262 33.5011 117.576 33.5951 116.679 33.6506C113.142 33.9678 109.859 35.1223 106.738 36.7917C106.546 36.894 106.546 36.894 106.35 36.9983C104.291 38.1367 102.56 39.5712 100.902 41.2285C100.713 41.4173 100.524 41.6061 100.329 41.8006C98.287 43.8896 96.5653 46.1762 95.5047 48.9159C95.2008 49.4669 94.9325 49.6394 94.3743 49.9342C93.7229 50.0019 93.7229 50.0019 92.9773 49.9925C92.7102 49.9905 92.443 49.9886 92.1678 49.9866C91.7508 49.9791 91.7508 49.9791 91.3255 49.9715C91.0412 49.9685 90.757 49.9658 90.4727 49.9633C89.7781 49.9563 89.0836 49.9465 88.389 49.9342Z" fill="#1C54BC"/>
<path d="M0.70456 14.1419C0.695823 13.5155 0.74045 13.023 0.932808 12.4252C1.0079 12.1892 1.00789 12.1892 1.0845 11.9485C1.16724 11.6968 1.16724 11.6968 1.25165 11.44C1.3086 11.2653 1.36554 11.0907 1.42421 10.9107C1.54524 10.5417 1.66704 10.1729 1.78954 9.8044C1.97506 9.24325 2.15524 8.68058 2.33532 8.11768C2.45384 7.75852 2.57268 7.39947 2.69186 7.04053C2.77096 6.78974 2.77096 6.78974 2.85166 6.53389C3.23337 5.41179 3.67523 4.76091 4.59499 4.00075C5.21281 3.85685 5.21281 3.85685 5.87622 3.86093C6.12562 3.85805 6.37502 3.85516 6.63198 3.85219C6.89796 3.852 7.16395 3.85181 7.438 3.85161C7.99937 3.82914 8.56025 3.80438 9.12136 3.77704C9.41282 3.76439 9.70429 3.75197 9.99577 3.73976C10.1414 3.73361 10.287 3.72746 10.4371 3.72112C10.732 3.70869 11.027 3.69626 11.322 3.68383C12.7959 3.62157 14.2695 3.55787 15.7426 3.47877C17.5105 3.38385 19.2792 3.31095 21.0481 3.23643C22.5157 3.17443 23.9831 3.11107 25.45 3.03137C26.7148 2.96311 27.9799 2.91224 29.2456 2.86359C30.1817 2.8271 31.117 2.78419 32.0525 2.7331C33.3111 2.66436 34.57 2.61372 35.8295 2.56532C36.7656 2.52883 37.7009 2.48592 38.6363 2.43483C39.7333 2.37492 40.8304 2.32789 41.9282 2.2857C43.2612 2.23441 44.593 2.17165 45.925 2.09928C47.458 2.01952 48.9919 1.95884 50.5256 1.89422C51.9933 1.83222 53.4606 1.76886 54.9275 1.68916C56.1923 1.6209 57.4574 1.57003 58.7231 1.52138C59.6592 1.48489 60.5945 1.44198 61.53 1.39089C62.7886 1.32215 64.0475 1.27151 65.307 1.22311C66.2431 1.18662 67.1784 1.14371 68.1138 1.09262C69.3724 1.02388 70.6313 0.973243 71.8908 0.924844C72.8269 0.888347 73.7622 0.845436 74.6976 0.794351C75.7946 0.73444 76.8917 0.687408 77.9895 0.645217C79.3205 0.594 80.6504 0.531686 81.9805 0.458799C82.8134 0.415814 83.6465 0.381232 84.4798 0.346948C85.6857 0.296914 86.8871 0.226824 88.0897 0.123246C88.2369 1.70597 88.2588 3.27227 88.2539 4.86118C88.2537 5.12325 88.2535 5.38533 88.2533 5.65534C88.2524 6.48642 88.2506 7.31748 88.2486 8.14855C88.2478 8.71451 88.2472 9.28046 88.2466 9.84641C88.245 11.2285 88.2425 12.6106 88.2393 13.9928C86.4305 14.1687 84.6262 14.1623 82.8108 14.1598C82.4561 14.1599 82.1014 14.16 81.7467 14.1602C80.7752 14.1605 79.8038 14.16 78.8323 14.1592C77.7835 14.1586 76.7347 14.1588 75.6858 14.1589C73.8697 14.159 72.0537 14.1585 70.2376 14.1577C67.6118 14.1565 64.9861 14.1561 62.3604 14.1559C58.1001 14.1556 53.8398 14.1546 49.5795 14.1531C45.4415 14.1518 41.3035 14.1507 37.1655 14.1501C36.7828 14.15 36.7828 14.15 36.3923 14.15C35.1123 14.1498 33.8323 14.1496 32.5523 14.1494C21.9364 14.1479 11.3205 14.1452 0.70456 14.1419Z" fill="#12B5FE"/>
<path d="M3.39811 44.8635C3.08272 44.2252 2.87072 43.5661 2.6593 42.8875C2.59789 42.7005 2.53648 42.5135 2.47321 42.3209C2.27932 41.7278 2.0905 41.1333 1.90179 40.5386C1.77061 40.1344 1.6391 39.7303 1.50725 39.3263C1.18604 38.3397 0.869372 37.3517 0.555102 36.3629C1.004 35.9155 1.004 35.9155 1.61815 35.8599C1.88252 35.8601 2.1469 35.8602 2.41928 35.8604C2.56684 35.8599 2.71439 35.8594 2.86641 35.8589C3.36566 35.8577 3.86485 35.8597 4.3641 35.8617C4.72369 35.8615 5.08329 35.8611 5.44289 35.8605C6.4348 35.8595 7.42669 35.8613 8.4186 35.8635C9.48683 35.8655 10.5551 35.8648 11.6233 35.8645C13.4753 35.8642 15.3274 35.8657 17.1794 35.8682C19.8572 35.8718 22.5349 35.873 25.2127 35.8735C29.5568 35.8745 33.9009 35.8775 38.2449 35.8817C42.4658 35.8858 46.6866 35.889 50.9074 35.8909C51.2974 35.8911 51.2974 35.8911 51.6953 35.8912C52.9996 35.8918 54.304 35.8924 55.6083 35.893C66.4355 35.8976 77.2627 35.9055 88.0898 35.9155C88.1146 36.2248 88.1392 36.5342 88.1636 36.8436C88.1773 37.0158 88.191 37.1881 88.2051 37.3656C88.246 37.9473 88.2564 38.5246 88.2541 39.1077C88.2536 39.333 88.2531 39.5583 88.2526 39.7905C88.2513 40.027 88.2501 40.2635 88.2488 40.5072C88.2483 40.755 88.2477 41.0027 88.2471 41.258C88.2453 42.0435 88.2425 42.829 88.2395 43.6145C88.2355 44.6542 88.2325 45.6939 88.2301 46.7336C88.2289 46.9731 88.2276 47.2126 88.2263 47.4594C88.2256 47.7903 88.2256 47.7903 88.2249 48.128C88.2237 48.4197 88.2237 48.4197 88.2225 48.7174C88.2174 49.1925 88.2174 49.1925 88.3891 49.6358C87.6374 49.9438 87.0536 49.9461 86.2475 49.8875C85.0909 49.8122 83.9361 49.7532 82.778 49.7105C81.4524 49.6598 80.1279 49.5963 78.8033 49.524C77.9338 49.4801 77.0642 49.4456 76.1942 49.4122C74.8612 49.3609 73.5293 49.2981 72.1973 49.2257C70.8117 49.1536 69.4253 49.0977 68.0391 49.0393C64.8013 48.9029 64.8014 48.903 63.1949 48.8157C61.9301 48.7474 60.665 48.6965 59.3992 48.6479C58.2354 48.6025 57.0727 48.5436 55.9097 48.4801C55.0402 48.4362 54.1705 48.4017 53.3005 48.3683C51.9675 48.317 50.6357 48.2542 49.3037 48.1819C47.9181 48.1098 46.5318 48.0538 45.1455 47.9954C41.9077 47.859 41.9077 47.859 40.3012 47.7717C39.0364 47.7035 37.7713 47.6526 36.5055 47.604C35.3417 47.5586 34.179 47.4997 33.016 47.4362C32.1465 47.3923 31.2768 47.3578 30.4068 47.3243C29.0812 47.2734 27.7569 47.2102 26.4322 47.1379C25.5627 47.094 24.693 47.0595 23.823 47.0261C22.49 46.9748 21.1582 46.912 19.8262 46.8396C18.4406 46.7675 17.0543 46.7116 15.668 46.6532C13.8247 46.5756 11.9821 46.4927 10.1398 46.3922C9.56387 46.3638 8.9883 46.3391 8.41206 46.3177C8.24451 46.3114 8.07697 46.3052 7.90435 46.2987C7.57631 46.2868 7.24826 46.2753 6.9202 46.2644C6.4942 46.2489 6.06842 46.2276 5.6427 46.2058C5.4583 46.2043 5.2739 46.2027 5.08392 46.2012C4.3257 45.977 3.86848 45.4727 3.39811 44.8635Z" fill="#7AE3FE"/>
<path d="M88.389 49.9342C88.0556 48.8646 88.0485 47.871 88.0537 46.7633C88.0533 46.4658 88.0533 46.4657 88.0529 46.1622C88.0525 45.4982 88.0541 44.8341 88.0557 44.1701C88.0558 43.6939 88.0558 43.2176 88.0556 42.7414C88.0555 41.4486 88.0573 40.1558 88.0594 38.863C88.0612 37.5119 88.0614 36.1609 88.0618 34.8098C88.0626 32.5421 88.0645 30.2744 88.0671 28.0068C88.0699 25.6713 88.072 23.3358 88.0733 21.0003C88.0734 20.8563 88.0734 20.7123 88.0735 20.5639C88.0739 19.8414 88.0743 19.1189 88.0746 18.3964C88.0777 12.4048 88.083 6.41314 88.0897 0.421516C89.3189 -0.0154679 90.5451 0.0503558 91.8399 0.039359C92.1007 0.0319576 92.3616 0.0245562 92.6304 0.0169306C92.8805 0.014912 93.1305 0.0128934 93.3882 0.0108137C93.6168 0.00724519 93.8454 0.00367667 94.0809 0C94.6735 0.123247 94.6735 0.123247 95.1021 0.605604C95.2076 0.790927 95.313 0.976251 95.4217 1.16719C95.4963 1.29476 95.5708 1.42232 95.6477 1.55375C95.7095 1.67245 95.7713 1.79115 95.8349 1.91344C95.9068 2.04869 95.9786 2.18393 96.0526 2.32327C96.197 2.59831 96.3409 2.87366 96.484 3.14934C99.6593 9.10573 105.551 13.5406 111.964 15.5081C113.615 15.9815 115.256 16.2529 116.964 16.4232C118.82 16.6817 118.82 16.6817 119.52 17.5265C119.918 18.6072 119.885 19.5465 119.83 20.6852C119.824 21.0012 119.824 21.0012 119.817 21.3236C119.773 22.4855 119.773 22.4855 119.662 22.9408C118.799 23.6578 117.71 23.4085 116.657 23.3317C112.389 22.9284 108.294 21.3491 104.699 19.0633C104.497 18.9351 104.295 18.8069 104.087 18.6748C100.493 16.2088 97.6832 12.6499 95.6425 8.85109C95.329 8.20547 95.329 8.20547 94.9727 7.87822C94.9692 13.2372 94.9665 18.5963 94.9649 23.9553C94.9641 26.4434 94.9631 28.9315 94.9614 31.4197C94.9599 33.5876 94.9589 35.7556 94.9586 37.9236C94.9584 39.0721 94.9579 40.2207 94.9568 41.3692C94.9558 42.4492 94.9555 43.5292 94.9557 44.6092C94.9557 45.0065 94.9554 45.4038 94.9548 45.8012C94.9541 46.3418 94.9543 46.8823 94.9547 47.4229C94.9542 47.5818 94.9538 47.7406 94.9533 47.9043C94.949 48.7079 94.949 48.7079 95.1223 49.4868C94.4322 50.0169 93.8445 49.986 92.9918 49.9779C92.7242 49.9764 92.4565 49.975 92.1808 49.9735C91.9016 49.9698 91.6224 49.966 91.3347 49.9621C91.0498 49.9599 90.7648 49.9579 90.4799 49.956C89.7828 49.9507 89.086 49.9434 88.389 49.9342Z" fill="#123A90"/>
<path d="M2.35054 9.22047C2.23375 7.76054 2.98128 5.559 3.88427 4.41088C5.0223 3.75421 6.14699 3.85254 7.438 3.85161C7.99937 3.82914 8.56025 3.80438 9.12136 3.77704C9.41282 3.76439 9.70429 3.75197 9.99577 3.73976C10.1414 3.73361 10.287 3.72746 10.4371 3.72112C10.732 3.70869 11.027 3.69626 11.322 3.68383C12.7959 3.62157 14.2695 3.55787 15.7426 3.47877C17.5105 3.38385 19.2792 3.31095 21.0481 3.23643C22.5157 3.17443 23.9831 3.11107 25.45 3.03137C26.7148 2.96311 27.9799 2.91224 29.2456 2.86359C30.1817 2.8271 31.117 2.78419 32.0525 2.7331C33.3111 2.66436 34.57 2.61372 35.8295 2.56532C36.7656 2.52883 37.7009 2.48592 38.6363 2.43483C39.7333 2.37492 40.8304 2.32789 41.9282 2.2857C43.2612 2.23441 44.593 2.17165 45.925 2.09928C47.458 2.01952 48.9919 1.95884 50.5256 1.89422C51.9933 1.83222 53.4606 1.76886 54.9275 1.68916C56.1923 1.6209 57.4574 1.57003 58.7231 1.52138C59.6592 1.48489 60.5945 1.44198 61.53 1.39089C62.7886 1.32215 64.0475 1.27151 65.307 1.22311C66.2431 1.18662 67.1784 1.14371 68.1138 1.09262C69.3724 1.02388 70.6313 0.973243 71.8908 0.924844C72.8269 0.888347 73.7622 0.845436 74.6976 0.794351C75.7946 0.73444 76.8917 0.687408 77.9895 0.645217C79.3205 0.594 80.6504 0.531686 81.9805 0.458799C82.8134 0.415814 83.6465 0.381232 84.4798 0.346948C85.6857 0.296914 86.8871 0.226824 88.0897 0.123246C88.2224 1.60211 88.2667 3.06623 88.2674 4.55069C88.2692 4.76706 88.271 4.98343 88.2729 5.20636C88.2732 5.41196 88.2735 5.61757 88.2738 5.8294C88.2747 6.10845 88.2747 6.10845 88.2757 6.39314C88.2393 6.83431 88.2393 6.83431 87.9401 7.13258C87.6669 7.10029 87.6669 7.10029 87.3883 7.06734C86.7478 6.99975 86.244 6.99627 85.6114 7.0487C84.5891 7.12976 83.5779 7.13964 82.5533 7.13258C81.5763 7.12651 80.6101 7.12839 79.6355 7.20715C78.5034 7.29863 77.3772 7.28576 76.2425 7.27881C75.4239 7.27573 74.6164 7.2903 73.7998 7.35629C72.6678 7.44777 71.5416 7.4349 70.4068 7.42794C69.5882 7.42486 68.7807 7.43943 67.9642 7.50542C66.9896 7.58418 66.0233 7.58597 65.0464 7.57999C64.0756 7.57404 63.1156 7.57505 62.1472 7.65455C60.9457 7.75187 59.7478 7.73299 58.5434 7.72621C57.5103 7.72264 56.4939 7.76108 55.4641 7.84563C54.51 7.89815 53.5564 7.88121 52.6012 7.87534C51.6009 7.87158 50.6163 7.91436 49.6191 7.99477C48.7319 8.04438 47.8453 8.03046 46.9571 8.02448C46.1805 8.02128 45.4142 8.03956 44.6403 8.10196C43.6594 8.18 42.6869 8.18256 41.7038 8.17653C40.7268 8.17054 39.7606 8.17233 38.7859 8.25109C37.8113 8.32985 36.8451 8.33165 35.8681 8.32566C34.8973 8.31972 33.9373 8.32072 32.969 8.40023C31.7675 8.49754 30.5695 8.47866 29.3651 8.47188C28.3321 8.46831 27.3157 8.50675 26.2858 8.59131C25.3316 8.64383 24.3777 8.62687 23.4223 8.62102C22.6037 8.61794 21.7963 8.63251 20.9797 8.6985C19.8477 8.78998 18.7215 8.77711 17.5867 8.77015C16.7681 8.76707 15.9606 8.78165 15.1441 8.84763C14.0122 8.9391 12.8863 8.92625 11.7517 8.91929C10.7514 8.91552 9.76682 8.9583 8.76952 9.03871C8.0261 9.08029 7.28448 9.07635 6.54024 9.07133C5.23523 9.06413 3.94992 9.11561 2.64981 9.22047C2.55105 9.22047 2.45229 9.22047 2.35054 9.22047Z" fill="#2C99E9"/>
<path d="M88.3891 6.98345C88.0818 6.22564 88.0552 5.57529 88.0606 4.76158C88.0616 4.50878 88.0626 4.25598 88.0636 3.99552C88.0661 3.73272 88.0686 3.46992 88.0712 3.19916C88.0725 2.9329 88.0739 2.66665 88.0753 2.39232C88.0788 1.73537 88.0835 1.07845 88.0897 0.421516C89.2917 -0.0530184 90.5658 0.0501803 91.8399 0.039359C92.1007 0.0319576 92.3616 0.0245562 92.6304 0.0169306C92.8805 0.014912 93.1305 0.0128934 93.3882 0.0108137C93.6168 0.00724519 93.8454 0.00367667 94.0809 0C94.6735 0.123247 94.6735 0.123247 95.1021 0.605604C95.2076 0.790927 95.3133 0.976228 95.4219 1.16717C95.4965 1.29473 95.5708 1.42232 95.6477 1.55375C95.7095 1.67245 95.7715 1.79113 95.8351 1.91342C95.907 2.04867 95.9786 2.18393 96.0526 2.32327C96.197 2.59831 96.3411 2.87363 96.4842 3.14932C99.6595 9.10571 105.551 13.5406 111.964 15.5081C113.616 15.9815 115.256 16.2529 116.964 16.4232C118.82 16.6817 118.82 16.6817 119.521 17.5266C119.918 18.6072 119.886 19.5465 119.831 20.6852C119.826 20.8959 119.822 21.1066 119.818 21.3237C119.773 22.4855 119.773 22.4855 119.662 22.9409C118.799 23.6578 117.71 23.4086 116.657 23.3318C112.39 22.9284 108.294 21.3491 104.699 19.0634C104.497 18.9351 104.295 18.8069 104.087 18.6748C100.408 16.1509 97.5496 12.4959 95.5147 8.57951C95.1624 7.99405 94.8389 7.49057 94.3744 6.98345C93.7122 6.81989 93.7122 6.81989 92.9775 6.86694C92.5767 6.87271 92.5767 6.87271 92.1679 6.87859C91.89 6.88859 91.612 6.89859 91.3257 6.90889C91.0414 6.91487 90.7572 6.92032 90.4729 6.9252C89.778 6.93926 89.0837 6.95888 88.3891 6.98345Z" fill="#12398F"/>
<path d="M119.812 30.2484C119.569 29.6097 119.476 29.0849 119.478 28.4032C119.478 28.2182 119.478 28.0331 119.478 27.8424C119.48 27.6448 119.482 27.4472 119.483 27.2435C119.484 26.9376 119.484 26.9376 119.484 26.6255C119.486 25.9751 119.49 25.3248 119.494 24.6745C119.495 24.2331 119.497 23.7917 119.498 23.3503C119.501 22.2693 119.506 21.1883 119.512 20.1072C120.186 19.8492 120.742 19.7719 121.462 19.7727C121.669 19.7723 121.876 19.7718 122.09 19.7713C122.312 19.7724 122.534 19.7735 122.763 19.7746C122.992 19.7747 123.222 19.7747 123.458 19.7748C123.943 19.7752 124.427 19.7764 124.912 19.7783C125.654 19.781 126.397 19.7813 127.139 19.7813C127.61 19.782 128.081 19.7829 128.552 19.7839C128.885 19.7842 128.885 19.7842 129.226 19.7844C129.432 19.7854 129.639 19.7863 129.852 19.7873C130.034 19.7879 130.216 19.7884 130.403 19.789C131.367 19.8289 131.914 20.0503 132.582 20.7544C132.888 21.2454 132.915 21.5738 132.938 22.1497C132.951 22.4466 132.951 22.4466 132.964 22.7494C132.99 23.845 133.001 24.9395 132.998 26.0354C132.999 26.2634 132.999 26.4914 133 26.7263C133 26.9435 132.999 27.1608 132.999 27.3846C132.999 27.5804 132.999 27.7763 132.999 27.9781C132.966 28.7908 132.655 29.2784 132.063 29.8419C131.502 30.1771 131.108 30.1877 130.455 30.2093C130.202 30.2178 129.949 30.2262 129.689 30.2348C127.834 30.2682 125.978 30.2635 124.123 30.2577C123.703 30.2569 123.284 30.2563 122.864 30.2557C121.847 30.254 120.829 30.2515 119.812 30.2484Z" fill="__TOOL_COLOR__"/>
<path d="M88.3888 6.98337C88.0815 6.22556 88.0549 5.57521 88.0604 4.7615C88.0613 4.5087 88.0623 4.2559 88.0633 3.99543C88.0658 3.73264 88.0683 3.46984 88.0709 3.19908C88.0722 2.93282 88.0736 2.66656 88.075 2.39224C88.0785 1.73529 88.0835 1.07845 88.0897 0.421516C88.85 0.115212 89.5024 0.0885886 90.3189 0.0940497C90.5725 0.0950109 90.8262 0.0959722 91.0875 0.0969625C91.3512 0.0994617 91.6148 0.101961 91.8865 0.104536C92.1536 0.105881 92.4208 0.107227 92.696 0.108614C93.3552 0.112127 94.0143 0.117033 94.6734 0.123178C94.9807 0.880991 95.0074 1.53134 95.0019 2.34505C95.0009 2.59785 94.9999 2.85065 94.999 3.11111C94.9964 3.37391 94.9939 3.63671 94.9914 3.90747C94.99 4.17373 94.9887 4.43998 94.9873 4.71431C94.9837 5.37126 94.9788 6.02817 94.9727 6.6851C94.2123 6.9914 93.5598 7.01796 92.7434 7.0125C92.4897 7.01154 92.2361 7.01057 91.9748 7.00958C91.7111 7.00708 91.4474 7.00459 91.1757 7.00201C90.9086 7.00067 90.6415 6.99932 90.3662 6.99793C89.7071 6.99442 89.048 6.98951 88.3888 6.98337Z" fill="#071F62"/>
</svg>
