<svg width="112" height="30" viewBox="0 0 112 30" fill="none" xmlns="http://www.w3.org/2000/svg">
<path d="M1.21417 28.6644C1.00292 28.4607 1.00292 28.4607 0.787394 28.2529C-0.091795 26.994 0.0114464 25.4156 0.015463 23.9357C0.0146271 23.7188 0.0137911 23.5018 0.0129298 23.2783C0.0107587 22.6876 0.0108861 22.097 0.0115835 21.5063C0.0119619 21.0116 0.011215 20.5168 0.0104814 20.0221C0.0087753 18.8544 0.00895785 17.6867 0.0103483 16.5191C0.0117475 15.3176 0.0100296 14.1162 0.00676739 12.9148C0.00406328 11.8798 0.00326335 10.8449 0.00397726 9.80993C0.0043864 9.19328 0.00410109 8.57666 0.001997 7.96002C-0.000247533 7.27233 0.00148027 6.58467 0.00356839 5.89698C0.00180204 5.59359 0.00180204 5.59359 0 5.28407C0.00834099 3.97002 0.100699 2.85227 0.894446 1.75628C1.02257 1.6304 1.15068 1.50451 1.28269 1.37482C1.40829 1.24642 1.5339 1.11802 1.66331 0.98573C2.70498 0.228032 3.83376 0.0817903 5.09209 0.0962532C5.2353 0.0959221 5.37851 0.0955922 5.52605 0.0952511C6.00205 0.0947361 6.47796 0.0976956 6.95395 0.100656C7.2968 0.100994 7.63965 0.101116 7.9825 0.101036C8.91113 0.101417 9.83972 0.104785 10.7683 0.108662C11.7419 0.112178 12.7154 0.112817 13.6889 0.113732C15.5334 0.115878 17.3778 0.120407 19.2223 0.125887C21.9264 0.133837 24.6305 0.138721 27.3346 0.142986C27.5333 0.143299 27.732 0.143612 27.9367 0.143936C28.3331 0.144558 28.7294 0.14517 29.1258 0.145776C30.2834 0.147633 31.4411 0.150359 32.5987 0.153841C33.3202 0.155925 34.0417 0.157524 34.7632 0.159026C35.0966 0.159836 35.4299 0.160862 35.7632 0.162129C37.8899 0.170948 37.8899 0.17095 40.0127 0.0602157C41.2749 -0.012261 42.5429 0.0140732 43.8067 0.0143513C44.1394 0.0139856 44.4721 0.013572 44.8047 0.0131108C45.7036 0.0120376 46.6024 0.0117435 47.5012 0.0116654C48.063 0.0115784 48.6247 0.011318 49.1865 0.0109949C51.1467 0.0098679 53.1069 0.00936756 55.0671 0.00946383C56.8943 0.00953735 58.7215 0.00824727 60.5487 0.0063235C62.1188 0.00472924 63.689 0.00406988 65.2592 0.00414799C66.1964 0.00417913 67.1337 0.00382908 68.071 0.00253871C68.951 0.00135992 69.8311 0.00134482 70.7112 0.00223511C71.0344 0.00236309 71.3575 0.00207323 71.6807 0.00133734C72.1212 0.000399119 72.5617 0.000960152 73.0022 0.00190357C73.1305 0.00127571 73.2589 0.000646887 73.3912 0C74.3458 0.00453061 74.9787 0.0930851 75.6726 0.764484C76.5186 1.655 76.4507 2.77556 76.5557 3.93822C77.086 3.94156 77.6163 3.94396 78.1467 3.94585C78.294 3.94687 78.4414 3.9479 78.5932 3.94895C79.3424 3.95094 80.0834 3.93528 80.8306 3.87862C82.0186 3.7917 83.2058 3.78899 84.3966 3.78564C84.7364 3.78186 84.7364 3.78186 85.0832 3.77801C85.3022 3.77738 85.5212 3.77675 85.7469 3.7761C85.9438 3.77496 86.1408 3.77382 86.3437 3.77265C87.1426 3.83416 87.7791 4.01362 88.4236 4.49515C89.0043 5.27572 89.0143 6.16595 88.9794 7.11196C89.5478 7.33468 90.0141 7.38377 90.6227 7.37606C90.895 7.37367 90.895 7.37367 91.1727 7.37123C91.3684 7.36844 91.564 7.36565 91.7655 7.36277C92.1839 7.35968 92.6023 7.35666 93.0207 7.35371C93.677 7.34769 94.3333 7.3409 94.9896 7.33267C99.7099 7.2772 99.7099 7.2772 101.89 7.84436C102.105 7.89791 102.105 7.89791 102.323 7.95254C102.672 8.0472 103.011 8.15369 103.352 8.2716C103.53 8.33209 103.53 8.33209 103.712 8.39381C106.241 9.29579 108.259 10.7586 110.165 12.6279C110.33 12.7837 110.494 12.9396 110.664 13.1001C110.819 13.2532 110.975 13.4062 111.135 13.5639C111.278 13.7019 111.42 13.8399 111.567 13.9821C111.982 14.5875 111.983 14.9362 111.878 15.6566C111.594 16.095 111.594 16.095 111.195 16.4944C111.049 16.6422 110.903 16.79 110.752 16.9423C110.594 17.0946 110.435 17.2468 110.272 17.4037C110.03 17.6399 110.03 17.6399 109.783 17.8809C106.019 21.474 101.443 22.6712 96.3093 22.6383C96.1015 22.6379 95.8938 22.6376 95.6797 22.6372C95.0246 22.6359 94.3695 22.6328 93.7144 22.6297C93.2666 22.6285 92.8189 22.6274 92.3712 22.6264C91.2812 22.6237 90.1912 22.6196 89.1012 22.6145C89.0901 22.7757 89.0901 22.7757 89.0788 22.9401C89.0686 23.0819 89.0584 23.2237 89.0479 23.3697C89.033 23.58 89.033 23.58 89.0179 23.7946C88.9519 24.4907 88.8598 24.8839 88.378 25.3838C88.2915 25.4775 88.2049 25.5711 88.1158 25.6675C87.0398 26.4043 85.4779 26.1856 84.2396 26.1782C84.0196 26.1779 83.7997 26.1775 83.573 26.1772C82.9919 26.1761 82.4109 26.1739 81.8298 26.1712C81.2354 26.1686 80.6409 26.1675 80.0465 26.1663C78.8829 26.1636 77.7193 26.1595 76.5557 26.1544C76.5409 26.2693 76.5261 26.3841 76.5109 26.5025C76.4803 26.7305 76.4803 26.7305 76.4491 26.9631C76.4194 27.1882 76.4194 27.1882 76.3891 27.418C76.227 28.355 75.9669 28.8365 75.2159 29.4502C74.002 29.9004 72.8179 29.8663 71.5354 29.8596C71.2974 29.8597 71.0594 29.8599 70.8214 29.8603C70.1697 29.8609 69.518 29.8592 68.8663 29.8571C68.1626 29.8553 67.4588 29.8556 66.7551 29.8556C65.5361 29.8554 64.3171 29.8538 63.0982 29.8514C61.3338 29.8479 59.5694 29.8465 57.805 29.8457C54.9396 29.8443 52.0742 29.8413 49.2089 29.8373C46.4303 29.8334 43.6517 29.83 40.8731 29.8273C40.702 29.8271 40.531 29.827 40.3547 29.8268C38.4861 29.825 36.6175 29.8234 34.7489 29.822C34.5846 29.8219 34.4202 29.8217 34.2509 29.8216C33.5937 29.8211 32.9365 29.8206 32.2793 29.8202C30.3574 29.8188 28.4355 29.8169 26.5136 29.814C25.3075 29.8122 24.1015 29.8108 22.8955 29.8097C22.2001 29.809 21.5047 29.8082 20.8093 29.8068C20.1719 29.8055 19.5345 29.8048 18.897 29.8045C18.559 29.8042 18.2211 29.8033 17.8831 29.8023C16.8146 29.8024 15.7562 29.8271 14.6908 29.9104C14.1761 29.9489 13.6632 29.9567 13.1472 29.9601C12.9375 29.9616 12.7278 29.9632 12.5117 29.9648C12.181 29.9662 12.181 29.9662 11.8437 29.9675C11.7289 29.968 11.6142 29.9685 11.4959 29.9691C10.8901 29.9716 10.2843 29.9733 9.67842 29.9745C9.0572 29.9758 8.43603 29.9801 7.81484 29.9849C7.33237 29.9881 6.84992 29.9891 6.36744 29.9895C6.02823 29.9904 5.68903 29.9936 5.34984 29.9969C3.71588 29.9941 2.42234 29.8779 1.21417 28.6644Z" fill="#355A59"/>
<path d="M13.7061 15.1684C13.4451 14.4567 13.4298 13.8041 13.4349 13.053C13.4348 12.9148 13.4348 12.7766 13.4348 12.6342C13.4349 12.1785 13.4368 11.7227 13.4387 11.267C13.4392 10.9506 13.4395 10.6342 13.4398 10.3178C13.4407 9.48576 13.4431 8.65377 13.4458 7.82177C13.4483 6.97246 13.4494 6.12314 13.4506 5.27382C13.4532 3.60796 13.4574 1.9421 13.4625 0.276235C14.7664 0.154688 16.0568 0.138361 17.3658 0.142248C17.5959 0.142483 17.8259 0.142661 18.056 0.142788C18.5485 0.143172 19.041 0.143934 19.5336 0.144993C20.3139 0.146655 21.0943 0.147364 21.8747 0.147938C23.6722 0.149403 25.4696 0.152095 27.2671 0.154802C28.915 0.157271 30.5629 0.159478 32.2107 0.160689C32.9849 0.161294 33.759 0.162492 34.5332 0.164159C35.0166 0.165077 35.5 0.165477 35.9834 0.165743C36.311 0.166076 36.6385 0.167025 36.966 0.168C37.8237 0.168037 38.6741 0.161534 39.5293 0.0934983C40.9522 -0.0132518 42.3807 0.0140375 43.8067 0.0143513C44.1394 0.0139856 44.4721 0.013572 44.8047 0.0131108C45.7036 0.0120376 46.6024 0.0117435 47.5012 0.0116654C48.063 0.0115784 48.6247 0.011318 49.1865 0.0109949C51.1467 0.0098679 53.1069 0.00936756 55.0671 0.00946383C56.8943 0.00953735 58.7215 0.00824727 60.5487 0.0063235C62.1188 0.00472924 63.689 0.00406988 65.2592 0.00414799C66.1964 0.00417913 67.1337 0.00382908 68.071 0.00253871C68.951 0.00135992 69.8311 0.00134482 70.7112 0.00223511C71.0344 0.00236309 71.3575 0.00207323 71.6807 0.00133734C72.1212 0.000399119 72.5617 0.000960152 73.0022 0.00190357C73.1947 0.000961782 73.1947 0.000960814 73.3912 0C74.3458 0.00453061 74.9787 0.0930851 75.6726 0.764484C75.7649 0.850084 75.857 0.935701 75.9521 1.02389C76.595 1.97234 76.4441 3.19117 76.3884 4.28203C76.2969 6.48469 76.2981 8.68421 76.3042 10.8884C76.3048 11.2828 76.3054 11.6772 76.3059 12.0717C76.3072 13.0225 76.3092 13.9734 76.3118 14.9243C75.7013 15.1693 75.1799 15.1988 74.5247 15.1984C74.3078 15.1989 74.0908 15.1994 73.8672 15.1999C73.6262 15.1992 73.3851 15.1985 73.1441 15.1977C72.8882 15.1979 72.6324 15.1981 72.3765 15.1984C71.6727 15.1989 70.9689 15.1979 70.2651 15.1967C69.5064 15.1957 68.7477 15.196 67.989 15.1962C66.6742 15.1963 65.3595 15.1956 64.0448 15.1942C62.1438 15.1922 60.2429 15.1916 58.342 15.1913C55.258 15.1907 52.174 15.1891 49.0901 15.1868C46.094 15.1846 43.0979 15.1828 40.1018 15.1818C39.9171 15.1817 39.7325 15.1817 39.5423 15.1816C38.6161 15.1813 37.6899 15.181 36.7637 15.1807C29.0778 15.1781 21.392 15.1738 13.7061 15.1684Z" fill="#304241"/>
<path d="M1.21417 28.6644C1.00292 28.4607 1.00292 28.4607 0.787394 28.2529C-0.091795 26.994 0.0114464 25.4156 0.015463 23.9357C0.0142091 23.6103 0.0142091 23.6103 0.0129298 23.2783C0.0107587 22.6876 0.0108861 22.097 0.0115835 21.5063C0.0119619 21.0116 0.011215 20.5168 0.0104814 20.0221C0.0087753 18.8544 0.00895785 17.6867 0.0103483 16.5191C0.0117475 15.3176 0.0100296 14.1162 0.00676739 12.9148C0.00406328 11.8798 0.00326335 10.8449 0.00397726 9.80993C0.0043864 9.19328 0.00410109 8.57666 0.001997 7.96002C-0.000247533 7.27233 0.00148027 6.58467 0.00356839 5.89698C0.00239082 5.69472 0.00121325 5.49246 0 5.28407C0.00834099 3.97002 0.100699 2.85227 0.894446 1.75628C1.02257 1.6304 1.15068 1.50451 1.28269 1.37482C1.4711 1.18222 1.4711 1.18222 1.66331 0.98573C2.95689 0.0447974 4.33542 0.0876103 5.8707 0.106429C6.08491 0.10712 6.29912 0.107811 6.51982 0.108522C7.08451 0.110781 7.64913 0.115154 8.21379 0.120585C8.79191 0.125613 9.37004 0.127817 9.94817 0.13027C11.079 0.135636 12.2097 0.143794 13.3405 0.154111C13.6061 0.801329 13.6142 1.37227 13.6134 2.06824C13.6136 2.18651 13.6138 2.30477 13.614 2.42662C13.6144 2.82246 13.6131 3.21828 13.6118 3.61412C13.6117 3.89805 13.6117 4.18197 13.6119 4.4659C13.612 5.23657 13.6105 6.00723 13.6088 6.7779C13.6073 7.58334 13.6072 8.38878 13.6069 9.19423C13.6061 10.7194 13.6041 12.2446 13.6017 13.7697C13.5989 15.5061 13.5976 17.2425 13.5964 18.9789C13.5938 22.5507 13.5895 26.1225 13.5841 29.6943C13.0121 29.8971 12.5527 29.9703 11.9438 29.9739C11.673 29.9762 11.673 29.9762 11.3967 29.9786C11.2025 29.9789 11.0084 29.9791 10.8084 29.9794C10.6074 29.9802 10.4065 29.9811 10.1994 29.9819C9.77411 29.9831 9.34881 29.9837 8.92351 29.9837C8.27555 29.9842 7.62769 29.9886 6.97975 29.9933C6.56598 29.994 6.1522 29.9945 5.73843 29.9947C5.44946 29.9973 5.44946 29.9973 5.15465 30C3.59979 29.9936 2.3595 29.8148 1.21417 28.6644Z" fill="#304241"/>
<path d="M88.8574 22.6145C88.7012 21.0564 88.7202 19.4993 88.7237 17.9354C88.7239 17.6366 88.7241 17.3378 88.7242 17.0391C88.7247 16.2574 88.7259 15.4758 88.7272 14.6942C88.7285 13.8947 88.729 13.0952 88.7296 12.2958C88.7309 10.7306 88.733 9.16541 88.7356 7.60024C89.3076 7.37688 89.7889 7.32413 90.4013 7.32064C90.6809 7.31831 90.6809 7.31831 90.9661 7.31592C91.167 7.31565 91.368 7.31538 91.5751 7.3151C91.7839 7.31429 91.9928 7.31347 92.2081 7.31264C92.6512 7.3114 93.0943 7.31083 93.5374 7.31087C94.2073 7.31034 94.8771 7.30592 95.5469 7.30127C97.7102 7.29419 99.7867 7.29703 101.89 7.84436C102.033 7.88002 102.176 7.9158 102.323 7.95254C102.672 8.0472 103.011 8.15369 103.352 8.2716C103.471 8.31193 103.59 8.35226 103.712 8.39381C106.241 9.29579 108.259 10.7586 110.165 12.6279C110.33 12.7837 110.494 12.9396 110.664 13.1001C110.819 13.2532 110.975 13.4062 111.135 13.5639C111.278 13.7019 111.42 13.8399 111.567 13.9821C111.982 14.5875 111.983 14.9362 111.878 15.6566C111.594 16.095 111.594 16.095 111.195 16.4944C111.049 16.6422 110.903 16.79 110.752 16.9423C110.594 17.0946 110.435 17.2468 110.272 17.4037C110.11 17.5612 109.949 17.7187 109.783 17.8809C106 21.4915 101.412 22.6705 96.2558 22.6383C96.0427 22.638 95.8295 22.6376 95.6098 22.6373C94.9373 22.6359 94.2649 22.6328 93.5924 22.6297C93.1329 22.6284 92.6735 22.6274 92.214 22.6264C91.0951 22.6237 89.9763 22.6196 88.8574 22.6145Z" fill="#F8A1C4"/>
<path d="M1.21417 28.6644C1.00292 28.4607 1.00292 28.4607 0.787394 28.2529C-0.156332 26.9016 0.0154182 25.178 0.028534 23.5962C0.0292169 23.3521 0.0297364 23.1081 0.0301007 22.8641C0.0314848 22.2269 0.0350648 21.5898 0.0391276 20.9527C0.0428896 20.3005 0.0445396 19.6483 0.0463759 18.996C0.0502752 17.7201 0.0564981 16.4442 0.0642179 15.1683C1.49624 15.0296 2.92298 15.0306 4.36008 15.0343C4.61997 15.0346 4.87987 15.0347 5.13976 15.0349C5.81875 15.0353 6.49774 15.0365 7.17673 15.0379C7.87161 15.0391 8.5665 15.0397 9.26138 15.0403C10.6211 15.0416 11.9808 15.0437 13.3405 15.0463C13.6337 15.7328 13.6168 16.4062 13.6118 17.1392C13.6118 17.2751 13.6118 17.4109 13.6119 17.5508C13.6117 17.9986 13.6098 18.4464 13.6079 18.8942C13.6075 19.2052 13.6071 19.5161 13.6069 19.8271C13.6059 20.6446 13.6035 21.4622 13.6008 22.2797C13.5984 23.1143 13.5972 23.9489 13.596 24.7835C13.5934 26.4204 13.5892 28.0574 13.5841 29.6943C13.0201 29.9133 12.5472 29.9703 11.9438 29.9739C11.673 29.9762 11.673 29.9762 11.3967 29.9786C11.2025 29.9789 11.0084 29.9791 10.8084 29.9794C10.6074 29.9802 10.4065 29.9811 10.1994 29.9819C9.77411 29.9831 9.34881 29.9837 8.92351 29.9837C8.27555 29.9842 7.62769 29.9886 6.97975 29.9933C6.56598 29.994 6.1522 29.9945 5.73843 29.9947C5.44946 29.9973 5.44946 29.9973 5.15465 30C3.59979 29.9936 2.3595 29.8148 1.21417 28.6644Z" fill="#355A59"/>
<path d="M88.8574 22.6145C88.7681 21.6043 88.7184 20.6049 88.7237 19.5909C88.7238 19.4631 88.724 19.3353 88.7242 19.2036C88.7249 18.802 88.7264 18.4004 88.728 17.9988C88.7286 17.7238 88.7291 17.4487 88.7296 17.1737C88.731 16.5052 88.7331 15.8368 88.7356 15.1684C89.9808 15.0549 91.2127 15.0282 92.4627 15.0286C92.6716 15.0282 92.8806 15.0278 93.0958 15.0273C93.664 15.0264 94.2321 15.026 94.8002 15.0259C95.1554 15.0258 95.5106 15.0255 95.8657 15.0252C97.1051 15.0241 98.3445 15.0236 99.5839 15.0237C100.739 15.0238 101.895 15.0225 103.05 15.0206C104.043 15.019 105.037 15.0183 106.03 15.0184C106.623 15.0184 107.216 15.0181 107.809 15.0168C108.468 15.0154 109.127 15.0159 109.786 15.0167C109.983 15.016 110.18 15.0153 110.383 15.0146C110.561 15.0151 110.74 15.0156 110.923 15.0161C111.157 15.016 111.157 15.016 111.396 15.0159C111.756 15.0463 111.756 15.0463 112 15.2904C111.349 17.2478 108.185 19.5286 106.41 20.4835C103.158 22.094 99.8746 22.6609 96.2558 22.6383C96.0427 22.638 95.8295 22.6376 95.6098 22.6373C94.9373 22.6359 94.2649 22.6328 93.5924 22.6297C93.1329 22.6284 92.6735 22.6274 92.214 22.6264C91.0951 22.6237 89.9763 22.6196 88.8574 22.6145Z" fill="#F8A1C4"/>
<path d="M76.3116 26.1544C76.1962 24.8942 76.1738 23.6483 76.1779 22.3832C76.1781 22.1795 76.1782 21.9759 76.1784 21.766C76.1791 21.1206 76.1806 20.4752 76.1822 19.8298C76.1828 19.3901 76.1833 18.9504 76.1838 18.5107C76.1852 17.4373 76.1872 16.3639 76.1898 15.2905C76.8208 15.0331 77.3689 15.0168 78.0468 15.0186C78.1578 15.0186 78.2688 15.0185 78.3832 15.0185C78.7486 15.0187 79.114 15.0206 79.4794 15.0225C79.7338 15.0229 79.9883 15.0233 80.2428 15.0235C80.9118 15.0245 81.5808 15.0269 82.2498 15.0296C82.9308 15.0321 83.6119 15.0332 84.2929 15.0344C85.4891 15.0367 86.6853 15.0403 87.8815 15.0447C88.2067 15.0458 88.5319 15.0463 88.8571 15.0463C88.8564 15.2586 88.8558 15.4709 88.8551 15.6896C88.8529 16.4847 88.8515 17.2798 88.8504 18.0749C88.8498 18.4176 88.849 18.7603 88.8479 19.1031C88.8464 19.5985 88.8457 20.0939 88.8452 20.5894C88.8446 20.7402 88.8439 20.8909 88.8433 21.0462C88.8432 21.9707 88.8854 22.8826 88.9646 23.8038C88.9826 24.3057 88.9455 24.6884 88.6482 25.103C88.5589 25.1957 88.47 25.2884 88.378 25.3838C88.2915 25.4775 88.2049 25.5711 88.1158 25.6675C87.0272 26.4129 85.4376 26.1855 84.1858 26.1783C83.9605 26.1779 83.7351 26.1776 83.5029 26.1772C82.9074 26.1763 82.3119 26.1739 81.7164 26.1712C81.1073 26.1687 80.4981 26.1676 79.889 26.1663C78.6965 26.1637 77.5041 26.1596 76.3116 26.1544Z" fill="#416A6F"/>
</svg>
