<svg width="139" height="30" viewBox="0 0 139 30" fill="none" xmlns="http://www.w3.org/2000/svg">
<path d="M0.232104 24.1569C0.0254385 22.0902 0.0541909 19.9975 0.0443529 17.922C0.043568 17.7644 0.0427862 17.6067 0.0419775 17.4443C0.0380772 16.6122 0.035203 15.7801 0.0330504 14.948C0.0310763 14.2658 0.0269504 13.5836 0.020956 12.9014C0.0136466 12.0686 0.0100274 11.2359 0.0089836 10.403C0.00800229 10.089 0.00578084 9.775 0.00221817 9.46099C-0.0242264 6.99278 0.160843 4.73335 1.92882 2.86935C4.17433 0.579611 6.27161 0.0866929 9.4417 0.0421365C10.3899 0.03499 11.338 0.0355494 12.2861 0.0367004C12.7181 0.0361479 13.15 0.0354687 13.5819 0.0346727C14.765 0.03287 15.948 0.0329036 17.1311 0.0332526C18.4085 0.0333129 19.6859 0.0316839 20.9633 0.0302837C23.4643 0.0278321 25.9653 0.0270138 28.4663 0.0268528C30.4993 0.0267168 32.5322 0.026106 34.5652 0.0251666C35.151 0.0249014 35.7368 0.0246398 36.3227 0.0243776C36.4683 0.0243123 36.614 0.0242465 36.764 0.0241792C40.8588 0.0223619 44.9535 0.0211918 49.0483 0.0213231C49.2025 0.0213277 49.3568 0.0213341 49.5157 0.0213389C50.2976 0.0213634 51.0794 0.0213897 51.8612 0.02142C52.0165 0.0214259 52.1718 0.021432 52.3317 0.0214381C52.6457 0.02145 52.9597 0.0214659 53.2737 0.0214786C58.1597 0.0216595 63.0456 0.0194374 67.9316 0.0153967C73.4244 0.0108558 78.9173 0.00831668 84.4102 0.00859113C84.9961 0.00861318 85.582 0.00862932 86.168 0.00863847C86.3122 0.00864192 86.4565 0.00864394 86.6051 0.00864749C88.9241 0.00865658 91.243 0.00677154 93.5619 0.00422466C95.8931 0.00171738 98.2242 0.00148245 100.555 0.00337256C101.818 0.00433745 103.08 0.00434822 104.342 0.00178557C105.498 -0.000537813 106.655 -0.000109929 107.811 0.00246635C108.228 0.00291999 108.646 0.00237863 109.063 0.000730587C111.817 -0.00941858 114.404 0.0689251 116.908 1.35503C117.039 1.42166 117.171 1.4883 117.306 1.55695C117.588 1.70017 117.869 1.8448 118.15 1.99075C118.601 2.22557 119.054 2.45635 119.507 2.68651C121.183 3.53998 122.845 4.41752 124.503 5.30461C125.184 5.66802 125.866 6.0304 126.549 6.39184C126.716 6.48042 126.883 6.56899 127.055 6.66025C129.731 8.07066 132.375 9.18685 135.299 9.99149C136.7 10.4195 137.911 11.7015 138.652 12.9389C139.142 14.2253 139.093 15.705 138.639 16.9964C137.592 19.0676 135.983 19.7997 133.884 20.5004C133.47 20.6306 133.057 20.7606 132.644 20.8906C129.33 21.9745 126.258 23.7337 123.176 25.3387C122.747 25.5616 122.318 25.7843 121.889 26.007C121.68 26.1155 121.471 26.224 121.255 26.3358C120.644 26.6524 120.033 26.968 119.422 27.2835C118.766 27.6223 118.113 27.965 117.463 28.3154C117.214 28.4466 116.966 28.5777 116.717 28.7089C116.518 28.8165 116.319 28.9241 116.114 29.035C113.591 30.041 111.086 30.0027 108.415 29.9935C107.979 29.9942 107.543 29.9952 107.107 29.9963C105.914 29.9988 104.721 29.9976 103.528 29.9958C102.239 29.9944 100.951 29.9965 99.6622 29.9981C97.2855 30.0006 94.9088 30.0004 92.5321 29.9987C90.3363 29.9973 88.1406 29.9969 85.9449 29.9976C85.7991 29.9976 85.6532 29.9977 85.503 29.9977C84.911 29.9979 84.319 29.9981 83.727 29.9983C78.1776 30.0001 72.6281 29.9984 67.0786 29.9953C62.1511 29.9925 57.2235 29.9927 52.2959 29.9955C46.756 29.9987 41.216 30 35.676 29.9981C35.0852 29.9979 34.4944 29.9978 33.9036 29.9976C33.7582 29.9975 33.6127 29.9975 33.4628 29.9974C31.2686 29.9968 29.0743 29.9975 26.8801 29.999C24.3847 30.0007 21.8894 30.0002 19.394 29.9971C18.1211 29.9956 16.8482 29.9949 15.5752 29.9969C14.4095 29.9987 13.2439 29.9977 12.0782 29.9945C11.6569 29.9939 11.2357 29.9942 10.8145 29.9957C6.46731 30.0093 1.43237 29.1405 0.232104 24.1569Z" fill="#FEDF7D"/>
<path d="M24.696 19.6956C24.4559 18.9691 24.502 18.2187 24.5089 17.4619C24.5089 17.2773 24.5088 17.0928 24.5087 16.9026C24.509 16.2927 24.5125 15.6828 24.5159 15.0729C24.5168 14.65 24.5174 14.2271 24.5178 13.8042C24.5195 12.6911 24.5239 11.578 24.5288 10.4649C24.5333 9.32911 24.5353 8.19328 24.5375 7.05746C24.5423 4.82883 24.5498 2.60023 24.5591 0.371622C25.3513 0.0432298 26.0574 0.0389716 26.9096 0.0385577C27.0573 0.038084 27.205 0.0376109 27.3572 0.0371229C27.8544 0.0358921 28.3516 0.0367722 28.8488 0.037638C29.208 0.0371919 29.5673 0.0366191 29.9265 0.035927C30.9154 0.0344027 31.9042 0.0347305 32.8931 0.0353612C33.959 0.0357247 35.0249 0.0343951 36.0907 0.0332873C38.1798 0.0314008 40.269 0.0311396 42.3581 0.031485C44.0563 0.0317481 45.7545 0.0314902 47.4527 0.0308606C47.6941 0.0307726 47.9356 0.0306897 48.1844 0.0305991C48.675 0.0304201 49.1655 0.0302378 49.6561 0.0300581C54.26 0.02845 58.8639 0.0287702 63.4679 0.0296703C67.6794 0.0304337 71.8909 0.0287744 76.1025 0.0259644C80.4258 0.0231019 84.749 0.0218814 89.0723 0.0224365C91.4999 0.0227191 93.9275 0.022351 96.3552 0.0202634C98.4225 0.0185037 100.49 0.0182949 102.557 0.0200842C103.612 0.0209545 104.666 0.0211153 105.721 0.0193448C106.687 0.0177417 107.653 0.0181991 108.619 0.0202713C108.968 0.0206626 109.317 0.0203116 109.666 0.0191284C114.498 0.00388208 114.498 0.0038811 115.919 1.13511C116.149 1.31493 116.149 1.31493 116.385 1.49838C116.537 1.62322 116.689 1.74805 116.845 1.87666C117.001 1.99864 117.157 2.12062 117.318 2.24629C118.203 2.94775 119.057 3.65842 119.803 4.50818C119.892 5.36875 119.892 5.81048 119.382 6.50663C118.748 7.16378 118.037 7.67146 117.297 8.20153C116.323 9.00872 116.323 9.00872 115.813 10.1313C116.083 11.1346 116.832 11.6712 117.647 12.2458C118.631 12.9598 119.539 13.6246 119.831 14.8403C119.775 16.0504 119.032 16.5751 118.181 17.361C117.839 17.6095 117.495 17.8559 117.149 18.0997C116.552 18.6414 116.04 19.142 115.675 19.8725C113.197 19.9883 110.727 20.0425 108.246 20.043C107.885 20.0436 107.523 20.0442 107.161 20.045C106.179 20.0467 105.196 20.0476 104.214 20.0482C103.15 20.0491 102.086 20.0508 101.022 20.0524C98.4616 20.056 95.9012 20.0582 93.3408 20.0601C92.6176 20.0607 91.8943 20.0612 91.1711 20.0618C86.6754 20.0656 82.1797 20.0688 77.684 20.0707C76.646 20.0711 75.6081 20.0715 74.5702 20.072C74.3123 20.0721 74.0543 20.0722 73.7886 20.0723C69.597 20.0742 65.4054 20.0791 61.2138 20.0852C56.9078 20.0915 52.6017 20.095 48.2957 20.0958C45.8789 20.0963 43.4621 20.098 41.0453 20.1029C38.9907 20.107 36.9361 20.1086 34.8816 20.107C33.8328 20.1062 32.784 20.1067 31.7353 20.1103C30.7767 20.1136 29.8182 20.1135 28.8596 20.1107C28.5115 20.1103 28.1635 20.1111 27.8154 20.1133C27.3449 20.1161 26.8746 20.1144 26.4041 20.1116C26.011 20.1119 26.011 20.1119 25.6099 20.1122C25.0014 20.0203 25.0014 20.0203 24.696 19.6956Z" fill="#FED064"/>
<path d="M24.8536 10.1221C24.6125 9.39761 24.5222 9.04299 24.5252 8.3214C24.5252 8.144 24.5253 7.9666 24.5253 7.78383C24.5268 7.59452 24.5283 7.4052 24.5299 7.21015C24.5303 7.01466 24.5307 6.81916 24.5312 6.61775C24.5328 5.99458 24.5365 5.37145 24.5403 4.7483C24.5417 4.32529 24.5431 3.90229 24.5443 3.47929C24.5475 2.4434 24.5531 1.40749 24.5591 0.371622C25.3513 0.0432298 26.0574 0.0389716 26.9096 0.0385577C27.0573 0.038084 27.205 0.0376109 27.3572 0.0371229C27.8544 0.0358921 28.3516 0.0367722 28.8488 0.037638C29.208 0.0371919 29.5673 0.0366191 29.9265 0.035927C30.9154 0.0344027 31.9042 0.0347305 32.8931 0.0353612C33.959 0.0357247 35.0249 0.0343951 36.0907 0.0332873C38.1798 0.0314008 40.269 0.0311396 42.3581 0.031485C44.0563 0.0317481 45.7545 0.0314902 47.4527 0.0308606C47.6941 0.0307726 47.9356 0.0306897 48.1844 0.0305991C48.675 0.0304201 49.1655 0.0302378 49.6561 0.0300581C54.26 0.02845 58.8639 0.0287702 63.4679 0.0296703C67.6794 0.0304337 71.8909 0.0287744 76.1025 0.0259644C80.4258 0.0231019 84.749 0.0218814 89.0723 0.0224365C91.4999 0.0227191 93.9275 0.022351 96.3552 0.0202634C98.4225 0.0185037 100.49 0.0182949 102.557 0.0200842C103.612 0.0209545 104.666 0.0211153 105.721 0.0193448C106.687 0.0177417 107.653 0.0181991 108.619 0.0202713C108.968 0.0206626 109.317 0.0203116 109.666 0.0191284C114.498 0.00388208 114.498 0.0038811 115.919 1.13511C116.073 1.25499 116.226 1.37487 116.385 1.49838C116.537 1.62322 116.689 1.74805 116.845 1.87666C117.079 2.05963 117.079 2.05963 117.318 2.24629C118.203 2.94775 119.057 3.65842 119.803 4.50818C119.892 5.36875 119.892 5.81048 119.382 6.50663C118.748 7.16378 118.037 7.67146 117.297 8.20153C116.645 8.79885 116.072 9.32522 115.675 10.1221C85.7037 10.1221 55.7327 10.1221 24.8536 10.1221Z" fill="#FEC150"/>
<path d="M0.232104 24.1569C0.0254385 22.0902 0.0541909 19.9975 0.0443529 17.922C0.043568 17.7644 0.0427862 17.6067 0.0419775 17.4443C0.0380772 16.6122 0.035203 15.7801 0.0330504 14.948C0.0310763 14.2658 0.0269504 13.5836 0.020956 12.9014C0.0136466 12.0686 0.0100274 11.2359 0.0089836 10.403C0.00800229 10.089 0.00578084 9.775 0.00221817 9.46099C-0.0242264 6.99278 0.160843 4.73335 1.92882 2.86935C4.05776 0.698484 6.00586 0.102331 9.0385 0.0529541C10.1821 0.0435877 11.3256 0.0502886 12.4692 0.057679C12.8705 0.0591638 13.2717 0.0605115 13.6729 0.0617186C14.6478 0.0649467 15.6226 0.0700313 16.5975 0.0761458C16.879 0.790627 16.9288 1.39142 16.9278 2.15721C16.9282 2.39958 16.9286 2.64195 16.929 2.89166C16.9274 3.28888 16.9274 3.28888 16.9258 3.69412C16.9257 3.97661 16.9258 4.25911 16.926 4.5416C16.926 5.30767 16.9243 6.07373 16.9222 6.8398C16.9204 7.6407 16.9202 8.4416 16.9199 9.2425C16.919 10.7587 16.9165 12.275 16.9136 13.7912C16.9103 15.5176 16.9087 17.2439 16.9072 18.9703C16.9041 22.5212 16.8989 26.0721 16.8923 29.623C16.2797 29.8371 15.7829 29.9564 15.1327 29.9614C14.8785 29.9642 14.8785 29.9642 14.6193 29.9671C14.4377 29.9674 14.2562 29.9677 14.0692 29.9681C13.8797 29.9691 13.6902 29.97 13.4949 29.971C13.0936 29.9725 12.6923 29.9732 12.2911 29.9732C11.6841 29.9738 11.0772 29.9792 10.4702 29.9848C6.21529 30.0035 1.39213 28.9734 0.232104 24.1569Z" fill="#DE74A5"/>
<path d="M116.412 28.5889C116.363 28.5402 116.315 28.4914 116.265 28.4412C116.375 28.3517 116.486 28.2622 116.6 28.1699C117.083 27.7736 117.559 27.3703 118.034 26.9638C118.181 26.8401 118.328 26.7163 118.48 26.5887C119.154 25.979 119.472 25.6424 119.683 24.7386C119.4 23.5567 118.624 22.9965 117.665 22.3102C115.916 21.0581 115.916 21.0581 115.666 19.8634C115.908 18.7352 116.603 18.2332 117.499 17.6012C118.5 16.8748 119.384 16.2334 119.693 14.9974C119.338 13.5783 118.148 12.8512 117.002 12.0427C116.289 11.4849 115.862 11.0472 115.666 10.1314C115.959 8.7328 117.073 8.10839 118.181 7.3152C118.914 6.70756 119.426 6.22572 119.739 5.31156C119.645 4.5699 119.43 4.27472 118.876 3.78401C118.236 3.28809 117.573 2.8253 116.908 2.36264C116.278 1.89818 115.763 1.38916 115.233 0.814898C115.982 0.965189 116.499 1.20038 117.181 1.54261C117.302 1.60329 117.423 1.66398 117.548 1.72651C117.813 1.8594 118.078 1.99275 118.342 2.12648C118.769 2.3422 119.197 2.55645 119.625 2.77057C121.252 3.58805 122.866 4.42641 124.471 5.28674C128.011 7.17817 131.411 8.92178 135.299 9.99149C136.7 10.4195 137.911 11.7015 138.652 12.9389C139.142 14.2253 139.093 15.705 138.639 16.9964C137.592 19.0676 135.983 19.7997 133.884 20.5004C133.47 20.6306 133.057 20.7606 132.644 20.8906C129.073 22.0591 125.77 23.9935 122.453 25.7296C121.812 26.0644 121.171 26.3979 120.53 26.7313C120.241 26.8834 120.241 26.8834 119.946 27.0386C118.793 27.638 117.636 28.1513 116.412 28.5889Z" fill="#F1D59C"/>
<path d="M16.8922 29.9184C16.7477 28.3524 16.7248 26.8024 16.728 25.2303C16.728 24.9591 16.728 24.6879 16.728 24.4085C16.7279 23.6706 16.7288 22.9327 16.7298 22.1948C16.7308 21.4215 16.7308 20.6482 16.731 19.8749C16.7315 18.4131 16.7327 16.9513 16.7342 15.4895C16.7358 13.8242 16.7366 12.1589 16.7374 10.4937C16.7389 7.0704 16.7415 3.64713 16.7448 0.223868C17.0484 0.199332 17.352 0.175123 17.6557 0.15105C17.9093 0.130774 17.9093 0.130774 18.1681 0.110089C18.8257 0.0648308 19.4796 0.0595561 20.1387 0.0617072C20.3986 0.0621833 20.6585 0.0626594 20.9263 0.0631499C21.3241 0.0650067 21.3241 0.0650067 21.73 0.066901C22.0026 0.0675675 22.2753 0.0682341 22.5562 0.0689208C23.2238 0.0706493 23.8913 0.0730712 24.5589 0.0761344C24.7035 1.64217 24.7264 3.19213 24.7231 4.76428C24.7231 5.03545 24.7232 5.30663 24.7232 5.58602C24.7232 6.32395 24.7224 7.06187 24.7213 7.79979C24.7204 8.57308 24.7203 9.34637 24.7201 10.1197C24.7197 11.5815 24.7185 13.0433 24.717 14.5051C24.7153 16.1703 24.7145 17.8356 24.7138 19.5009C24.7123 22.9242 24.7097 26.3474 24.7064 29.7707C24.4028 29.7952 24.0991 29.8194 23.7955 29.8435C23.6264 29.857 23.4573 29.8705 23.2831 29.8845C22.6254 29.9297 21.9715 29.935 21.3124 29.9329C21.0525 29.9324 20.7926 29.9319 20.5249 29.9314C20.2596 29.9302 19.9944 29.9289 19.7212 29.9277C19.4485 29.927 19.1759 29.9263 18.895 29.9256C18.2274 29.9239 17.5598 29.9215 16.8922 29.9184Z" fill="#E4FAEE"/>
<path d="M0.231894 12.3381C-0.0732706 9.35673 -0.249864 6.50777 1.11651 3.7695C3.16672 1.42905 4.89274 0.307954 8.04604 0.0761515C9.51988 0.0303199 10.995 0.0481518 12.4692 0.057679C12.8705 0.0591638 13.2717 0.0605115 13.6729 0.0617186C14.6478 0.0649467 15.6226 0.0700313 16.5975 0.0761458C16.8676 0.768298 16.927 1.34216 16.921 2.08326C16.9201 2.29369 16.9191 2.50413 16.9182 2.72094C16.9157 2.93899 16.9132 3.15704 16.9107 3.3817C16.9093 3.60318 16.908 3.82466 16.9066 4.05285C16.9032 4.59861 16.8983 5.14432 16.8922 5.69005C15.5832 5.81206 14.294 5.85147 12.98 5.83143C12.6046 5.82813 12.2292 5.82496 11.8538 5.82191C11.2711 5.81643 10.6885 5.81005 10.1059 5.80132C9.53737 5.79322 8.96886 5.78896 8.40024 5.78527C8.22833 5.78175 8.05642 5.77824 7.87931 5.77462C5.85988 5.76823 3.97913 6.44724 2.50795 7.85989C1.47321 8.92318 0.986083 10.0568 0.526767 11.4517C0.469561 11.6225 0.412354 11.7933 0.353414 11.9693C0.313312 12.091 0.27321 12.2127 0.231894 12.3381Z" fill="#DD5890"/>
<path d="M130.566 21.4976C130.429 19.9938 130.4 18.5076 130.405 16.998C130.405 16.7581 130.405 16.5182 130.405 16.271C130.406 15.5109 130.408 14.7509 130.41 13.9908C130.41 13.4729 130.411 12.955 130.412 12.437C130.413 11.1729 130.416 9.90882 130.419 8.64472C132.756 8.59835 135.938 9.83342 137.625 11.4517C138.815 12.9014 139.063 14.1055 138.919 15.9512C138.659 17.3659 137.865 18.4248 136.746 19.3074C134.97 20.4218 132.613 21.0875 130.566 21.4976Z" fill="#98BA61"/>
<path d="M17.0397 5.8378C16.7695 5.14565 16.7101 4.57179 16.716 3.8307C16.7174 3.51504 16.7174 3.51504 16.7189 3.19302C16.7213 2.97496 16.7238 2.75691 16.7264 2.53225C16.7277 2.31077 16.729 2.08929 16.7304 1.8611C16.7339 1.31534 16.7387 0.7696 16.7448 0.223868C18.4087 0.0647794 20.0593 0.0591037 21.73 0.066901C22.0026 0.0675675 22.2753 0.0682341 22.5562 0.0689208C23.2238 0.0706493 23.8913 0.0730712 24.5589 0.0761344C24.674 1.35053 24.7259 2.61024 24.7156 3.88956C24.7146 4.13022 24.7146 4.13022 24.7136 4.37575C24.7119 4.76462 24.7092 5.15348 24.7064 5.54233C23.8965 5.8857 23.1155 5.87582 22.2518 5.86666C22.1025 5.86624 21.9532 5.86582 21.7994 5.86539C21.3247 5.86374 20.8501 5.86003 20.3754 5.85627C20.0527 5.85479 19.73 5.85344 19.4073 5.85223C18.6181 5.84898 17.8289 5.84388 17.0397 5.8378Z" fill="#D4EEF9"/>
</svg>
