<svg width="30" height="30" viewBox="0 0 30 30" fill="none" xmlns="http://www.w3.org/2000/svg">
<path fill-rule="evenodd" clip-rule="evenodd" d="M13.7531 0.0886941C10.9996 0.551585 8.67482 2.58414 7.82621 5.27049C7.39115 6.6478 7.39115 8.35241 7.82621 9.72971C8.67839 12.4274 11.014 14.4626 13.7706 14.9096C16.1652 15.2979 18.5932 14.5158 20.3042 12.8048C21.7294 11.3795 22.499 9.51953 22.499 7.5001C22.499 4.20948 20.3772 1.32133 17.2291 0.326819C16.2279 0.0105887 14.7997 -0.0872629 13.7531 0.0886941ZM14.1688 17.5229C9.41416 17.8645 5.29431 21.3 4.10416 25.9157C3.77363 27.1976 3.64865 28.7664 3.84048 29.2256C3.96113 29.5145 4.19468 29.7561 4.48191 29.889C4.7072 29.9933 5.11378 29.9975 14.9995 29.9975C24.8852 29.9975 25.2918 29.9933 25.5171 29.889C25.8043 29.7561 26.0378 29.5145 26.1585 29.2256C26.2763 28.9435 26.2773 28.1678 26.161 27.2799C25.5406 22.5476 21.9257 18.6692 17.2533 17.7232C16.675 17.6061 15.0854 17.4384 14.853 17.4701C14.8208 17.4744 14.5129 17.4982 14.1688 17.5229Z" fill="#FF3D00"/>
</svg>
