<svg width="25" height="25" viewBox="0 0 25 25" fill="none" xmlns="http://www.w3.org/2000/svg">
<g clip-path="url(#clip0_104_187)">
<path fill-rule="evenodd" clip-rule="evenodd" d="M11.64 0.0639838C11.0008 0.205927 10.378 0.505194 9.83986 0.928924C9.69259 1.04489 1.76882 9.58131 0.585469 10.8988C0.440596 11.0602 0.253828 11.335 0.17043 11.5096L0.0188673 11.827L0.00578135 17.0402C-0.00876943 22.8452 -0.0228319 22.5698 0.324922 23.2771C0.553633 23.7423 1.14592 24.3548 1.59235 24.5877C2.33488 24.9753 2.18 24.9571 4.88947 24.9751L7.31867 24.9911V21.6259C7.31867 17.9943 7.32795 17.8353 7.58351 17.0859C8.15607 15.4072 9.52848 14.1338 11.2637 13.6715C11.6765 13.5615 11.8352 13.5452 12.4944 13.5452C13.1537 13.5452 13.3124 13.5615 13.7252 13.6715C15.4422 14.129 16.7874 15.3737 17.3961 17.0681C17.6601 17.8032 17.6702 17.9715 17.6702 21.6259V24.9911L20.0994 24.976L22.5286 24.9607L22.8938 24.8206C23.411 24.6222 23.82 24.3482 24.1814 23.9578C24.5174 23.5949 24.8051 23.076 24.8972 22.6668C24.9274 22.5325 24.9726 22.3845 24.9977 22.3379C25.0494 22.2417 25.0627 11.8645 25.0111 11.9161C24.9935 11.9337 24.9378 11.8261 24.8874 11.6768C24.837 11.5275 24.7471 11.3294 24.6876 11.2364C24.6281 11.1435 22.5027 8.82135 19.9647 6.07609C16.7592 2.60915 15.2457 1.00646 15.0086 0.828338C14.5914 0.514813 14.1035 0.270185 13.6175 0.130683C13.1253 -0.0106255 12.1273 -0.044268 11.64 0.0639838ZM0.0179884 17.1492C0.0179884 20.0227 0.0238966 21.1911 0.0310743 19.7456C0.038252 18.3 0.038252 15.949 0.0310743 14.5209C0.0238966 13.093 0.0179884 14.2757 0.0179884 17.1492ZM12.1038 15.6098C11.0662 15.7535 10.1491 16.3949 9.71583 17.28C9.3588 18.0092 9.36945 17.8759 9.36945 21.6272V24.9861H12.496H15.6226L15.6088 21.5071L15.595 18.0281L15.467 17.6989C14.9114 16.2709 13.5293 15.4124 12.1038 15.6098Z" fill="#FF3D00"/>
</g>
<defs>
<clipPath id="clip0_104_187">
<rect width="25" height="25" fill="white"/>
</clipPath>
</defs>
</svg>
