<svg width="30" height="30" viewBox="0 0 30 30" fill="none" xmlns="http://www.w3.org/2000/svg">
<g clip-path="url(#clip0_112_48)">
<path fill-rule="evenodd" clip-rule="evenodd" d="M14.1778 0.0369105C13.7413 0.119821 13.0857 0.311071 12.7881 0.442321C12.4007 0.61318 4.0406 5.34152 4.04213 5.38892C4.04271 5.40603 4.28658 5.55486 4.58412 5.71968C4.88166 5.88445 5.95568 6.48838 6.97082 7.06172C7.98595 7.63505 8.84289 8.10369 8.87511 8.10322C8.94437 8.10216 19.6806 2.06466 19.7895 1.96541C19.8477 1.9125 19.609 1.75371 18.7056 1.24453C16.8353 0.190368 16.4438 0.056598 15.1446 0.0274769C14.6935 0.0173402 14.2584 0.0216176 14.1778 0.0369105ZM20.3302 4.52015C19.1861 5.16504 17.4585 6.13816 16.4911 6.68267C15.5236 7.22718 14.6841 7.70771 14.6255 7.75054C14.5301 7.82027 14.6864 7.92269 16.1209 8.73005C17.0019 9.22593 17.8028 9.67869 17.9006 9.73611L18.0784 9.84058L19.0432 9.29619C19.5738 8.99677 21.3131 8.01832 22.9083 7.12183C24.5035 6.22535 25.8421 5.46117 25.8829 5.42367C25.9507 5.36121 25.0455 4.8174 22.6446 3.4783L22.4103 3.34757L20.3302 4.52015ZM1.2264 6.99691C0.0129859 7.87933 -0.348303 9.46289 0.360388 10.7924C0.559666 11.1664 1.17408 11.784 1.55564 11.9938L1.7892 12.1222L4.05361 10.8512C5.73256 9.90884 6.30015 9.56361 6.24888 9.51609C6.21092 9.48082 5.17785 8.88949 3.95324 8.20207C2.72863 7.51459 1.67394 6.91869 1.60949 6.87779C1.50742 6.8131 1.45797 6.82845 1.2264 6.99691ZM26.1109 8.15877C24.7964 8.90086 23.7425 9.52822 23.7688 9.55289C23.795 9.57755 24.8143 10.1587 26.0339 10.8445L28.2512 12.0912L28.4639 11.9783C28.8181 11.7902 29.439 11.162 29.6359 10.7924C30.3471 9.4582 29.9631 7.81535 28.7439 6.97658L28.501 6.80941L26.1109 8.15877ZM10.4278 10.0986C9.60607 10.5624 7.91857 11.5141 6.67785 12.2134C5.43713 12.9127 4.40383 13.5028 4.38156 13.5247C4.35935 13.5466 5.13719 14.0166 6.11008 14.569L7.87902 15.5733L8.32375 15.3307C9.58334 14.6433 15.5252 11.2757 15.5231 11.2503C15.5201 11.2133 12.0983 9.29302 11.9966 9.27123C11.9556 9.26244 11.2496 9.63474 10.4278 10.0986ZM15.8185 13.9523C12.902 15.5976 10.4973 16.9612 10.4747 16.9826C10.429 17.0261 12.2577 18.0735 12.7881 18.3077C13.5094 18.6262 14.0145 18.7206 14.9982 18.7206C16.0197 18.7206 16.5365 18.6172 17.3087 18.2583C17.6825 18.0847 25.5743 13.6366 25.6752 13.5428C25.7128 13.5078 21.3371 11.0051 21.1835 10.9737C21.1492 10.9668 18.735 12.3071 15.8185 13.9523ZM28.177 14.7228C28.0346 14.7959 25.3172 16.3789 22.1385 18.2406C18.9596 20.1023 16.2043 21.6829 16.0154 21.753C15.5288 21.9336 14.4737 21.936 13.994 21.7576C13.8123 21.69 10.9515 20.1091 7.63662 18.2444L1.60949 14.8542L1.25793 14.8541C0.590896 14.854 0.0634937 15.3264 0.00993901 15.972C-0.0229907 16.3693 0.102927 16.7255 0.365076 16.9767C0.557146 17.1607 11.924 23.5851 12.6876 23.9413C13.4577 24.3004 13.9757 24.4042 14.9982 24.4042C16.0193 24.4042 16.5354 24.301 17.3087 23.9423C17.7538 23.7358 29.2612 17.0164 29.5659 16.7851C29.6665 16.7087 29.8026 16.5375 29.8684 16.4046C29.9601 16.2192 29.9943 16.1879 30.0155 16.2701C30.0307 16.3289 30.0462 16.2396 30.05 16.0717C30.063 15.4848 29.7459 14.9322 29.254 14.6844C28.9779 14.5454 28.4889 14.5628 28.177 14.7228ZM0.0163257 16.0841C0.0166187 16.2775 0.0275757 16.3495 0.0406421 16.2442C0.05365 16.1389 0.0534156 15.9807 0.0400562 15.8926C0.0266382 15.8045 0.0159742 15.8907 0.0163257 16.0841ZM28.3126 20.2172C28.2395 20.2465 25.5193 21.8281 22.2677 23.7318C19.0161 25.6355 16.2018 27.2501 16.0138 27.3199C15.5314 27.499 14.4727 27.5021 13.999 27.3257C13.8201 27.2591 10.9592 25.6784 7.6416 23.813L1.60949 20.4213L1.25793 20.4209C0.59113 20.4201 0.0634937 20.8926 0.00993901 21.5384C-0.0229907 21.9357 0.102927 22.2919 0.365076 22.5431C0.469431 22.643 2.42687 23.7768 4.71496 25.0626C7.00304 26.3484 9.6925 27.8597 10.6915 28.4211C11.6905 28.9825 12.7176 29.5264 12.9738 29.6298C14.2903 30.161 16.008 30.1125 17.3109 29.5075C17.7536 29.3019 29.2612 22.5821 29.5659 22.3512C29.6665 22.2749 29.8026 22.1039 29.8684 21.971C29.9601 21.7856 29.9943 21.7543 30.0155 21.8365C30.0307 21.8953 30.0462 21.806 30.05 21.6381C30.063 21.0512 29.7459 20.4986 29.254 20.2508C29.0509 20.1486 28.5297 20.1299 28.3126 20.2172ZM0.0163257 21.6505C0.0166187 21.8439 0.0275757 21.9159 0.0406421 21.8106C0.05365 21.7053 0.0534156 21.5471 0.0400562 21.459C0.0266382 21.371 0.0159742 21.4571 0.0163257 21.6505Z" fill="#FF3D00"/>
</g>
<defs>
<clipPath id="clip0_112_48">
<rect width="30" height="30" fill="white"/>
</clipPath>
</defs>
</svg>
