<svg width="20" height="20" viewBox="0 0 20 20" fill="none" xmlns="http://www.w3.org/2000/svg">
<path fill-rule="evenodd" clip-rule="evenodd" d="M7.61071 0.0555916C5.6393 0.323487 3.9322 1.16664 2.53922 2.56037C1.84774 3.25228 1.30207 4.03125 0.846632 4.97665C-0.114336 6.97152 -0.264176 9.30976 0.432588 11.4376C1.28491 14.0405 3.34299 16.1201 5.91859 16.9808C6.90426 17.3102 7.72212 17.4421 8.75824 17.4386C10.5009 17.4328 12.1381 16.9381 13.5519 15.9901L13.9513 15.7222L15.9546 17.7212C17.2969 19.0605 18.0157 19.7502 18.133 19.8114C18.2808 19.8886 18.3654 19.9027 18.6776 19.9027C19.0028 19.9026 19.0704 19.8902 19.2416 19.7991C19.4747 19.6751 19.6864 19.4605 19.8111 19.2218C19.8885 19.0737 19.9027 18.9896 19.9027 18.6769C19.9027 18.3647 19.8885 18.28 19.8114 18.1321C19.7503 18.0147 19.0609 17.2955 17.7224 15.9525L15.7246 13.948L15.997 13.5393C16.8401 12.2749 17.3336 10.801 17.43 9.2597C17.7171 4.67022 14.3981 0.64704 9.83572 0.0543461C9.27374 -0.0186313 8.15246 -0.0180086 7.61071 0.0555916ZM7.96081 2.60801C4.89986 2.99761 2.57255 5.65131 2.57337 8.751C2.57384 10.4663 3.24431 12.019 4.50853 13.2326C7.08791 15.7086 11.2481 15.4465 13.5408 12.6636C14.17 11.9 14.6086 10.9673 14.8312 9.91965C14.9577 9.32412 14.9589 8.21875 14.8338 7.59294C14.5814 6.33115 14.0404 5.30966 13.1425 4.39948C11.9506 3.19125 10.3972 2.55107 8.69989 2.56855C8.44316 2.57119 8.11057 2.58898 7.96081 2.60801Z" fill="white"/>
</svg>
