<svg width="30" height="30" viewBox="0 0 30 30" fill="none" xmlns="http://www.w3.org/2000/svg">
<g clip-path="url(#clip0_112_55)">
<path fill-rule="evenodd" clip-rule="evenodd" d="M4.99217 0.122475C2.64912 0.614545 0.844727 2.3229 0.188301 4.67093L0.0280469 5.24415V15V24.7559L0.188477 25.3377C0.793105 27.5305 2.47281 29.205 4.67928 29.8149L5.24289 29.9707L12.6382 29.9867L20.0335 30.0026L20.0503 26.471L20.0671 22.9395L20.225 22.507C20.6093 21.4548 21.452 20.6108 22.5001 20.2283L22.9382 20.0684L26.4678 20.0516L29.9973 20.0347L30.0134 22.2488C30.0222 23.4666 30.0297 20.1782 30.0299 14.9414C30.0302 9.7046 30.0228 6.03956 30.0137 6.79689L29.9972 8.17384L24.3595 13.8124L18.7218 19.451L18.7129 20.1113C18.6736 23.0101 16.6798 25.4284 13.7683 26.1085C13.3813 26.1988 12.899 26.2139 9.73006 26.2343C5.65053 26.2605 5.56768 26.2538 4.93967 25.8472C4.34652 25.4632 3.99168 24.9624 3.83336 24.2858C3.72232 23.8114 3.74225 23.5422 3.96109 22.5586C4.70113 19.2318 6.44219 16.3673 8.58144 14.9566C9.41793 14.4049 10.5616 13.9664 11.4544 13.8548L11.7771 13.8145L17.9611 6.96587C21.3623 3.19912 24.1718 0.117201 24.2043 0.117201C24.2369 0.117201 24.2472 0.0908341 24.2273 0.0586076C24.2034 0.0199357 21.0231 0.00142007 14.8635 0.00417398C5.85185 0.00821695 5.51746 0.0122013 4.99217 0.122475ZM26.8947 1.32441C26.4521 1.44335 26.1635 1.62769 25.7413 2.06111C25.5428 2.2649 22.9926 5.07816 20.0741 8.31271L14.7677 14.1938L15.182 14.3923C15.4098 14.5014 15.7896 14.7245 16.026 14.8879C16.5197 15.2292 17.3413 16.0583 17.6323 16.5088C17.7416 16.678 17.8469 16.8164 17.8663 16.8164C17.8857 16.8164 20.5147 14.1995 23.7085 11.001C29.3255 5.37564 29.5223 5.17115 29.73 4.74488C30.0902 4.00572 30.0701 3.15652 29.6765 2.48497C29.3321 1.89734 28.6462 1.4215 27.9544 1.29031C27.5393 1.21156 27.284 1.21982 26.8947 1.32441ZM0.0273438 15C0.0273438 20.2368 0.0342578 22.3791 0.0426953 19.7608C0.0511328 17.1423 0.0511328 12.8576 0.0426953 10.2393C0.0342578 7.62083 0.0273438 9.7632 0.0273438 15ZM11.7662 16.2904C9.96766 16.5939 8.48002 17.9287 7.38795 20.2187C6.90332 21.235 6.26828 23.1825 6.26828 23.6524V23.7959L9.68137 23.7749C12.7137 23.7562 13.1335 23.7424 13.444 23.6517C15.1354 23.1576 16.2471 21.7132 16.2471 20.0098C16.2471 18.965 15.8987 18.129 15.1458 17.3668C14.773 16.9895 14.574 16.8416 14.1784 16.648C13.413 16.2733 12.5904 16.1513 11.7662 16.2904ZM23.2306 22.6093C22.9371 22.7426 22.641 23.0742 22.5573 23.3633C22.5139 23.5135 22.499 24.5518 22.5108 26.6129L22.528 29.6417L22.9871 29.4421C23.9499 29.0234 24.3156 28.7206 26.5175 26.5187C28.8512 24.1851 29.1324 23.8297 29.5935 22.6318L29.6443 22.5L26.5549 22.5013C23.6934 22.5025 23.4482 22.5104 23.2306 22.6093Z" fill="white"/>
</g>
<defs>
<clipPath id="clip0_112_55">
<rect width="30" height="30" fill="white"/>
</clipPath>
</defs>
</svg>
