<svg width="129" height="48" viewBox="0 0 129 48" fill="none" xmlns="http://www.w3.org/2000/svg">
<path d="M101.933 47.2151C99.3416 47.2151 96.8445 46.9333 94.4416 46.3696C92.0859 45.806 89.8952 44.9822 87.8692 43.8983L85.6077 46.3696H74.0176L81.0847 38.8257C79.2001 36.788 77.7396 34.4683 76.703 31.867C75.6664 29.2655 75.1482 26.5123 75.1482 23.6075C75.1482 20.2257 75.8078 17.104 77.1271 14.2426C78.4463 11.381 80.2838 8.88805 82.6395 6.76359C85.0424 4.59578 87.8692 2.92655 91.1201 1.75593C94.4181 0.585312 98.0224 0 101.933 0C104.43 0 106.786 0.260142 109 0.780419C111.262 1.3007 113.358 2.01608 115.29 2.92655L117.269 0.84545H129L122.287 7.93421C124.312 9.97197 125.891 12.3349 127.021 15.023C128.152 17.6676 128.718 20.5293 128.718 23.6075C128.718 26.9894 128.058 30.1111 126.739 32.9726C125.42 35.8341 123.559 38.3486 121.156 40.5165C118.8 42.6411 115.973 44.2885 112.675 45.4592C109.424 46.6298 105.843 47.2151 101.933 47.2151ZM101.933 35.899C103.676 35.899 105.254 35.5956 106.668 34.9885C108.081 34.3382 109.283 33.4494 110.272 32.3222C111.262 31.1949 112.015 29.8942 112.534 28.4201C113.052 26.9026 113.311 25.2984 113.311 23.6075C113.311 22.6104 113.193 21.6783 112.958 20.8111C112.769 19.9006 112.487 19.0334 112.11 18.2096L96.6325 34.6634C97.4334 35.0536 98.258 35.357 99.1061 35.5739C100.001 35.7907 100.943 35.899 101.933 35.899ZM91.5442 28.225L106.527 12.2265C105.82 11.923 105.09 11.7062 104.336 11.5762C103.582 11.4027 102.781 11.316 101.933 11.316C100.19 11.316 98.6114 11.6412 97.198 12.2915C95.7844 12.8985 94.583 13.7656 93.5937 14.8929C92.6043 16.0202 91.8504 17.3425 91.3321 18.86C90.8139 20.3341 90.5548 21.9167 90.5548 23.6075C90.5548 24.4313 90.6254 25.2334 90.7667 26.0139C90.9552 26.7943 91.2143 27.5314 91.5442 28.225Z" fill="#FF3D00"/>
<path d="M37.8803 47.2151C34.8648 47.2151 32.0143 46.6515 29.3289 45.5242C26.6904 44.397 24.5467 42.7276 22.8977 40.5165C21.2486 38.3053 20.4242 35.5956 20.4242 32.3872V14.7628C20.4242 14.1992 20.2828 13.7223 20.0001 13.3321C19.7646 12.8985 19.4348 12.5733 19.0108 12.3566C18.5867 12.1398 18.092 12.0314 17.5266 12.0314C16.9613 12.0314 16.443 12.1398 15.9719 12.3566C15.5478 12.5733 15.1945 12.8985 14.9118 13.3321C14.6762 13.7223 14.5584 14.1992 14.5584 14.7628V27.7264H0V14.8929C0 11.7279 0.80095 9.0398 2.40285 6.82863C4.05186 4.61745 6.21913 2.92655 8.90468 1.75593C11.5902 0.585312 14.4642 0 17.5266 0C20.5891 0 23.4395 0.585312 26.078 1.75593C28.7165 2.92655 30.86 4.61745 32.5091 6.82863C34.1581 9.0398 34.9827 11.7279 34.9827 14.8929V32.5173C34.9827 33.0809 35.1241 33.5795 35.4066 34.013C35.6894 34.4033 36.0427 34.7067 36.4667 34.9235C36.8908 35.1404 37.3384 35.2487 37.8095 35.2487C38.3279 35.2487 38.8224 35.1404 39.2937 34.9235C39.7647 34.7067 40.1417 34.4033 40.4243 34.013C40.7071 33.5795 40.8484 33.0809 40.8484 32.5173V14.8929C40.8484 11.7279 41.6729 9.0398 43.3219 6.82863C44.9709 4.61745 47.1147 2.92655 49.7531 1.75593C52.4386 0.585312 55.289 0 58.3043 0C61.3198 0 64.1466 0.585312 66.785 1.75593C69.4235 2.92655 71.5671 4.61745 73.2161 6.82863C74.8651 9.0398 75.6897 11.7279 75.6897 14.8929V46.3696H61.2019V14.5677C61.2019 14.0475 61.0607 13.6139 60.7779 13.2671C60.4952 12.8768 60.1418 12.5733 59.7179 12.3566C59.2937 12.1398 58.8227 12.0314 58.3043 12.0314C57.7861 12.0314 57.2914 12.1398 56.8203 12.3566C56.349 12.5733 55.9722 12.8768 55.6895 13.2671C55.454 13.6139 55.3361 14.0475 55.3361 14.5677V32.3872C55.3361 35.5956 54.488 38.3053 52.7919 40.5165C51.1429 42.7276 48.9993 44.397 46.3608 45.5242C43.7224 46.6515 40.8956 47.2151 37.8803 47.2151Z" fill="#FF3D00"/>
</svg>
